M48
;DRILL file {KiCad 4.0.1-stable} date 3/30/2016 9:00:26 PM
;FORMAT={-:-/ absolute / inch / decimal}
FMAT,2
INCH,TZ
T1C0.012
T2C0.026
T3C0.028
T4C0.031
T5C0.040
T6C0.059
%
G90
G05
M72
T1
X3.7175Y-4.053
X3.8065Y-5.714
X3.923Y-4.584
X4.0415Y-5.139
X4.0575Y-4.006
X4.0595Y-6.258
X4.0785Y-5.6615
X4.1135Y-4.7695
X4.142Y-5.7375
X4.1555Y-6.0085
X4.1665Y-4.7695
X4.1875Y-3.172
X4.1875Y-5.8645
X4.264Y-5.6905
X4.2685Y-5.1354
X4.3311Y-6.3522
X4.337Y-6.3935
X4.34Y-5.7215
X4.345Y-3.165
X4.3577Y-3.9518
X4.37Y-6.402
X4.3895Y-2.861
X4.3961Y-4.9299
X4.4205Y-5.715
X4.422Y-4.103
X4.4275Y-5.8875
X4.4375Y-4.979
X4.4715Y-4.249
X4.4775Y-3.074
X4.516Y-4.919
X4.517Y-5.887
X4.524Y-4.775
X4.558Y-6.5997
X4.5635Y-5.576
X4.565Y-3.926
X4.6045Y-4.9805
X4.613Y-5.2025
X4.676Y-5.7206
X4.6799Y-5.0355
X4.7055Y-5.0965
X4.7055Y-5.9075
X4.7275Y-5.1855
X4.7515Y-5.048
X4.762Y-5.0025
X4.7766Y-5.1016
X4.8015Y-5.61
X4.809Y-4.006
X4.809Y-4.7619
X4.862Y-6.007
X4.889Y-3.069
X4.8935Y-5.1875
X4.894Y-5.8355
X4.8958Y-4.0379
X4.8965Y-4.0065
X4.9425Y-4.3512
X4.949Y-3.871
X4.97Y-4.1155
X4.973Y-3.898
X4.9755Y-2.93
X4.9769Y-5.9146
X4.9905Y-6.7405
X4.9922Y-6.9334
X5.Y-5.141
X5.Y-5.2365
X5.0025Y-4.611
X5.0047Y-3.9257
X5.0075Y-5.4505
X5.0245Y-5.9325
X5.0295Y-3.7488
X5.0467Y-3.027
X5.0534Y-7.0585
X5.058Y-3.933
X5.0585Y-5.3545
X5.062Y-2.991
X5.068Y-3.7505
X5.0694Y-6.1445
X5.08Y-4.3455
X5.0975Y-5.3465
X5.1125Y-3.8675
X5.1144Y-4.3464
X5.1185Y-5.3228
X5.1322Y-6.8224
X5.1445Y-6.248
X5.1475Y-6.1635
X5.1514Y-2.9359
X5.165Y-6.133
X5.1663Y-6.0885
X5.2485Y-4.1475
X5.278Y-4.0704
X5.293Y-5.582
X5.321Y-5.597
X5.3371Y-5.9069
X5.3505Y-5.7992
X5.3765Y-5.779
X5.388Y-6.4945
X5.4125Y-5.7485
X5.421Y-5.58
X5.442Y-5.2345
X5.458Y-5.913
X5.5365Y-4.329
X5.5795Y-5.6885
X5.607Y-6.449
X5.6075Y-5.143
X5.6299Y-5.937
X5.6466Y-6.625
X5.703Y-5.3005
X5.707Y-5.7005
X5.7087Y-5.9365
X5.7135Y-5.015
X5.7325Y-3.237
X5.743Y-5.6885
X5.7505Y-4.973
X5.7525Y-5.1875
X5.7628Y-5.9093
X5.778Y-5.4465
X5.7945Y-5.7365
X5.8065Y-4.0035
X5.809Y-6.2965
X5.839Y-5.692
X5.8495Y-6.499
X5.9715Y-3.5035
X5.9845Y-3.5575
X5.9985Y-4.7785
X6.0265Y-4.0636
X6.0675Y-5.493
X6.194Y-5.9485
X6.3905Y-3.507
X6.4145Y-5.347
X6.4655Y-6.8415
T4
X3.887Y-3.1995
X3.887Y-4.137
X3.887Y-4.887
X3.887Y-5.637
X3.887Y-6.387
X3.887Y-7.137
X3.987Y-3.1995
X3.987Y-4.137
X3.987Y-4.887
X3.987Y-5.637
X3.987Y-6.387
X3.987Y-7.137
X4.137Y-5.012
X4.137Y-5.112
X4.137Y-6.512
X4.137Y-6.612
X4.262Y-7.137
X4.362Y-7.137
X4.637Y-3.1995
X4.637Y-4.137
X4.637Y-4.887
X4.637Y-5.637
X4.637Y-6.387
X4.637Y-7.137
X4.737Y-3.1995
X4.737Y-4.137
X4.737Y-4.887
X4.737Y-5.637
X4.737Y-6.387
X4.737Y-7.137
X5.387Y-3.1995
X5.387Y-4.137
X5.387Y-4.887
X5.387Y-5.637
X5.387Y-6.387
X5.387Y-7.137
X5.487Y-3.1995
X5.487Y-4.137
X5.487Y-4.887
X5.487Y-5.637
X5.487Y-6.387
X5.487Y-7.137
X5.762Y-7.137
X5.862Y-7.137
X6.137Y-3.1995
X6.137Y-4.137
X6.137Y-4.887
X6.137Y-5.637
X6.137Y-6.387
X6.137Y-7.137
X6.237Y-3.1995
X6.237Y-4.137
X6.237Y-4.887
X6.237Y-5.637
X6.237Y-6.387
X6.237Y-7.137
X6.387Y-5.012
X6.387Y-5.112
X6.387Y-6.512
X6.387Y-6.612
T5
X3.9244Y-4.3811
X3.9952Y-4.3103
X4.0659Y-4.2396
X4.1366Y-4.1689
X4.2073Y-4.0982
X4.278Y-4.0275
X5.929Y-5.8285
X6.029Y-5.8285
X6.0886Y-3.2948
X6.129Y-5.8285
X6.187Y-3.2948
X6.229Y-5.8285
X6.2854Y-3.2948
X6.329Y-5.8285
X6.429Y-5.8285
T6
X3.737Y-4.9662
X3.737Y-6.4662
X3.7598Y-4.9678
X3.7598Y-6.4678
X3.7795Y-5.1647
X3.7795Y-6.6647
X3.7828Y-2.8995
X3.7828Y-3.837
X3.7828Y-4.587
X3.7828Y-5.337
X3.7828Y-6.087
X3.7828Y-6.837
X3.8343Y-2.842
X3.8343Y-3.7795
X3.8343Y-4.5295
X3.8343Y-5.2795
X3.8343Y-6.0295
X3.8343Y-6.7795
X3.837Y-5.2163
X3.837Y-6.7163
X4.0312Y-2.8223
X4.0312Y-3.7598
X4.0312Y-4.5098
X4.0312Y-5.2598
X4.0312Y-6.0098
X4.0312Y-6.7598
X4.0328Y-2.7995
X4.0328Y-3.737
X4.0328Y-4.487
X4.0328Y-5.237
X4.0328Y-5.987
X4.0328Y-6.737
X4.1578Y-6.837
X4.2093Y-6.7795
X4.4062Y-6.7598
X4.4078Y-6.737
X4.5328Y-2.8995
X4.5328Y-3.837
X4.5328Y-4.587
X4.5328Y-5.337
X4.5328Y-6.087
X4.5328Y-6.837
X4.5843Y-2.842
X4.5843Y-3.7795
X4.5843Y-4.5295
X4.5843Y-5.2795
X4.5843Y-6.0295
X4.5843Y-6.7795
X4.7812Y-2.8223
X4.7812Y-3.7598
X4.7812Y-4.5098
X4.7812Y-5.2598
X4.7812Y-6.0098
X4.7812Y-6.7598
X4.7828Y-2.7995
X4.7828Y-3.737
X4.7828Y-4.487
X4.7828Y-5.237
X4.7828Y-5.987
X4.7828Y-6.737
X5.2828Y-2.8995
X5.2828Y-3.837
X5.2828Y-4.587
X5.2828Y-5.337
X5.2828Y-6.087
X5.2828Y-6.837
X5.3343Y-2.842
X5.3343Y-3.7795
X5.3343Y-4.5295
X5.3343Y-5.2795
X5.3343Y-6.0295
X5.3343Y-6.7795
X5.5312Y-2.8223
X5.5312Y-3.7598
X5.5312Y-4.5098
X5.5312Y-5.2598
X5.5312Y-6.0098
X5.5312Y-6.7598
X5.5328Y-2.7995
X5.5328Y-3.737
X5.5328Y-4.487
X5.5328Y-5.237
X5.5328Y-5.987
X5.5328Y-6.737
X5.6578Y-6.837
X5.7093Y-6.7795
X5.9062Y-6.7598
X5.9078Y-6.737
X5.987Y-4.9662
X5.987Y-6.4662
X6.0098Y-4.9678
X6.0098Y-6.4678
X6.0295Y-5.1647
X6.0295Y-6.6647
X6.0328Y-2.8995
X6.0328Y-3.837
X6.0328Y-4.587
X6.0328Y-5.337
X6.0328Y-6.087
X6.0328Y-6.837
X6.0843Y-2.842
X6.0843Y-3.7795
X6.0843Y-4.5295
X6.0843Y-5.2795
X6.0843Y-6.0295
X6.0843Y-6.7795
X6.087Y-5.2163
X6.087Y-6.7163
X6.2812Y-2.8223
X6.2812Y-3.7598
X6.2812Y-4.5098
X6.2812Y-5.2598
X6.2812Y-6.0098
X6.2812Y-6.7598
X6.2828Y-2.7995
X6.2828Y-3.737
X6.2828Y-4.487
X6.2828Y-5.237
X6.2828Y-5.987
X6.2828Y-6.737
T2
X4.9665Y-2.8622G85X4.9665Y-2.878
G05
X4.9665Y-3.7997G85X4.9665Y-3.8155
G05
X5.1575Y-2.8622G85X5.1575Y-2.878
G05
X5.1575Y-3.7997G85X5.1575Y-3.8155
G05
T3
X4.9547Y-2.7421G85X4.9547Y-2.7618
G05
X4.9547Y-3.6796G85X4.9547Y-3.6993
G05
X5.1693Y-2.7421G85X5.1693Y-2.7618
G05
X5.1693Y-3.6796G85X5.1693Y-3.6993
G05
T0
M30
