M48
;DRILL file {KiCad 4.0.1-stable} date 4/26/2016 9:38:33 PM
;FORMAT={-:-/ absolute / inch / decimal}
FMAT,2
INCH,TZ
T1C0.039
T2C0.039
T3C0.039
T4C0.067
T5C0.093
T6C0.093
T7C0.098
T8C0.120
T9C0.157
%
G90
G05
M72
T1
X5.6135Y-5.
X5.6135Y-5.08
T2
X5.8135Y-5.04
T4
X3.737Y-2.9995
X3.737Y-3.937
X3.737Y-4.687
X3.737Y-5.437
X3.737Y-6.187
X3.737Y-6.937
X3.937Y-4.862
X3.937Y-5.262
X3.937Y-6.362
X3.937Y-6.762
X4.112Y-6.937
X4.137Y-2.9995
X4.137Y-3.937
X4.137Y-4.687
X4.137Y-5.437
X4.137Y-6.187
X4.137Y-6.937
X4.487Y-2.9995
X4.487Y-3.937
X4.487Y-4.687
X4.487Y-5.437
X4.487Y-6.187
X4.487Y-6.937
X4.512Y-6.937
X4.887Y-2.9995
X4.887Y-3.937
X4.887Y-4.687
X4.887Y-5.437
X4.887Y-6.187
X4.887Y-6.937
X5.237Y-2.9995
X5.237Y-3.937
X5.237Y-4.687
X5.237Y-5.437
X5.237Y-6.187
X5.237Y-6.937
X5.612Y-6.937
X5.637Y-2.9995
X5.637Y-3.937
X5.637Y-4.687
X5.637Y-5.437
X5.637Y-6.187
X5.637Y-6.937
X5.987Y-2.9995
X5.987Y-3.937
X5.987Y-4.687
X5.987Y-5.437
X5.987Y-6.187
X5.987Y-6.937
X6.012Y-6.937
X6.187Y-4.862
X6.187Y-5.262
X6.187Y-6.362
X6.187Y-6.762
X6.387Y-2.9995
X6.387Y-3.937
X6.387Y-4.687
X6.387Y-5.437
X6.387Y-6.187
X6.387Y-6.937
T5
X5.6885Y-4.94
X5.6885Y-5.14
X5.8085Y-5.14
T6
X5.8135Y-4.94
T7
X5.9665Y-2.9995
X6.4075Y-2.9995
T8
X3.662Y-4.592
X3.662Y-5.532
X3.662Y-6.092
X3.662Y-7.032
X3.842Y-7.212
X4.782Y-7.212
X5.342Y-7.212
X6.282Y-7.212
X6.462Y-4.592
X6.462Y-5.532
X6.462Y-6.092
X6.462Y-7.032
T9
X3.842Y-6.612
X3.937Y-2.9995
X3.937Y-3.937
X3.937Y-4.687
X3.937Y-5.062
X3.937Y-5.437
X3.937Y-6.187
X3.937Y-6.562
X3.937Y-6.937
X4.262Y-4.592
X4.262Y-5.532
X4.262Y-6.092
X4.262Y-7.032
X4.312Y-6.937
X4.687Y-2.9995
X4.687Y-3.937
X4.687Y-4.687
X4.687Y-5.437
X4.687Y-6.187
X4.687Y-6.937
X4.782Y-6.612
X5.342Y-6.612
X5.437Y-2.9995
X5.437Y-3.937
X5.437Y-4.687
X5.437Y-5.437
X5.437Y-6.187
X5.437Y-6.937
X5.812Y-6.937
X5.862Y-4.592
X5.862Y-5.532
X5.862Y-6.092
X5.862Y-7.032
X6.187Y-2.9995
X6.187Y-3.937
X6.187Y-4.687
X6.187Y-5.062
X6.187Y-5.437
X6.187Y-6.187
X6.187Y-6.562
X6.187Y-6.937
X6.282Y-6.612
T3
X4.4124Y-3.6026G85X5.7116Y-3.6026
G05
T0
M30
