G04 #@! TF.FileFunction,Legend,Top*
%FSLAX46Y46*%
G04 Gerber Fmt 4.6, Leading zero omitted, Abs format (unit mm)*
G04 Created by KiCad (PCBNEW 4.0.1-stable) date 4/15/2016 10:54:05 AM*
%MOMM*%
G01*
G04 APERTURE LIST*
%ADD10C,0.100000*%
%ADD11C,0.250000*%
%ADD12C,0.127000*%
G04 APERTURE END LIST*
D10*
D11*
X122622619Y-108266862D02*
X122765476Y-108314481D01*
X123003572Y-108314481D01*
X123098810Y-108266862D01*
X123146429Y-108219243D01*
X123194048Y-108124005D01*
X123194048Y-108028767D01*
X123146429Y-107933529D01*
X123098810Y-107885910D01*
X123003572Y-107838290D01*
X122813095Y-107790671D01*
X122717857Y-107743052D01*
X122670238Y-107695433D01*
X122622619Y-107600195D01*
X122622619Y-107504957D01*
X122670238Y-107409719D01*
X122717857Y-107362100D01*
X122813095Y-107314481D01*
X123051191Y-107314481D01*
X123194048Y-107362100D01*
X123575000Y-108028767D02*
X124051191Y-108028767D01*
X123479762Y-108314481D02*
X123813095Y-107314481D01*
X124146429Y-108314481D01*
X124479762Y-108314481D02*
X124479762Y-107314481D01*
X124813096Y-108028767D01*
X125146429Y-107314481D01*
X125146429Y-108314481D01*
X125622619Y-108314481D02*
X125622619Y-107314481D01*
X126003572Y-107314481D01*
X126098810Y-107362100D01*
X126146429Y-107409719D01*
X126194048Y-107504957D01*
X126194048Y-107647814D01*
X126146429Y-107743052D01*
X126098810Y-107790671D01*
X126003572Y-107838290D01*
X125622619Y-107838290D01*
X127051191Y-108314481D02*
X127051191Y-107790671D01*
X127003572Y-107695433D01*
X126908334Y-107647814D01*
X126717857Y-107647814D01*
X126622619Y-107695433D01*
X127051191Y-108266862D02*
X126955953Y-108314481D01*
X126717857Y-108314481D01*
X126622619Y-108266862D01*
X126575000Y-108171624D01*
X126575000Y-108076386D01*
X126622619Y-107981148D01*
X126717857Y-107933529D01*
X126955953Y-107933529D01*
X127051191Y-107885910D01*
X127955953Y-108314481D02*
X127955953Y-107314481D01*
X127955953Y-108266862D02*
X127860715Y-108314481D01*
X127670238Y-108314481D01*
X127575000Y-108266862D01*
X127527381Y-108219243D01*
X127479762Y-108124005D01*
X127479762Y-107838290D01*
X127527381Y-107743052D01*
X127575000Y-107695433D01*
X127670238Y-107647814D01*
X127860715Y-107647814D01*
X127955953Y-107695433D01*
X129765477Y-108314481D02*
X129432143Y-107838290D01*
X129194048Y-108314481D02*
X129194048Y-107314481D01*
X129575001Y-107314481D01*
X129670239Y-107362100D01*
X129717858Y-107409719D01*
X129765477Y-107504957D01*
X129765477Y-107647814D01*
X129717858Y-107743052D01*
X129670239Y-107790671D01*
X129575001Y-107838290D01*
X129194048Y-107838290D01*
X130575001Y-108266862D02*
X130479763Y-108314481D01*
X130289286Y-108314481D01*
X130194048Y-108266862D01*
X130146429Y-108171624D01*
X130146429Y-107790671D01*
X130194048Y-107695433D01*
X130289286Y-107647814D01*
X130479763Y-107647814D01*
X130575001Y-107695433D01*
X130622620Y-107790671D01*
X130622620Y-107885910D01*
X130146429Y-107981148D01*
X130955953Y-107647814D02*
X131194048Y-108314481D01*
X131432144Y-107647814D01*
X132765477Y-107314481D02*
X132860716Y-107314481D01*
X132955954Y-107362100D01*
X133003573Y-107409719D01*
X133051192Y-107504957D01*
X133098811Y-107695433D01*
X133098811Y-107933529D01*
X133051192Y-108124005D01*
X133003573Y-108219243D01*
X132955954Y-108266862D01*
X132860716Y-108314481D01*
X132765477Y-108314481D01*
X132670239Y-108266862D01*
X132622620Y-108219243D01*
X132575001Y-108124005D01*
X132527382Y-107933529D01*
X132527382Y-107695433D01*
X132575001Y-107504957D01*
X132622620Y-107409719D01*
X132670239Y-107362100D01*
X132765477Y-107314481D01*
X133527382Y-108219243D02*
X133575001Y-108266862D01*
X133527382Y-108314481D01*
X133479763Y-108266862D01*
X133527382Y-108219243D01*
X133527382Y-108314481D01*
X133955953Y-107409719D02*
X134003572Y-107362100D01*
X134098810Y-107314481D01*
X134336906Y-107314481D01*
X134432144Y-107362100D01*
X134479763Y-107409719D01*
X134527382Y-107504957D01*
X134527382Y-107600195D01*
X134479763Y-107743052D01*
X133908334Y-108314481D01*
X134527382Y-108314481D01*
X110098809Y-109964481D02*
X110098809Y-108964481D01*
X110336904Y-108964481D01*
X110479762Y-109012100D01*
X110575000Y-109107338D01*
X110622619Y-109202576D01*
X110670238Y-109393052D01*
X110670238Y-109535910D01*
X110622619Y-109726386D01*
X110575000Y-109821624D01*
X110479762Y-109916862D01*
X110336904Y-109964481D01*
X110098809Y-109964481D01*
X111479762Y-109916862D02*
X111384524Y-109964481D01*
X111194047Y-109964481D01*
X111098809Y-109916862D01*
X111051190Y-109821624D01*
X111051190Y-109440671D01*
X111098809Y-109345433D01*
X111194047Y-109297814D01*
X111384524Y-109297814D01*
X111479762Y-109345433D01*
X111527381Y-109440671D01*
X111527381Y-109535910D01*
X111051190Y-109631148D01*
X111908333Y-109916862D02*
X112003571Y-109964481D01*
X112194047Y-109964481D01*
X112289286Y-109916862D01*
X112336905Y-109821624D01*
X112336905Y-109774005D01*
X112289286Y-109678767D01*
X112194047Y-109631148D01*
X112051190Y-109631148D01*
X111955952Y-109583529D01*
X111908333Y-109488290D01*
X111908333Y-109440671D01*
X111955952Y-109345433D01*
X112051190Y-109297814D01*
X112194047Y-109297814D01*
X112289286Y-109345433D01*
X112765476Y-109964481D02*
X112765476Y-109297814D01*
X112765476Y-108964481D02*
X112717857Y-109012100D01*
X112765476Y-109059719D01*
X112813095Y-109012100D01*
X112765476Y-108964481D01*
X112765476Y-109059719D01*
X113670238Y-109297814D02*
X113670238Y-110107338D01*
X113622619Y-110202576D01*
X113575000Y-110250195D01*
X113479761Y-110297814D01*
X113336904Y-110297814D01*
X113241666Y-110250195D01*
X113670238Y-109916862D02*
X113575000Y-109964481D01*
X113384523Y-109964481D01*
X113289285Y-109916862D01*
X113241666Y-109869243D01*
X113194047Y-109774005D01*
X113194047Y-109488290D01*
X113241666Y-109393052D01*
X113289285Y-109345433D01*
X113384523Y-109297814D01*
X113575000Y-109297814D01*
X113670238Y-109345433D01*
X114146428Y-109297814D02*
X114146428Y-109964481D01*
X114146428Y-109393052D02*
X114194047Y-109345433D01*
X114289285Y-109297814D01*
X114432143Y-109297814D01*
X114527381Y-109345433D01*
X114575000Y-109440671D01*
X114575000Y-109964481D01*
X115432143Y-109916862D02*
X115336905Y-109964481D01*
X115146428Y-109964481D01*
X115051190Y-109916862D01*
X115003571Y-109821624D01*
X115003571Y-109440671D01*
X115051190Y-109345433D01*
X115146428Y-109297814D01*
X115336905Y-109297814D01*
X115432143Y-109345433D01*
X115479762Y-109440671D01*
X115479762Y-109535910D01*
X115003571Y-109631148D01*
X116336905Y-109964481D02*
X116336905Y-108964481D01*
X116336905Y-109916862D02*
X116241667Y-109964481D01*
X116051190Y-109964481D01*
X115955952Y-109916862D01*
X115908333Y-109869243D01*
X115860714Y-109774005D01*
X115860714Y-109488290D01*
X115908333Y-109393052D01*
X115955952Y-109345433D01*
X116051190Y-109297814D01*
X116241667Y-109297814D01*
X116336905Y-109345433D01*
X118384524Y-109964481D02*
X118336905Y-109964481D01*
X118241667Y-109916862D01*
X118098810Y-109774005D01*
X117860715Y-109488290D01*
X117765476Y-109345433D01*
X117717857Y-109202576D01*
X117717857Y-109107338D01*
X117765476Y-109012100D01*
X117860715Y-108964481D01*
X117908334Y-108964481D01*
X118003572Y-109012100D01*
X118051191Y-109107338D01*
X118051191Y-109154957D01*
X118003572Y-109250195D01*
X117955953Y-109297814D01*
X117670238Y-109488290D01*
X117622619Y-109535910D01*
X117575000Y-109631148D01*
X117575000Y-109774005D01*
X117622619Y-109869243D01*
X117670238Y-109916862D01*
X117765476Y-109964481D01*
X117908334Y-109964481D01*
X118003572Y-109916862D01*
X118051191Y-109869243D01*
X118194048Y-109678767D01*
X118241667Y-109535910D01*
X118241667Y-109440671D01*
X119575000Y-109964481D02*
X119575000Y-108964481D01*
X119813095Y-108964481D01*
X119955953Y-109012100D01*
X120051191Y-109107338D01*
X120098810Y-109202576D01*
X120146429Y-109393052D01*
X120146429Y-109535910D01*
X120098810Y-109726386D01*
X120051191Y-109821624D01*
X119955953Y-109916862D01*
X119813095Y-109964481D01*
X119575000Y-109964481D01*
X120575000Y-109964481D02*
X120575000Y-109297814D01*
X120575000Y-109488290D02*
X120622619Y-109393052D01*
X120670238Y-109345433D01*
X120765476Y-109297814D01*
X120860715Y-109297814D01*
X121622620Y-109964481D02*
X121622620Y-109440671D01*
X121575001Y-109345433D01*
X121479763Y-109297814D01*
X121289286Y-109297814D01*
X121194048Y-109345433D01*
X121622620Y-109916862D02*
X121527382Y-109964481D01*
X121289286Y-109964481D01*
X121194048Y-109916862D01*
X121146429Y-109821624D01*
X121146429Y-109726386D01*
X121194048Y-109631148D01*
X121289286Y-109583529D01*
X121527382Y-109583529D01*
X121622620Y-109535910D01*
X122003572Y-109297814D02*
X122194048Y-109964481D01*
X122384525Y-109488290D01*
X122575001Y-109964481D01*
X122765477Y-109297814D01*
X123146429Y-109297814D02*
X123146429Y-109964481D01*
X123146429Y-109393052D02*
X123194048Y-109345433D01*
X123289286Y-109297814D01*
X123432144Y-109297814D01*
X123527382Y-109345433D01*
X123575001Y-109440671D01*
X123575001Y-109964481D01*
X124813096Y-109964481D02*
X124813096Y-109297814D01*
X124813096Y-108964481D02*
X124765477Y-109012100D01*
X124813096Y-109059719D01*
X124860715Y-109012100D01*
X124813096Y-108964481D01*
X124813096Y-109059719D01*
X125289286Y-109297814D02*
X125289286Y-109964481D01*
X125289286Y-109393052D02*
X125336905Y-109345433D01*
X125432143Y-109297814D01*
X125575001Y-109297814D01*
X125670239Y-109345433D01*
X125717858Y-109440671D01*
X125717858Y-109964481D01*
X126955953Y-109964481D02*
X126955953Y-108964481D01*
X127527382Y-109964481D02*
X127098810Y-109393052D01*
X127527382Y-108964481D02*
X126955953Y-109535910D01*
X127955953Y-109964481D02*
X127955953Y-109297814D01*
X127955953Y-108964481D02*
X127908334Y-109012100D01*
X127955953Y-109059719D01*
X128003572Y-109012100D01*
X127955953Y-108964481D01*
X127955953Y-109059719D01*
X129003572Y-109869243D02*
X128955953Y-109916862D01*
X128813096Y-109964481D01*
X128717858Y-109964481D01*
X128575000Y-109916862D01*
X128479762Y-109821624D01*
X128432143Y-109726386D01*
X128384524Y-109535910D01*
X128384524Y-109393052D01*
X128432143Y-109202576D01*
X128479762Y-109107338D01*
X128575000Y-109012100D01*
X128717858Y-108964481D01*
X128813096Y-108964481D01*
X128955953Y-109012100D01*
X129003572Y-109059719D01*
X129384524Y-109678767D02*
X129860715Y-109678767D01*
X129289286Y-109964481D02*
X129622619Y-108964481D01*
X129955953Y-109964481D01*
X130289286Y-109964481D02*
X130289286Y-108964481D01*
X130527381Y-108964481D01*
X130670239Y-109012100D01*
X130765477Y-109107338D01*
X130813096Y-109202576D01*
X130860715Y-109393052D01*
X130860715Y-109535910D01*
X130813096Y-109726386D01*
X130765477Y-109821624D01*
X130670239Y-109916862D01*
X130527381Y-109964481D01*
X130289286Y-109964481D01*
X132051191Y-109964481D02*
X132051191Y-108964481D01*
X132051191Y-109345433D02*
X132146429Y-109297814D01*
X132336906Y-109297814D01*
X132432144Y-109345433D01*
X132479763Y-109393052D01*
X132527382Y-109488290D01*
X132527382Y-109774005D01*
X132479763Y-109869243D01*
X132432144Y-109916862D01*
X132336906Y-109964481D01*
X132146429Y-109964481D01*
X132051191Y-109916862D01*
X132860715Y-109297814D02*
X133098810Y-109964481D01*
X133336906Y-109297814D02*
X133098810Y-109964481D01*
X133003572Y-110202576D01*
X132955953Y-110250195D01*
X132860715Y-110297814D01*
X134479763Y-109964481D02*
X134479763Y-108964481D01*
X134813097Y-109678767D01*
X135146430Y-108964481D01*
X135146430Y-109964481D01*
X135765477Y-109964481D02*
X135670239Y-109916862D01*
X135622620Y-109869243D01*
X135575001Y-109774005D01*
X135575001Y-109488290D01*
X135622620Y-109393052D01*
X135670239Y-109345433D01*
X135765477Y-109297814D01*
X135908335Y-109297814D01*
X136003573Y-109345433D01*
X136051192Y-109393052D01*
X136098811Y-109488290D01*
X136098811Y-109774005D01*
X136051192Y-109869243D01*
X136003573Y-109916862D01*
X135908335Y-109964481D01*
X135765477Y-109964481D01*
X136527382Y-109964481D02*
X136527382Y-108964481D01*
X136955954Y-109964481D02*
X136955954Y-109440671D01*
X136908335Y-109345433D01*
X136813097Y-109297814D01*
X136670239Y-109297814D01*
X136575001Y-109345433D01*
X136527382Y-109393052D01*
X137432144Y-109964481D02*
X137432144Y-109297814D01*
X137432144Y-108964481D02*
X137384525Y-109012100D01*
X137432144Y-109059719D01*
X137479763Y-109012100D01*
X137432144Y-108964481D01*
X137432144Y-109059719D01*
X137765477Y-109297814D02*
X138146429Y-109297814D01*
X137908334Y-108964481D02*
X137908334Y-109821624D01*
X137955953Y-109916862D01*
X138051191Y-109964481D01*
X138146429Y-109964481D01*
X139289287Y-108964481D02*
X139194049Y-109154957D01*
X139717858Y-109964481D02*
X139717858Y-108964481D01*
X140051192Y-109678767D01*
X140384525Y-108964481D01*
X140384525Y-109964481D01*
X141051191Y-108964481D02*
X141241668Y-108964481D01*
X141336906Y-109012100D01*
X141432144Y-109107338D01*
X141479763Y-109297814D01*
X141479763Y-109631148D01*
X141432144Y-109821624D01*
X141336906Y-109916862D01*
X141241668Y-109964481D01*
X141051191Y-109964481D01*
X140955953Y-109916862D01*
X140860715Y-109821624D01*
X140813096Y-109631148D01*
X140813096Y-109297814D01*
X140860715Y-109107338D01*
X140955953Y-109012100D01*
X141051191Y-108964481D01*
X141813096Y-108964481D02*
X142479763Y-108964481D01*
X141813096Y-109964481D01*
X142479763Y-109964481D01*
X142908334Y-108964481D02*
X142813096Y-109154957D01*
X144622620Y-109012100D02*
X144527382Y-108964481D01*
X144384525Y-108964481D01*
X144241667Y-109012100D01*
X144146429Y-109107338D01*
X144098810Y-109202576D01*
X144051191Y-109393052D01*
X144051191Y-109535910D01*
X144098810Y-109726386D01*
X144146429Y-109821624D01*
X144241667Y-109916862D01*
X144384525Y-109964481D01*
X144479763Y-109964481D01*
X144622620Y-109916862D01*
X144670239Y-109869243D01*
X144670239Y-109535910D01*
X144479763Y-109535910D01*
X145527382Y-109964481D02*
X145527382Y-109440671D01*
X145479763Y-109345433D01*
X145384525Y-109297814D01*
X145194048Y-109297814D01*
X145098810Y-109345433D01*
X145527382Y-109916862D02*
X145432144Y-109964481D01*
X145194048Y-109964481D01*
X145098810Y-109916862D01*
X145051191Y-109821624D01*
X145051191Y-109726386D01*
X145098810Y-109631148D01*
X145194048Y-109583529D01*
X145432144Y-109583529D01*
X145527382Y-109535910D01*
X146003572Y-109964481D02*
X146003572Y-109297814D01*
X146003572Y-109488290D02*
X146051191Y-109393052D01*
X146098810Y-109345433D01*
X146194048Y-109297814D01*
X146289287Y-109297814D01*
X147051192Y-109297814D02*
X147051192Y-110107338D01*
X147003573Y-110202576D01*
X146955954Y-110250195D01*
X146860715Y-110297814D01*
X146717858Y-110297814D01*
X146622620Y-110250195D01*
X147051192Y-109916862D02*
X146955954Y-109964481D01*
X146765477Y-109964481D01*
X146670239Y-109916862D01*
X146622620Y-109869243D01*
X146575001Y-109774005D01*
X146575001Y-109488290D01*
X146622620Y-109393052D01*
X146670239Y-109345433D01*
X146765477Y-109297814D01*
X146955954Y-109297814D01*
X147051192Y-109345433D01*
X119384522Y-110614481D02*
X119384522Y-111424005D01*
X119432141Y-111519243D01*
X119479760Y-111566862D01*
X119574998Y-111614481D01*
X119765475Y-111614481D01*
X119860713Y-111566862D01*
X119908332Y-111519243D01*
X119955951Y-111424005D01*
X119955951Y-110614481D01*
X120384522Y-111566862D02*
X120479760Y-111614481D01*
X120670236Y-111614481D01*
X120765475Y-111566862D01*
X120813094Y-111471624D01*
X120813094Y-111424005D01*
X120765475Y-111328767D01*
X120670236Y-111281148D01*
X120527379Y-111281148D01*
X120432141Y-111233529D01*
X120384522Y-111138290D01*
X120384522Y-111090671D01*
X120432141Y-110995433D01*
X120527379Y-110947814D01*
X120670236Y-110947814D01*
X120765475Y-110995433D01*
X121622618Y-111566862D02*
X121527380Y-111614481D01*
X121336903Y-111614481D01*
X121241665Y-111566862D01*
X121194046Y-111471624D01*
X121194046Y-111090671D01*
X121241665Y-110995433D01*
X121336903Y-110947814D01*
X121527380Y-110947814D01*
X121622618Y-110995433D01*
X121670237Y-111090671D01*
X121670237Y-111185910D01*
X121194046Y-111281148D01*
X122860713Y-111090671D02*
X123194047Y-111090671D01*
X123336904Y-111614481D02*
X122860713Y-111614481D01*
X122860713Y-110614481D01*
X123336904Y-110614481D01*
X124194047Y-111614481D02*
X124194047Y-111090671D01*
X124146428Y-110995433D01*
X124051190Y-110947814D01*
X123860713Y-110947814D01*
X123765475Y-110995433D01*
X124194047Y-111566862D02*
X124098809Y-111614481D01*
X123860713Y-111614481D01*
X123765475Y-111566862D01*
X123717856Y-111471624D01*
X123717856Y-111376386D01*
X123765475Y-111281148D01*
X123860713Y-111233529D01*
X124098809Y-111233529D01*
X124194047Y-111185910D01*
X124622618Y-111566862D02*
X124717856Y-111614481D01*
X124908332Y-111614481D01*
X125003571Y-111566862D01*
X125051190Y-111471624D01*
X125051190Y-111424005D01*
X125003571Y-111328767D01*
X124908332Y-111281148D01*
X124765475Y-111281148D01*
X124670237Y-111233529D01*
X124622618Y-111138290D01*
X124622618Y-111090671D01*
X124670237Y-110995433D01*
X124765475Y-110947814D01*
X124908332Y-110947814D01*
X125003571Y-110995433D01*
X125384523Y-110947814D02*
X125622618Y-111614481D01*
X125860714Y-110947814D02*
X125622618Y-111614481D01*
X125527380Y-111852576D01*
X125479761Y-111900195D01*
X125384523Y-111947814D01*
X126194047Y-111328767D02*
X126670238Y-111328767D01*
X126098809Y-111614481D02*
X126432142Y-110614481D01*
X126765476Y-111614481D01*
X126955952Y-110614481D02*
X127289285Y-111614481D01*
X127622619Y-110614481D01*
X128527381Y-111614481D02*
X128194047Y-111138290D01*
X127955952Y-111614481D02*
X127955952Y-110614481D01*
X128336905Y-110614481D01*
X128432143Y-110662100D01*
X128479762Y-110709719D01*
X128527381Y-110804957D01*
X128527381Y-110947814D01*
X128479762Y-111043052D01*
X128432143Y-111090671D01*
X128336905Y-111138290D01*
X127955952Y-111138290D01*
X129575000Y-110947814D02*
X129955952Y-110947814D01*
X129717857Y-110614481D02*
X129717857Y-111471624D01*
X129765476Y-111566862D01*
X129860714Y-111614481D01*
X129955952Y-111614481D01*
X130432143Y-111614481D02*
X130336905Y-111566862D01*
X130289286Y-111519243D01*
X130241667Y-111424005D01*
X130241667Y-111138290D01*
X130289286Y-111043052D01*
X130336905Y-110995433D01*
X130432143Y-110947814D01*
X130575001Y-110947814D01*
X130670239Y-110995433D01*
X130717858Y-111043052D01*
X130765477Y-111138290D01*
X130765477Y-111424005D01*
X130717858Y-111519243D01*
X130670239Y-111566862D01*
X130575001Y-111614481D01*
X130432143Y-111614481D01*
X131955953Y-111614481D02*
X131955953Y-110614481D01*
X132336906Y-110614481D01*
X132432144Y-110662100D01*
X132479763Y-110709719D01*
X132527382Y-110804957D01*
X132527382Y-110947814D01*
X132479763Y-111043052D01*
X132432144Y-111090671D01*
X132336906Y-111138290D01*
X131955953Y-111138290D01*
X132955953Y-111614481D02*
X132955953Y-110947814D01*
X132955953Y-111138290D02*
X133003572Y-111043052D01*
X133051191Y-110995433D01*
X133146429Y-110947814D01*
X133241668Y-110947814D01*
X133717858Y-111614481D02*
X133622620Y-111566862D01*
X133575001Y-111519243D01*
X133527382Y-111424005D01*
X133527382Y-111138290D01*
X133575001Y-111043052D01*
X133622620Y-110995433D01*
X133717858Y-110947814D01*
X133860716Y-110947814D01*
X133955954Y-110995433D01*
X134003573Y-111043052D01*
X134051192Y-111138290D01*
X134051192Y-111424005D01*
X134003573Y-111519243D01*
X133955954Y-111566862D01*
X133860716Y-111614481D01*
X133717858Y-111614481D01*
X134908335Y-110947814D02*
X134908335Y-111757338D01*
X134860716Y-111852576D01*
X134813097Y-111900195D01*
X134717858Y-111947814D01*
X134575001Y-111947814D01*
X134479763Y-111900195D01*
X134908335Y-111566862D02*
X134813097Y-111614481D01*
X134622620Y-111614481D01*
X134527382Y-111566862D01*
X134479763Y-111519243D01*
X134432144Y-111424005D01*
X134432144Y-111138290D01*
X134479763Y-111043052D01*
X134527382Y-110995433D01*
X134622620Y-110947814D01*
X134813097Y-110947814D01*
X134908335Y-110995433D01*
X135384525Y-111614481D02*
X135384525Y-110947814D01*
X135384525Y-111138290D02*
X135432144Y-111043052D01*
X135479763Y-110995433D01*
X135575001Y-110947814D01*
X135670240Y-110947814D01*
X136432145Y-111614481D02*
X136432145Y-111090671D01*
X136384526Y-110995433D01*
X136289288Y-110947814D01*
X136098811Y-110947814D01*
X136003573Y-110995433D01*
X136432145Y-111566862D02*
X136336907Y-111614481D01*
X136098811Y-111614481D01*
X136003573Y-111566862D01*
X135955954Y-111471624D01*
X135955954Y-111376386D01*
X136003573Y-111281148D01*
X136098811Y-111233529D01*
X136336907Y-111233529D01*
X136432145Y-111185910D01*
X136908335Y-111614481D02*
X136908335Y-110947814D01*
X136908335Y-111043052D02*
X136955954Y-110995433D01*
X137051192Y-110947814D01*
X137194050Y-110947814D01*
X137289288Y-110995433D01*
X137336907Y-111090671D01*
X137336907Y-111614481D01*
X137336907Y-111090671D02*
X137384526Y-110995433D01*
X137479764Y-110947814D01*
X137622621Y-110947814D01*
X137717859Y-110995433D01*
X137765478Y-111090671D01*
X137765478Y-111614481D01*
D12*
X143713200Y-123421140D02*
X143713200Y-124637800D01*
X145260060Y-123421140D02*
X145260060Y-124637800D01*
X146888200Y-123421140D02*
X146888200Y-124637800D01*
X148437600Y-123421140D02*
X148437600Y-124637800D01*
X143713200Y-132610860D02*
X143713200Y-131394200D01*
X145260060Y-132610860D02*
X145260060Y-131394200D01*
X146761200Y-132610860D02*
X146761200Y-131394200D01*
X148310600Y-132610860D02*
X148310600Y-131394200D01*
X148437600Y-123416060D02*
X146888200Y-123416060D01*
X145260060Y-123416060D02*
X143713200Y-123416060D01*
X143713200Y-132610860D02*
X145260060Y-132610860D01*
X146761200Y-132610860D02*
X148310600Y-132610860D01*
M02*
