M48
;DRILL file {KiCad 4.0.1-stable} date 5/21/2016 1:01:31 AM
;FORMAT={-:-/ absolute / metric / decimal}
FMAT,2
METRIC,TZ
T1C0.986
T2C0.988
T3C1.600
T4C1.702
T5C2.370
T6C2.372
T7C2.500
T8C3.048
T9C3.988
%
G90
G05
M71
T1
X142.583Y-127.
X142.583Y-129.032
T2
X147.663Y-128.016
T4
X94.92Y-76.188
X94.92Y-100.
X94.92Y-119.05
X94.92Y-138.1
X94.92Y-157.15
X94.92Y-176.2
X100.Y-123.495
X100.Y-133.655
X100.Y-161.595
X100.Y-171.755
X104.445Y-176.2
X105.08Y-76.188
X105.08Y-100.
X105.08Y-119.05
X105.08Y-138.1
X105.08Y-157.15
X105.08Y-176.2
X113.97Y-76.188
X113.97Y-100.
X113.97Y-119.05
X113.97Y-138.1
X113.97Y-157.15
X113.97Y-176.2
X114.605Y-176.2
X124.13Y-76.188
X124.13Y-100.
X124.13Y-119.05
X124.13Y-138.1
X124.13Y-157.15
X124.13Y-176.2
X133.02Y-76.188
X133.02Y-100.
X133.02Y-119.05
X133.02Y-138.1
X133.02Y-157.15
X133.02Y-176.2
X142.545Y-176.2
X143.18Y-76.188
X143.18Y-100.
X143.18Y-119.05
X143.18Y-138.1
X143.18Y-157.15
X143.18Y-176.2
X152.07Y-76.188
X152.07Y-100.
X152.07Y-119.05
X152.07Y-138.1
X152.07Y-157.15
X152.07Y-176.2
X152.705Y-176.2
X157.15Y-123.495
X157.15Y-133.655
X157.15Y-161.595
X157.15Y-171.755
X162.23Y-76.188
X162.23Y-100.
X162.23Y-119.05
X162.23Y-138.1
X162.23Y-157.15
X162.23Y-176.2
T5
X144.488Y-125.476
X144.488Y-130.556
X147.536Y-130.556
T6
X147.663Y-125.476
T7
X151.55Y-76.188
X162.75Y-76.188
T8
X93.015Y-116.637
X93.015Y-140.513
X93.015Y-154.737
X93.015Y-178.613
X97.587Y-183.185
X121.463Y-183.185
X135.687Y-183.185
X159.563Y-183.185
X164.135Y-116.637
X164.135Y-140.513
X164.135Y-154.737
X164.135Y-178.613
T9
X97.587Y-167.945
X100.Y-76.188
X100.Y-100.
X100.Y-119.05
X100.Y-128.575
X100.Y-138.1
X100.Y-157.15
X100.Y-166.675
X100.Y-176.2
X108.255Y-116.637
X108.255Y-140.513
X108.255Y-154.737
X108.255Y-178.613
X109.525Y-176.2
X119.05Y-76.188
X119.05Y-100.
X119.05Y-119.05
X119.05Y-138.1
X119.05Y-157.15
X119.05Y-176.2
X121.463Y-167.945
X135.687Y-167.945
X138.1Y-76.188
X138.1Y-100.
X138.1Y-119.05
X138.1Y-138.1
X138.1Y-157.15
X138.1Y-176.2
X147.625Y-176.2
X148.895Y-116.637
X148.895Y-140.513
X148.895Y-154.737
X148.895Y-178.613
X157.15Y-76.188
X157.15Y-100.
X157.15Y-119.05
X157.15Y-128.575
X157.15Y-138.1
X157.15Y-157.15
X157.15Y-166.675
X157.15Y-176.2
X159.563Y-167.945
T3
X112.375Y-91.206G85X144.775Y-91.206
G05
T0
M30
