M48
;DRILL file {KiCad 4.0.1-stable} date 5/21/2016 3:48:16 PM
;FORMAT={-:-/ absolute / metric / decimal}
FMAT,2
METRIC,TZ
T1C0.305
T2C0.650
T3C0.700
T4C0.800
T5C1.016
T6C1.500
%
G90
G05
M71
T1
X94.424Y-102.946
X96.685Y-145.136
X99.644Y-116.434
X102.654Y-130.531
X103.06Y-101.753
X103.111Y-158.953
X103.594Y-143.802
X104.483Y-121.145
X105.207Y-145.732
X105.55Y-152.616
X105.829Y-121.145
X106.362Y-148.958
X108.306Y-144.539
X108.42Y-130.438
X110.01Y-161.347
X110.16Y-162.395
X110.236Y-145.326
X110.363Y-80.391
X110.686Y-100.375
X110.998Y-162.611
X111.661Y-125.22
X112.281Y-145.161
X112.319Y-104.216
X112.459Y-149.542
X112.712Y-126.467
X113.411Y-94.869
X113.577Y-107.925
X113.728Y-78.08
X114.706Y-124.943
X114.732Y-149.53
X114.91Y-121.285
X115.773Y-167.633
X115.913Y-141.63
X116.954Y-126.505
X117.17Y-132.143
X118.77Y-145.304
X118.869Y-127.902
X119.52Y-129.451
X119.52Y-150.05
X120.078Y-131.712
X120.688Y-128.219
X120.955Y-127.063
X121.326Y-129.581
X121.958Y-142.494
X122.149Y-101.753
X122.149Y-120.953
X123.495Y-152.578
X123.825Y-179.705
X124.181Y-77.953
X124.295Y-131.762
X124.308Y-148.222
X124.353Y-102.563
X124.371Y-101.765
X125.705Y-98.323
X125.857Y-172.466
X126.314Y-99.009
X126.365Y-134.747
X126.378Y-74.422
X126.413Y-150.231
X126.759Y-171.209
X126.801Y-176.108
X127.Y-130.581
X127.063Y-117.119
X127.118Y-99.712
X127.191Y-138.443
X127.622Y-150.685
X127.75Y-95.22
X128.187Y-76.885
X128.473Y-99.898
X128.575Y-75.971
X128.727Y-95.263
X128.762Y-156.07
X129.032Y-110.376
X129.476Y-135.801
X129.857Y-98.234
X129.907Y-110.399
X130.01Y-135.2
X130.357Y-173.289
X130.67Y-158.699
X130.746Y-156.553
X130.846Y-74.571
X131.191Y-155.778
X131.225Y-154.647
X133.312Y-105.346
X134.061Y-103.388
X134.62Y-141.351
X135.153Y-142.164
X135.562Y-150.035
X135.903Y-147.3
X136.017Y-139.827
X136.563Y-146.787
X136.855Y-164.96
X137.477Y-146.012
X137.693Y-141.732
X138.227Y-132.956
X138.633Y-150.19
X140.589Y-110.871
X141.719Y-144.488
X141.859Y-180.467
X142.418Y-163.805
X142.43Y-130.632
X142.85Y-141.415
X143.Y-150.8
X143.423Y-168.275
X144.463Y-82.233
X144.856Y-134.633
X144.958Y-144.793
X145.Y-150.787
X145.123Y-127.381
X145.872Y-144.488
X146.063Y-126.314
X146.113Y-131.762
X146.376Y-150.097
X147.18Y-145.707
X147.485Y-101.689
X147.549Y-159.931
X148.311Y-144.577
X148.577Y-165.075
X152.019Y-88.456
X152.362Y-121.374
X152.908Y-86.868
X153.073Y-103.216
X153.924Y-86.55
X154.114Y-139.522
X157.328Y-151.092
X161.315Y-135.687
X164.224Y-173.774
T4
X98.73Y-81.267
X98.73Y-105.08
X98.73Y-124.13
X98.73Y-143.18
X98.73Y-162.23
X98.73Y-181.28
X101.27Y-81.267
X101.27Y-105.08
X101.27Y-124.13
X101.27Y-143.18
X101.27Y-162.23
X101.27Y-181.28
X105.08Y-127.305
X105.08Y-129.845
X105.08Y-165.405
X105.08Y-167.945
X108.255Y-181.28
X110.795Y-181.28
X117.78Y-81.267
X117.78Y-105.08
X117.78Y-124.13
X117.78Y-143.18
X117.78Y-162.23
X117.78Y-181.28
X120.32Y-81.267
X120.32Y-105.08
X120.32Y-124.13
X120.32Y-143.18
X120.32Y-162.23
X120.32Y-181.28
X136.83Y-81.267
X136.83Y-105.08
X136.83Y-124.13
X136.83Y-143.18
X136.83Y-162.23
X136.83Y-181.28
X139.37Y-81.267
X139.37Y-105.08
X139.37Y-124.13
X139.37Y-143.18
X139.37Y-162.23
X139.37Y-181.28
X146.355Y-181.28
X148.895Y-181.28
X155.88Y-81.267
X155.88Y-105.08
X155.88Y-124.13
X155.88Y-143.18
X155.88Y-162.23
X155.88Y-181.28
X158.42Y-81.267
X158.42Y-105.08
X158.42Y-124.13
X158.42Y-143.18
X158.42Y-162.23
X158.42Y-181.28
X162.23Y-127.305
X162.23Y-129.845
X162.23Y-165.405
X162.23Y-167.945
T5
X99.681Y-111.279
X101.477Y-109.483
X103.273Y-107.687
X105.069Y-105.891
X106.865Y-104.095
X108.661Y-102.298
X150.597Y-148.044
X153.137Y-148.044
X154.65Y-83.688
X155.677Y-148.044
X157.15Y-83.688
X158.217Y-148.044
X159.65Y-83.688
X160.757Y-148.044
X163.297Y-148.044
T6
X94.92Y-126.142
X94.92Y-164.242
X95.5Y-126.182
X95.5Y-164.282
X96.Y-131.183
X96.Y-169.283
X96.082Y-73.647
X96.082Y-97.46
X96.082Y-116.51
X96.082Y-135.56
X96.082Y-154.61
X96.082Y-173.66
X97.392Y-72.188
X97.392Y-96.
X97.392Y-115.05
X97.392Y-134.1
X97.392Y-153.15
X97.392Y-172.2
X97.46Y-132.493
X97.46Y-170.593
X102.393Y-71.688
X102.393Y-95.5
X102.393Y-114.55
X102.393Y-133.6
X102.393Y-152.65
X102.393Y-171.7
X102.433Y-71.108
X102.433Y-94.92
X102.433Y-113.97
X102.433Y-133.02
X102.433Y-152.07
X102.433Y-171.12
X105.607Y-173.66
X106.917Y-172.2
X111.918Y-171.7
X111.958Y-171.12
X115.132Y-73.647
X115.132Y-97.46
X115.132Y-116.51
X115.132Y-135.56
X115.132Y-154.61
X115.132Y-173.66
X116.442Y-72.188
X116.442Y-96.
X116.442Y-115.05
X116.442Y-134.1
X116.442Y-153.15
X116.442Y-172.2
X121.443Y-71.688
X121.443Y-95.5
X121.443Y-114.55
X121.443Y-133.6
X121.443Y-152.65
X121.443Y-171.7
X121.483Y-71.108
X121.483Y-94.92
X121.483Y-113.97
X121.483Y-133.02
X121.483Y-152.07
X121.483Y-171.12
X134.182Y-73.647
X134.182Y-97.46
X134.182Y-116.51
X134.182Y-135.56
X134.182Y-154.61
X134.182Y-173.66
X135.492Y-72.188
X135.492Y-96.
X135.492Y-115.05
X135.492Y-134.1
X135.492Y-153.15
X135.492Y-172.2
X140.493Y-71.688
X140.493Y-95.5
X140.493Y-114.55
X140.493Y-133.6
X140.493Y-152.65
X140.493Y-171.7
X140.533Y-71.108
X140.533Y-94.92
X140.533Y-113.97
X140.533Y-133.02
X140.533Y-152.07
X140.533Y-171.12
X143.707Y-173.66
X145.017Y-172.2
X150.018Y-171.7
X150.058Y-171.12
X152.07Y-126.142
X152.07Y-164.242
X152.65Y-126.182
X152.65Y-164.282
X153.15Y-131.183
X153.15Y-169.283
X153.232Y-73.647
X153.232Y-97.46
X153.232Y-116.51
X153.232Y-135.56
X153.232Y-154.61
X153.232Y-173.66
X154.542Y-72.188
X154.542Y-96.
X154.542Y-115.05
X154.542Y-134.1
X154.542Y-153.15
X154.542Y-172.2
X154.61Y-132.493
X154.61Y-170.593
X159.543Y-71.688
X159.543Y-95.5
X159.543Y-114.55
X159.543Y-133.6
X159.543Y-152.65
X159.543Y-171.7
X159.583Y-71.108
X159.583Y-94.92
X159.583Y-113.97
X159.583Y-133.02
X159.583Y-152.07
X159.583Y-171.12
T2
X126.15Y-72.7G85X126.15Y-73.1
G05
X126.15Y-96.512G85X126.15Y-96.912
G05
X131.Y-72.7G85X131.Y-73.1
G05
X131.Y-96.512G85X131.Y-96.912
G05
T3
X125.85Y-69.65G85X125.85Y-70.15
G05
X125.85Y-93.462G85X125.85Y-93.962
G05
X131.3Y-69.65G85X131.3Y-70.15
G05
X131.3Y-93.462G85X131.3Y-93.962
G05
T0
M30
