G04 #@! TF.FileFunction,Soldermask,Bot*
%FSLAX46Y46*%
G04 Gerber Fmt 4.6, Leading zero omitted, Abs format (unit mm)*
G04 Created by KiCad (PCBNEW 4.0.1-stable) date 3/31/2016 1:28:44 PM*
%MOMM*%
G01*
G04 APERTURE LIST*
%ADD10C,0.100000*%
%ADD11C,0.010000*%
%ADD12R,1.406400X1.656400*%
%ADD13R,1.656400X1.406400*%
%ADD14R,1.806400X1.606400*%
%ADD15R,1.056400X1.466400*%
%ADD16R,1.466400X1.056400*%
%ADD17R,1.206400X0.956400*%
%ADD18C,2.540000*%
%ADD19C,3.479800*%
%ADD20R,1.506400X2.206400*%
%ADD21C,1.191260*%
%ADD22C,1.394460*%
%ADD23C,1.391920*%
%ADD24C,2.778760*%
%ADD25C,2.776220*%
%ADD26R,0.806400X2.156400*%
%ADD27R,2.406400X1.806400*%
%ADD28R,1.706400X3.656400*%
%ADD29R,2.231400X1.106400*%
%ADD30O,1.706400X2.206400*%
%ADD31R,1.831400X2.906400*%
%ADD32O,1.406400X1.806400*%
%ADD33R,1.605280X1.605280*%
%ADD34O,1.806400X1.806400*%
%ADD35R,1.806400X1.806400*%
%ADD36R,1.400000X2.051000*%
%ADD37R,2.051000X1.400000*%
%ADD38R,1.906400X4.006400*%
%ADD39R,1.406400X1.406400*%
%ADD40R,1.406400X0.906400*%
%ADD41C,3.000000*%
%ADD42R,2.435860X3.058160*%
%ADD43R,1.407160X1.257300*%
%ADD44R,1.257300X1.407160*%
%ADD45C,0.812800*%
%ADD46C,4.394210*%
%ADD47C,2.108210*%
%ADD48C,2.906400*%
%ADD49O,34.406400X0.906400*%
%ADD50C,2.438400*%
%ADD51C,2.133600*%
%ADD52R,2.133600X2.438400*%
%ADD53O,2.133600X2.438400*%
G04 APERTURE END LIST*
D10*
G36*
X160545648Y-105749738D02*
X160489096Y-108751430D01*
X160462609Y-108752079D01*
X160436460Y-108754004D01*
X160410678Y-108757177D01*
X160385295Y-108761566D01*
X160360341Y-108767141D01*
X160335846Y-108773873D01*
X160311840Y-108781730D01*
X160288353Y-108790682D01*
X160265417Y-108800699D01*
X160243061Y-108811751D01*
X160221315Y-108823807D01*
X160200210Y-108836838D01*
X160179776Y-108850812D01*
X160160044Y-108865700D01*
X160141043Y-108881471D01*
X160122805Y-108898095D01*
X160105358Y-108915541D01*
X160088735Y-108933780D01*
X160072964Y-108952781D01*
X160058076Y-108972513D01*
X160044102Y-108992947D01*
X160031072Y-109014052D01*
X160019015Y-109035798D01*
X160007964Y-109058155D01*
X159997946Y-109081091D01*
X159988994Y-109104578D01*
X159981138Y-109128584D01*
X159974406Y-109153080D01*
X159968831Y-109178034D01*
X159964442Y-109203417D01*
X159961269Y-109229199D01*
X159959344Y-109255348D01*
X159958695Y-109281836D01*
X159959344Y-109308292D01*
X159961269Y-109334414D01*
X159964442Y-109360171D01*
X159968831Y-109385534D01*
X159974406Y-109410471D01*
X159981138Y-109434953D01*
X159988994Y-109458948D01*
X159997946Y-109482426D01*
X160007964Y-109505357D01*
X160019015Y-109527710D01*
X160031072Y-109549455D01*
X160044102Y-109570561D01*
X160058076Y-109590998D01*
X160072964Y-109610735D01*
X160088735Y-109629742D01*
X160105358Y-109647988D01*
X160122805Y-109665443D01*
X160141043Y-109682076D01*
X160160044Y-109697857D01*
X160179776Y-109712756D01*
X160200210Y-109726741D01*
X160221315Y-109739783D01*
X160243061Y-109751850D01*
X160265417Y-109762913D01*
X160288353Y-109772941D01*
X160311840Y-109781903D01*
X160335846Y-109789769D01*
X160360341Y-109796509D01*
X160385295Y-109802092D01*
X160410678Y-109806487D01*
X160436460Y-109809664D01*
X160462609Y-109811592D01*
X160489096Y-109812242D01*
X160515584Y-109811592D01*
X160541733Y-109809664D01*
X160567514Y-109806487D01*
X160592897Y-109802092D01*
X160617852Y-109796509D01*
X160642347Y-109789769D01*
X160666353Y-109781903D01*
X160689839Y-109772941D01*
X160712775Y-109762913D01*
X160735132Y-109751850D01*
X160756877Y-109739783D01*
X160777982Y-109726741D01*
X160798416Y-109712756D01*
X160818148Y-109697857D01*
X160837149Y-109682076D01*
X160855388Y-109665443D01*
X160872834Y-109647988D01*
X160889458Y-109629742D01*
X160905229Y-109610735D01*
X160920116Y-109590998D01*
X160934091Y-109570561D01*
X160947121Y-109549455D01*
X160959177Y-109527710D01*
X160970229Y-109505357D01*
X160980246Y-109482426D01*
X160989198Y-109458948D01*
X160997055Y-109434953D01*
X161003786Y-109410471D01*
X161009362Y-109385534D01*
X161013751Y-109360171D01*
X161016923Y-109334414D01*
X161018849Y-109308292D01*
X161019498Y-109281836D01*
X161018849Y-109255348D01*
X161016923Y-109229199D01*
X161013751Y-109203417D01*
X161009362Y-109178034D01*
X161003786Y-109153080D01*
X160997055Y-109128584D01*
X160989198Y-109104578D01*
X160980246Y-109081091D01*
X160970229Y-109058155D01*
X160959177Y-109035798D01*
X160947121Y-109014052D01*
X160934091Y-108992947D01*
X160920116Y-108972513D01*
X160905229Y-108952781D01*
X160889458Y-108933780D01*
X160872834Y-108915541D01*
X160855388Y-108898095D01*
X160837149Y-108881471D01*
X160818148Y-108865700D01*
X160798416Y-108850812D01*
X160777982Y-108836838D01*
X160756877Y-108823807D01*
X160735132Y-108811751D01*
X160712775Y-108800699D01*
X160689839Y-108790682D01*
X160666353Y-108781730D01*
X160642347Y-108773873D01*
X160617852Y-108767141D01*
X160592897Y-108761566D01*
X160567514Y-108757177D01*
X160541733Y-108754004D01*
X160515584Y-108752079D01*
X160489096Y-108751430D01*
X160545648Y-105749738D01*
X160569952Y-105752123D01*
X160594403Y-105755513D01*
X160619079Y-105759666D01*
X160644058Y-105764338D01*
X160669419Y-105769287D01*
X160695239Y-105774272D01*
X160721596Y-105779048D01*
X160748568Y-105783373D01*
X160787130Y-105789280D01*
X160824002Y-105795500D01*
X160859219Y-105802061D01*
X160892816Y-105808990D01*
X160924826Y-105816314D01*
X160955284Y-105824061D01*
X160984225Y-105832259D01*
X161011683Y-105840933D01*
X161037692Y-105850113D01*
X161062286Y-105859824D01*
X161085501Y-105870095D01*
X161107370Y-105880952D01*
X161127928Y-105892424D01*
X161147210Y-105904537D01*
X161165249Y-105917318D01*
X161182080Y-105930795D01*
X161197737Y-105944996D01*
X161212255Y-105959947D01*
X161225669Y-105975677D01*
X161238012Y-105992211D01*
X161249319Y-106009578D01*
X161259624Y-106027805D01*
X161268962Y-106046919D01*
X161277367Y-106066948D01*
X161284874Y-106087918D01*
X161291517Y-106109858D01*
X161297330Y-106132794D01*
X161302348Y-106156754D01*
X161306605Y-106181765D01*
X161310136Y-106207855D01*
X161312974Y-106235050D01*
X161315036Y-106261435D01*
X161316648Y-106288302D01*
X161317940Y-106315565D01*
X161319039Y-106343133D01*
X161320072Y-106370921D01*
X161321167Y-106398838D01*
X161322453Y-106426798D01*
X161324057Y-106454712D01*
X161326106Y-106482491D01*
X161328729Y-106510048D01*
X161332053Y-106537295D01*
X161336207Y-106564143D01*
X161341317Y-106590504D01*
X161347512Y-106616291D01*
X161354920Y-106641414D01*
X161363668Y-106665786D01*
X161373884Y-106689318D01*
X161385696Y-106711923D01*
X161399232Y-106733513D01*
X161414619Y-106753998D01*
X161431384Y-106772577D01*
X161450720Y-106790500D01*
X161472155Y-106807294D01*
X161495218Y-106822484D01*
X161519438Y-106835598D01*
X161544342Y-106846163D01*
X161569460Y-106853705D01*
X161594319Y-106857752D01*
X161618449Y-106857830D01*
X161641377Y-106853465D01*
X161662632Y-106844186D01*
X161685190Y-106830665D01*
X161707524Y-106816475D01*
X161729660Y-106801686D01*
X161751624Y-106786366D01*
X161773443Y-106770587D01*
X161795140Y-106754417D01*
X161816743Y-106737925D01*
X161838277Y-106721182D01*
X161859768Y-106704256D01*
X161881242Y-106687218D01*
X161902724Y-106670136D01*
X161924240Y-106653081D01*
X161945815Y-106636122D01*
X161967477Y-106619328D01*
X161989249Y-106602769D01*
X162011159Y-106586514D01*
X162033232Y-106570634D01*
X162055493Y-106555197D01*
X162077969Y-106540273D01*
X162100685Y-106525932D01*
X162123667Y-106512243D01*
X162146940Y-106499275D01*
X162170531Y-106487099D01*
X162194465Y-106475783D01*
X162218768Y-106465398D01*
X162243466Y-106456012D01*
X162268584Y-106447696D01*
X162294149Y-106440518D01*
X162320185Y-106434549D01*
X162346719Y-106429858D01*
X162373777Y-106426514D01*
X162402934Y-106424511D01*
X162430948Y-106424193D01*
X162457874Y-106425490D01*
X162483769Y-106428333D01*
X162508689Y-106432652D01*
X162532690Y-106438378D01*
X162555828Y-106445442D01*
X162578160Y-106453775D01*
X162599742Y-106463307D01*
X162620629Y-106473969D01*
X162640879Y-106485691D01*
X162660547Y-106498406D01*
X162679690Y-106512042D01*
X162698363Y-106526531D01*
X162716623Y-106541804D01*
X162734527Y-106557791D01*
X162752129Y-106574422D01*
X162769487Y-106591630D01*
X162786657Y-106609344D01*
X162803695Y-106627495D01*
X162820656Y-106646014D01*
X162837598Y-106664831D01*
X162854577Y-106683878D01*
X162871648Y-106703085D01*
X162888868Y-106722382D01*
X162906293Y-106741701D01*
X162923979Y-106760971D01*
X162941982Y-106780125D01*
X162960360Y-106799092D01*
X162976142Y-106814847D01*
X162992806Y-106831144D01*
X163010231Y-106847965D01*
X163028297Y-106865295D01*
X163046886Y-106883117D01*
X163065877Y-106901415D01*
X163085150Y-106920174D01*
X163104587Y-106939376D01*
X163124067Y-106959006D01*
X163143471Y-106979047D01*
X163162679Y-106999484D01*
X163181572Y-107020299D01*
X163200029Y-107041478D01*
X163217932Y-107063003D01*
X163235160Y-107084859D01*
X163251594Y-107107029D01*
X163267114Y-107129498D01*
X163281601Y-107152249D01*
X163294935Y-107175265D01*
X163306996Y-107198531D01*
X163317665Y-107222030D01*
X163326821Y-107245747D01*
X163334346Y-107269665D01*
X163340120Y-107293768D01*
X163344023Y-107318040D01*
X163346639Y-107345830D01*
X163347667Y-107373056D01*
X163347177Y-107399741D01*
X163345242Y-107425907D01*
X163341931Y-107451576D01*
X163337316Y-107476771D01*
X163331468Y-107501515D01*
X163324458Y-107525829D01*
X163316357Y-107549736D01*
X163307236Y-107573259D01*
X163297165Y-107596420D01*
X163286217Y-107619241D01*
X163274462Y-107641744D01*
X163261970Y-107663953D01*
X163248814Y-107685890D01*
X163235063Y-107707576D01*
X163220790Y-107729035D01*
X163206065Y-107750288D01*
X163190959Y-107771359D01*
X163175542Y-107792269D01*
X163159887Y-107813041D01*
X163144065Y-107833698D01*
X163128145Y-107854261D01*
X163112199Y-107874754D01*
X163096299Y-107895198D01*
X163080515Y-107915616D01*
X163064918Y-107936031D01*
X163049579Y-107956464D01*
X163034570Y-107976939D01*
X163019961Y-107997477D01*
X163005823Y-108018102D01*
X162990657Y-108040103D01*
X162976808Y-108061047D01*
X162965176Y-108081541D01*
X162956664Y-108102191D01*
X162952170Y-108123603D01*
X162952598Y-108146383D01*
X162958847Y-108171139D01*
X162971818Y-108198477D01*
X162982789Y-108218907D01*
X162992792Y-108239722D01*
X163002263Y-108260598D01*
X163011638Y-108281210D01*
X163021353Y-108301235D01*
X163031844Y-108320348D01*
X163043548Y-108338225D01*
X163056900Y-108354543D01*
X163072337Y-108368978D01*
X163090294Y-108381205D01*
X163111208Y-108390900D01*
X163135514Y-108397739D01*
X163163649Y-108401399D01*
X163188281Y-108403013D01*
X163213353Y-108404659D01*
X163238813Y-108406376D01*
X163264612Y-108408207D01*
X163290697Y-108410191D01*
X163317019Y-108412370D01*
X163343527Y-108414786D01*
X163370168Y-108417478D01*
X163396893Y-108420489D01*
X163423651Y-108423858D01*
X163450391Y-108427628D01*
X163477061Y-108431839D01*
X163503611Y-108436533D01*
X163529990Y-108441750D01*
X163556147Y-108447531D01*
X163582031Y-108453917D01*
X163607591Y-108460950D01*
X163632777Y-108468670D01*
X163657537Y-108477119D01*
X163681820Y-108486338D01*
X163705576Y-108496367D01*
X163728754Y-108507247D01*
X163751302Y-108519021D01*
X163773170Y-108531728D01*
X163794307Y-108545409D01*
X163814663Y-108560107D01*
X163834185Y-108575861D01*
X163852823Y-108592713D01*
X163870527Y-108610704D01*
X163887245Y-108629875D01*
X163902926Y-108650267D01*
X163917520Y-108671921D01*
X163930976Y-108694878D01*
X163943784Y-108719327D01*
X163955559Y-108743711D01*
X163966336Y-108768046D01*
X163976153Y-108792350D01*
X163985044Y-108816640D01*
X163993046Y-108840931D01*
X164000195Y-108865242D01*
X164006527Y-108889589D01*
X164012078Y-108913988D01*
X164016884Y-108938457D01*
X164020982Y-108963013D01*
X164024407Y-108987672D01*
X164027195Y-109012452D01*
X164029383Y-109037369D01*
X164031007Y-109062440D01*
X164032102Y-109087682D01*
X164032705Y-109113112D01*
X164032852Y-109138746D01*
X164032578Y-109164603D01*
X164031921Y-109190697D01*
X164030916Y-109217047D01*
X164029598Y-109243670D01*
X164028005Y-109270581D01*
X164026173Y-109297798D01*
X164024136Y-109325338D01*
X164021933Y-109353218D01*
X164019597Y-109381455D01*
X164017167Y-109410065D01*
X164014676Y-109439065D01*
X164012163Y-109468472D01*
X164009663Y-109498304D01*
X164007211Y-109528577D01*
X164004845Y-109559307D01*
X164002599Y-109590512D01*
X164000511Y-109622209D01*
X163998616Y-109654414D01*
X163996391Y-109680639D01*
X163992663Y-109706219D01*
X163987482Y-109731147D01*
X163980899Y-109755412D01*
X163972965Y-109779006D01*
X163963731Y-109801918D01*
X163953248Y-109824141D01*
X163941568Y-109845664D01*
X163928740Y-109866478D01*
X163914817Y-109886574D01*
X163899850Y-109905943D01*
X163883888Y-109924576D01*
X163866984Y-109942462D01*
X163849189Y-109959594D01*
X163830553Y-109975961D01*
X163811127Y-109991554D01*
X163790963Y-110006365D01*
X163770111Y-110020383D01*
X163748623Y-110033600D01*
X163726550Y-110046006D01*
X163703942Y-110057593D01*
X163680850Y-110068349D01*
X163657327Y-110078268D01*
X163633422Y-110087338D01*
X163609187Y-110095552D01*
X163584672Y-110102899D01*
X163559930Y-110109370D01*
X163535010Y-110114957D01*
X163509964Y-110119649D01*
X163484843Y-110123438D01*
X163459697Y-110126314D01*
X163434579Y-110128268D01*
X163410025Y-110129167D01*
X163384434Y-110129257D01*
X163358062Y-110128845D01*
X163331164Y-110128235D01*
X163303995Y-110127734D01*
X163276809Y-110127647D01*
X163249861Y-110128280D01*
X163223407Y-110129937D01*
X163197702Y-110132925D01*
X163172999Y-110137550D01*
X163149556Y-110144116D01*
X163127625Y-110152929D01*
X163107463Y-110164295D01*
X163089324Y-110178520D01*
X163073463Y-110195909D01*
X163060358Y-110213173D01*
X163047202Y-110231286D01*
X163034237Y-110250176D01*
X163021707Y-110269775D01*
X163009855Y-110290013D01*
X162998923Y-110310820D01*
X162989155Y-110332126D01*
X162980794Y-110353863D01*
X162974082Y-110375960D01*
X162969263Y-110398348D01*
X162966579Y-110420958D01*
X162966274Y-110443719D01*
X162968590Y-110466562D01*
X162973771Y-110489418D01*
X162982059Y-110512217D01*
X162993698Y-110534889D01*
X163008931Y-110557365D01*
X163028000Y-110579575D01*
X163044681Y-110597125D01*
X163061552Y-110615154D01*
X163078548Y-110633645D01*
X163095607Y-110652584D01*
X163112665Y-110671953D01*
X163129659Y-110691737D01*
X163146526Y-110711921D01*
X163163202Y-110732487D01*
X163179624Y-110753420D01*
X163195729Y-110774704D01*
X163211453Y-110796324D01*
X163226734Y-110818262D01*
X163241507Y-110840504D01*
X163255709Y-110863032D01*
X163269277Y-110885832D01*
X163282149Y-110908886D01*
X163294259Y-110932180D01*
X163305546Y-110955697D01*
X163315946Y-110979421D01*
X163325395Y-111003337D01*
X163333831Y-111027427D01*
X163341189Y-111051677D01*
X163347407Y-111076070D01*
X163352421Y-111100590D01*
X163356169Y-111125222D01*
X163358585Y-111149949D01*
X163359608Y-111174755D01*
X163359175Y-111199624D01*
X163357220Y-111224541D01*
X163353683Y-111249489D01*
X163348498Y-111274452D01*
X163341603Y-111299415D01*
X163332934Y-111324362D01*
X163322563Y-111350015D01*
X163311426Y-111375142D01*
X163299555Y-111399760D01*
X163286977Y-111423889D01*
X163273722Y-111447548D01*
X163259820Y-111470755D01*
X163245299Y-111493529D01*
X163230188Y-111515889D01*
X163214518Y-111537855D01*
X163198316Y-111559444D01*
X163181613Y-111580677D01*
X163164437Y-111601570D01*
X163146818Y-111622145D01*
X163128784Y-111642419D01*
X163110366Y-111662411D01*
X163091592Y-111682140D01*
X163072492Y-111701625D01*
X163053094Y-111720885D01*
X163033428Y-111739939D01*
X163013523Y-111758805D01*
X162993409Y-111777503D01*
X162973114Y-111796051D01*
X162952667Y-111814468D01*
X162932099Y-111832774D01*
X162911437Y-111850986D01*
X162890712Y-111869125D01*
X162869952Y-111887208D01*
X162849188Y-111905254D01*
X162828447Y-111923283D01*
X162807759Y-111941314D01*
X162787153Y-111959364D01*
X162766659Y-111977454D01*
X162746306Y-111995601D01*
X162726122Y-112013825D01*
X162706138Y-112032145D01*
X162686382Y-112050580D01*
X162666883Y-112069148D01*
X162650103Y-112083948D01*
X162632630Y-112096692D01*
X162614498Y-112107460D01*
X162595740Y-112116328D01*
X162576390Y-112123375D01*
X162556480Y-112128679D01*
X162536044Y-112132319D01*
X162515115Y-112134371D01*
X162493727Y-112134915D01*
X162471912Y-112134029D01*
X162449705Y-112131790D01*
X162427137Y-112128277D01*
X162404244Y-112123567D01*
X162381057Y-112117740D01*
X162357610Y-112110872D01*
X162333936Y-112103043D01*
X162310070Y-112094330D01*
X162286043Y-112084811D01*
X162261889Y-112074565D01*
X162237642Y-112063670D01*
X162213335Y-112052203D01*
X162189000Y-112040242D01*
X162164672Y-112027867D01*
X162140384Y-112015155D01*
X162116168Y-112002184D01*
X162092059Y-111989032D01*
X162068089Y-111975777D01*
X162044291Y-111962498D01*
X162020700Y-111949272D01*
X161997348Y-111936178D01*
X161974268Y-111923294D01*
X161951494Y-111910698D01*
X161929059Y-111898467D01*
X161906996Y-111886681D01*
X161885339Y-111875417D01*
X161864121Y-111864753D01*
X161843375Y-111854768D01*
X161827218Y-111847704D01*
X161811354Y-111841837D01*
X161795414Y-111837072D01*
X161779033Y-111833312D01*
X161761844Y-111830465D01*
X161743481Y-111828434D01*
X161723577Y-111827126D01*
X161701766Y-111826445D01*
X161677680Y-111826297D01*
X161650954Y-111826588D01*
X161621221Y-111827221D01*
X161588114Y-111828103D01*
X161551267Y-111829139D01*
X161510313Y-111830233D01*
X161464886Y-111831292D01*
X161414619Y-111832221D01*
X161386456Y-111832550D01*
X161359457Y-111832682D01*
X161333368Y-111832663D01*
X161307932Y-111832540D01*
X161282896Y-111832359D01*
X161258004Y-111832168D01*
X161233002Y-111832011D01*
X161207633Y-111831937D01*
X161181643Y-111831991D01*
X161154778Y-111832221D01*
X160850213Y-111109981D01*
X160489096Y-110252461D01*
X160127980Y-111109981D01*
X159823045Y-111843679D01*
X159798021Y-111843627D01*
X159772546Y-111843540D01*
X159747002Y-111843523D01*
X159721770Y-111843679D01*
X159706658Y-111843738D01*
X159688857Y-111843739D01*
X159668598Y-111843710D01*
X159646112Y-111843676D01*
X159621626Y-111843664D01*
X159595372Y-111843700D01*
X159567580Y-111843811D01*
X159538478Y-111844023D01*
X159508298Y-111844362D01*
X159477268Y-111844856D01*
X159445619Y-111845530D01*
X159413580Y-111846411D01*
X159381382Y-111847525D01*
X159349253Y-111848899D01*
X159317425Y-111850559D01*
X159286127Y-111852532D01*
X159255588Y-111854844D01*
X159226039Y-111857521D01*
X159197710Y-111860590D01*
X159170829Y-111864078D01*
X159145628Y-111868010D01*
X159122336Y-111872413D01*
X159101182Y-111877314D01*
X159076312Y-111884473D01*
X159052584Y-111892713D01*
X159029915Y-111901928D01*
X159008222Y-111912016D01*
X158987420Y-111922872D01*
X158967426Y-111934392D01*
X158948157Y-111946471D01*
X158929529Y-111959006D01*
X158911459Y-111971893D01*
X158893863Y-111985027D01*
X158876658Y-111998303D01*
X158859760Y-112011619D01*
X158843085Y-112024869D01*
X158826551Y-112037950D01*
X158810073Y-112050758D01*
X158793568Y-112063188D01*
X158776952Y-112075135D01*
X158760143Y-112086497D01*
X158743056Y-112097169D01*
X158725609Y-112107046D01*
X158707716Y-112116025D01*
X158689296Y-112124001D01*
X158670264Y-112130870D01*
X158650537Y-112136529D01*
X158630032Y-112140872D01*
X158608664Y-112143795D01*
X158586351Y-112145196D01*
X158563009Y-112144968D01*
X158538554Y-112143009D01*
X158512903Y-112139214D01*
X158485972Y-112133479D01*
X158457678Y-112125700D01*
X158431341Y-112117134D01*
X158405851Y-112107820D01*
X158381164Y-112097781D01*
X158357234Y-112087036D01*
X158334018Y-112075607D01*
X158311469Y-112063512D01*
X158289544Y-112050774D01*
X158268197Y-112037413D01*
X158247383Y-112023449D01*
X158227059Y-112008903D01*
X158207179Y-111993796D01*
X158187698Y-111978148D01*
X158168571Y-111961979D01*
X158149754Y-111945311D01*
X158131202Y-111928164D01*
X158112870Y-111910559D01*
X158094713Y-111892515D01*
X158076687Y-111874054D01*
X158058746Y-111855197D01*
X158040846Y-111835964D01*
X158022943Y-111816375D01*
X158004990Y-111796451D01*
X157986944Y-111776213D01*
X157968760Y-111755681D01*
X157950392Y-111734876D01*
X157931797Y-111713819D01*
X157912928Y-111692530D01*
X157893742Y-111671029D01*
X157874194Y-111649338D01*
X157854239Y-111627477D01*
X157833831Y-111605466D01*
X157812927Y-111583326D01*
X157791482Y-111561078D01*
X157769450Y-111538742D01*
X157751549Y-111519772D01*
X157734949Y-111500007D01*
X157719640Y-111479501D01*
X157705612Y-111458306D01*
X157692855Y-111436475D01*
X157681360Y-111414061D01*
X157671115Y-111391118D01*
X157662112Y-111367698D01*
X157654341Y-111343853D01*
X157647791Y-111319639D01*
X157642452Y-111295106D01*
X157638315Y-111270308D01*
X157635370Y-111245299D01*
X157633606Y-111220130D01*
X157633015Y-111194856D01*
X157633585Y-111169528D01*
X157635307Y-111144201D01*
X157638170Y-111118926D01*
X157642166Y-111093758D01*
X157647284Y-111068748D01*
X157653514Y-111043950D01*
X157660847Y-111019418D01*
X157669271Y-110995203D01*
X157678778Y-110971359D01*
X157689357Y-110947938D01*
X157700999Y-110924995D01*
X157713693Y-110902581D01*
X157727430Y-110880751D01*
X157742199Y-110859556D01*
X157757992Y-110839049D01*
X157774504Y-110819537D01*
X157791982Y-110800256D01*
X157810197Y-110781138D01*
X157828923Y-110762114D01*
X157847933Y-110743114D01*
X157867001Y-110724070D01*
X157885901Y-110704911D01*
X157904405Y-110685569D01*
X157922287Y-110665974D01*
X157939320Y-110646058D01*
X157955277Y-110625751D01*
X157969933Y-110604983D01*
X157983060Y-110583687D01*
X157994432Y-110561791D01*
X158003822Y-110539228D01*
X158011003Y-110515928D01*
X158015749Y-110491822D01*
X158017833Y-110466841D01*
X158017715Y-110444761D01*
X158016230Y-110422263D01*
X158013346Y-110399539D01*
X158009032Y-110376781D01*
X158003255Y-110354181D01*
X157995984Y-110331929D01*
X157987187Y-110310219D01*
X157976831Y-110289240D01*
X157964885Y-110269186D01*
X157951317Y-110250248D01*
X157936094Y-110232616D01*
X157919186Y-110216484D01*
X157900559Y-110202043D01*
X157880183Y-110189484D01*
X157858025Y-110178999D01*
X157834052Y-110170779D01*
X157808234Y-110165017D01*
X157780538Y-110161904D01*
X157756364Y-110160449D01*
X157731753Y-110158866D01*
X157706756Y-110157119D01*
X157681427Y-110155171D01*
X157655816Y-110152986D01*
X157629976Y-110150528D01*
X157603960Y-110147760D01*
X157577818Y-110144647D01*
X157551603Y-110141151D01*
X157525367Y-110137238D01*
X157499162Y-110132870D01*
X157473040Y-110128012D01*
X157447054Y-110122627D01*
X157421254Y-110116679D01*
X157395694Y-110110132D01*
X157370424Y-110102949D01*
X157345498Y-110095095D01*
X157320967Y-110086532D01*
X157296884Y-110077226D01*
X157273299Y-110067139D01*
X157250266Y-110056236D01*
X157227836Y-110044479D01*
X157206061Y-110031834D01*
X157184994Y-110018264D01*
X157164686Y-110003732D01*
X157145190Y-109988202D01*
X157126557Y-109971638D01*
X157108839Y-109954005D01*
X157092089Y-109935265D01*
X157076358Y-109915382D01*
X157061699Y-109894320D01*
X157048163Y-109872044D01*
X157035803Y-109848516D01*
X157024670Y-109823700D01*
X157014676Y-109798289D01*
X157005696Y-109772921D01*
X156997685Y-109747585D01*
X156990597Y-109722267D01*
X156984386Y-109696958D01*
X156979005Y-109671644D01*
X156974408Y-109646314D01*
X156970550Y-109620956D01*
X156967384Y-109595558D01*
X156964864Y-109570108D01*
X156962944Y-109544595D01*
X156961578Y-109519007D01*
X156960720Y-109493332D01*
X156960323Y-109467557D01*
X156960343Y-109441672D01*
X156960731Y-109415663D01*
X156961443Y-109389521D01*
X156962433Y-109363231D01*
X156963654Y-109336784D01*
X156965059Y-109310166D01*
X156966604Y-109283367D01*
X156968242Y-109256373D01*
X156969927Y-109229174D01*
X156971612Y-109201757D01*
X156973252Y-109174111D01*
X156974800Y-109146224D01*
X156976211Y-109118084D01*
X156977439Y-109089678D01*
X156978436Y-109060996D01*
X156979158Y-109032026D01*
X156979558Y-109002754D01*
X156979590Y-108973171D01*
X156979207Y-108943263D01*
X156979547Y-108916800D01*
X156981493Y-108890799D01*
X156984993Y-108865284D01*
X156989995Y-108840279D01*
X156996446Y-108815807D01*
X157004294Y-108791893D01*
X157013487Y-108768560D01*
X157023973Y-108745831D01*
X157035699Y-108723732D01*
X157048613Y-108702284D01*
X157062664Y-108681512D01*
X157077798Y-108661440D01*
X157093963Y-108642092D01*
X157111108Y-108623491D01*
X157129180Y-108605661D01*
X157148126Y-108588625D01*
X157167895Y-108572408D01*
X157188434Y-108557033D01*
X157209692Y-108542524D01*
X157231615Y-108528904D01*
X157254152Y-108516198D01*
X157277250Y-108504429D01*
X157300857Y-108493621D01*
X157324921Y-108483798D01*
X157349390Y-108474982D01*
X157374211Y-108467199D01*
X157399332Y-108460472D01*
X157424701Y-108454824D01*
X157450265Y-108450280D01*
X157475973Y-108446862D01*
X157501275Y-108444625D01*
X157527311Y-108443310D01*
X157553937Y-108442697D01*
X157581012Y-108442566D01*
X157608392Y-108442695D01*
X157635936Y-108442865D01*
X157663500Y-108442854D01*
X157690942Y-108442443D01*
X157718119Y-108441410D01*
X157744889Y-108439536D01*
X157771109Y-108436599D01*
X157796637Y-108432379D01*
X157821330Y-108426655D01*
X157845045Y-108419207D01*
X157867640Y-108409815D01*
X157888972Y-108398257D01*
X157908898Y-108384313D01*
X157927276Y-108367763D01*
X157941928Y-108352238D01*
X157956669Y-108335322D01*
X157971146Y-108317155D01*
X157985003Y-108297874D01*
X157997887Y-108277617D01*
X158009444Y-108256522D01*
X158019319Y-108234728D01*
X158027159Y-108212371D01*
X158032609Y-108189591D01*
X158035314Y-108166525D01*
X158034922Y-108143311D01*
X158031077Y-108120088D01*
X158023425Y-108096992D01*
X158011613Y-108074163D01*
X157995286Y-108051737D01*
X157979634Y-108033331D01*
X157963701Y-108014643D01*
X157947543Y-107995680D01*
X157931217Y-107976443D01*
X157914778Y-107956938D01*
X157898284Y-107937167D01*
X157881790Y-107917135D01*
X157865352Y-107896844D01*
X157849027Y-107876300D01*
X157832871Y-107855506D01*
X157816941Y-107834465D01*
X157801292Y-107813181D01*
X157785980Y-107791659D01*
X157771063Y-107769901D01*
X157756595Y-107747911D01*
X157742634Y-107725694D01*
X157729235Y-107703253D01*
X157716456Y-107680592D01*
X157704351Y-107657714D01*
X157692978Y-107634623D01*
X157682392Y-107611324D01*
X157672650Y-107587819D01*
X157663808Y-107564113D01*
X157655922Y-107540209D01*
X157649049Y-107516112D01*
X157643244Y-107491824D01*
X157638565Y-107467349D01*
X157635066Y-107442692D01*
X157632805Y-107417856D01*
X157631837Y-107392845D01*
X157632220Y-107367663D01*
X157634008Y-107342313D01*
X157637259Y-107316798D01*
X157642028Y-107291124D01*
X157648372Y-107265294D01*
X157656347Y-107239310D01*
X157665901Y-107213183D01*
X157676642Y-107187420D01*
X157688504Y-107162023D01*
X157701418Y-107136992D01*
X157715319Y-107112328D01*
X157730138Y-107088032D01*
X157745809Y-107064105D01*
X157762264Y-107040546D01*
X157779437Y-107017356D01*
X157797260Y-106994537D01*
X157815666Y-106972088D01*
X157834587Y-106950011D01*
X157853958Y-106928305D01*
X157873710Y-106906973D01*
X157893777Y-106886013D01*
X157914091Y-106865427D01*
X157934585Y-106845215D01*
X157955192Y-106825379D01*
X157975845Y-106805918D01*
X157996477Y-106786833D01*
X158017021Y-106768126D01*
X158037409Y-106749795D01*
X158057574Y-106731843D01*
X158077450Y-106714270D01*
X158096968Y-106697076D01*
X158116063Y-106680262D01*
X158134666Y-106663828D01*
X158152711Y-106647776D01*
X158170131Y-106632105D01*
X158186858Y-106616817D01*
X158202825Y-106601912D01*
X158217965Y-106587391D01*
X158232211Y-106573253D01*
X158250674Y-106555583D01*
X158269903Y-106539126D01*
X158289849Y-106523874D01*
X158310465Y-106509824D01*
X158331702Y-106496967D01*
X158353511Y-106485299D01*
X158375844Y-106474813D01*
X158398652Y-106465503D01*
X158421887Y-106457364D01*
X158445501Y-106450389D01*
X158469444Y-106444572D01*
X158493670Y-106439907D01*
X158518128Y-106436389D01*
X158542771Y-106434010D01*
X158567550Y-106432765D01*
X158592416Y-106432649D01*
X158617322Y-106433654D01*
X158642219Y-106435776D01*
X158667058Y-106439007D01*
X158691791Y-106443343D01*
X158716369Y-106448776D01*
X158740744Y-106455301D01*
X158764868Y-106462912D01*
X158788691Y-106471602D01*
X158812166Y-106481367D01*
X158835245Y-106492199D01*
X158857878Y-106504093D01*
X158880016Y-106517042D01*
X158901613Y-106531042D01*
X158922619Y-106546084D01*
X158942986Y-106562165D01*
X158962234Y-106578698D01*
X158981378Y-106596175D01*
X159000466Y-106614385D01*
X159019547Y-106633116D01*
X159038670Y-106652158D01*
X159057883Y-106671299D01*
X159077236Y-106690328D01*
X159096776Y-106709034D01*
X159116554Y-106727206D01*
X159136618Y-106744632D01*
X159157016Y-106761102D01*
X159177797Y-106776405D01*
X159199011Y-106790329D01*
X159220706Y-106802663D01*
X159242931Y-106813196D01*
X159265735Y-106821718D01*
X159289166Y-106828015D01*
X159313274Y-106831879D01*
X159338107Y-106833097D01*
X159358931Y-106832592D01*
X159381187Y-106831408D01*
X159404430Y-106829333D01*
X159428212Y-106826151D01*
X159452088Y-106821648D01*
X159475611Y-106815611D01*
X159498336Y-106807824D01*
X159519817Y-106798075D01*
X159539606Y-106786148D01*
X159557259Y-106771829D01*
X159572329Y-106754905D01*
X159584369Y-106735161D01*
X159592935Y-106712384D01*
X159597579Y-106686358D01*
X159599513Y-106663622D01*
X159601296Y-106640303D01*
X159602963Y-106616451D01*
X159604552Y-106592119D01*
X159606101Y-106567357D01*
X159607647Y-106542216D01*
X159609227Y-106516749D01*
X159610879Y-106491005D01*
X159612639Y-106465037D01*
X159614546Y-106438896D01*
X159616637Y-106412633D01*
X159618948Y-106386299D01*
X159621518Y-106359946D01*
X159624384Y-106333625D01*
X159627583Y-106307386D01*
X159631152Y-106281282D01*
X159635129Y-106255364D01*
X159639551Y-106229683D01*
X159644455Y-106204291D01*
X159649879Y-106179238D01*
X159655861Y-106154575D01*
X159662437Y-106130355D01*
X159669645Y-106106628D01*
X159677522Y-106083447D01*
X159686106Y-106060861D01*
X159695434Y-106038922D01*
X159705543Y-106017682D01*
X159716471Y-105997192D01*
X159728255Y-105977503D01*
X159740932Y-105958666D01*
X159754540Y-105940733D01*
X159769117Y-105923756D01*
X159784698Y-105907784D01*
X159801323Y-105892870D01*
X159819027Y-105879065D01*
X159837849Y-105866420D01*
X159857826Y-105854986D01*
X159878995Y-105844816D01*
X159901394Y-105835959D01*
X159925060Y-105828467D01*
X159957726Y-105819486D01*
X159989517Y-105811053D01*
X160020484Y-105803161D01*
X160050678Y-105795804D01*
X160080150Y-105788976D01*
X160108953Y-105782672D01*
X160137135Y-105776885D01*
X160164750Y-105771609D01*
X160191849Y-105766839D01*
X160218481Y-105762568D01*
X160244700Y-105758790D01*
X160270555Y-105755499D01*
X160296098Y-105752690D01*
X160321381Y-105750356D01*
X160346454Y-105748490D01*
X160371370Y-105747089D01*
X160396178Y-105746144D01*
X160420930Y-105745650D01*
X160445678Y-105745601D01*
X160470472Y-105745992D01*
X160495365Y-105746816D01*
X160520406Y-105748066D01*
X160545648Y-105749738D01*
X160545648Y-105749738D01*
G37*
D11*
G36*
X137151229Y-83485223D02*
X136968302Y-83507269D01*
X136793572Y-83543970D01*
X136627161Y-83595293D01*
X136469193Y-83661202D01*
X136319787Y-83741664D01*
X136254676Y-83783082D01*
X136135500Y-83871518D01*
X136030727Y-83967726D01*
X135940640Y-84071299D01*
X135865518Y-84181828D01*
X135805642Y-84298906D01*
X135761293Y-84422124D01*
X135734741Y-84538795D01*
X135732005Y-84558285D01*
X135729814Y-84573413D01*
X135726226Y-84584404D01*
X135719300Y-84591483D01*
X135707097Y-84594874D01*
X135687674Y-84594803D01*
X135659091Y-84591494D01*
X135619408Y-84585173D01*
X135566683Y-84576062D01*
X135504966Y-84565408D01*
X135227305Y-84521263D01*
X134963880Y-84485873D01*
X134714448Y-84459209D01*
X134497433Y-84442379D01*
X134419419Y-84438707D01*
X134333344Y-84436717D01*
X134242788Y-84436335D01*
X134151333Y-84437487D01*
X134062558Y-84440099D01*
X133980045Y-84444097D01*
X133907375Y-84449407D01*
X133849733Y-84455735D01*
X133723733Y-84477360D01*
X133612293Y-84505662D01*
X133515645Y-84540536D01*
X133434022Y-84581879D01*
X133367654Y-84629585D01*
X133316776Y-84683551D01*
X133305224Y-84699941D01*
X133276309Y-84751301D01*
X133258428Y-84802738D01*
X133249911Y-84860181D01*
X133248599Y-84900828D01*
X133251665Y-84956623D01*
X133261417Y-85013821D01*
X133278692Y-85075260D01*
X133304325Y-85143778D01*
X133339150Y-85222210D01*
X133349725Y-85244394D01*
X133371121Y-85289316D01*
X133387306Y-85321846D01*
X133401382Y-85344343D01*
X133416456Y-85359165D01*
X133435631Y-85368672D01*
X133462012Y-85375222D01*
X133498704Y-85381173D01*
X133537536Y-85387083D01*
X133595978Y-85395616D01*
X133658098Y-85403302D01*
X133724876Y-85410176D01*
X133797290Y-85416270D01*
X133876321Y-85421618D01*
X133962947Y-85426252D01*
X134058147Y-85430205D01*
X134162901Y-85433510D01*
X134278188Y-85436201D01*
X134404986Y-85438311D01*
X134544276Y-85439871D01*
X134697036Y-85440917D01*
X134864245Y-85441480D01*
X135046883Y-85441593D01*
X135150642Y-85441481D01*
X135956252Y-85440200D01*
X136039642Y-85524078D01*
X136144382Y-85617669D01*
X136258197Y-85697125D01*
X136380409Y-85762152D01*
X136510341Y-85812460D01*
X136647314Y-85847755D01*
X136790653Y-85867746D01*
X136844123Y-85871159D01*
X136964080Y-85876465D01*
X136942146Y-85911183D01*
X136929456Y-85933115D01*
X136912074Y-85965628D01*
X136892491Y-86003969D01*
X136876830Y-86035817D01*
X136833449Y-86125734D01*
X136787274Y-86101694D01*
X136735094Y-86077933D01*
X136673427Y-86056371D01*
X136600099Y-86036376D01*
X136512938Y-86017311D01*
X136470946Y-86009293D01*
X136376031Y-85989088D01*
X136267313Y-85960920D01*
X136145791Y-85925051D01*
X136131915Y-85920719D01*
X136071218Y-85901987D01*
X136011107Y-85884005D01*
X135954985Y-85867750D01*
X135906257Y-85854198D01*
X135868326Y-85844325D01*
X135853030Y-85840758D01*
X135752616Y-85823320D01*
X135663794Y-85817265D01*
X135585321Y-85822934D01*
X135515956Y-85840662D01*
X135454455Y-85870788D01*
X135399577Y-85913651D01*
X135350079Y-85969588D01*
X135342693Y-85979611D01*
X135329737Y-85995539D01*
X135317673Y-86000746D01*
X135299020Y-85997598D01*
X135291975Y-85995648D01*
X135139007Y-85952992D01*
X135001137Y-85915908D01*
X134877531Y-85884234D01*
X134767353Y-85857810D01*
X134669768Y-85836476D01*
X134583940Y-85820071D01*
X134509035Y-85808434D01*
X134444218Y-85801406D01*
X134388652Y-85798824D01*
X134341503Y-85800530D01*
X134304307Y-85805859D01*
X134260698Y-85820307D01*
X134225129Y-85842643D01*
X134200909Y-85870347D01*
X134192642Y-85890824D01*
X134178393Y-85925145D01*
X134154556Y-85950654D01*
X134126649Y-85962956D01*
X134103305Y-85964312D01*
X134071869Y-85960894D01*
X134030998Y-85952355D01*
X133979353Y-85938347D01*
X133915590Y-85918519D01*
X133838370Y-85892525D01*
X133789011Y-85875237D01*
X133599966Y-85808297D01*
X133413699Y-85798581D01*
X133345307Y-85794601D01*
X133269678Y-85789510D01*
X133193003Y-85783769D01*
X133121476Y-85777840D01*
X133066566Y-85772719D01*
X133002759Y-85766556D01*
X132932115Y-85760129D01*
X132861279Y-85754019D01*
X132796896Y-85748807D01*
X132765999Y-85746485D01*
X132625605Y-85740423D01*
X132498614Y-85743729D01*
X132384126Y-85756713D01*
X132281239Y-85779685D01*
X132189050Y-85812954D01*
X132106659Y-85856829D01*
X132033163Y-85911620D01*
X131967660Y-85977635D01*
X131922393Y-86035897D01*
X131877018Y-86100495D01*
X131414697Y-85903080D01*
X131331344Y-85867463D01*
X131252731Y-85833823D01*
X131180222Y-85802747D01*
X131115181Y-85774822D01*
X131058972Y-85750635D01*
X131012958Y-85730772D01*
X130978504Y-85715821D01*
X130956973Y-85706368D01*
X130949733Y-85703016D01*
X130950552Y-85694268D01*
X130954634Y-85672117D01*
X130961361Y-85639645D01*
X130970113Y-85599933D01*
X130972861Y-85587856D01*
X130982033Y-85546665D01*
X130989287Y-85511847D01*
X130994020Y-85486480D01*
X130995628Y-85473642D01*
X130995433Y-85472710D01*
X130987303Y-85468271D01*
X130966235Y-85457250D01*
X130934376Y-85440758D01*
X130893876Y-85419903D01*
X130846881Y-85395797D01*
X130817210Y-85380616D01*
X130768827Y-85356063D01*
X130726756Y-85335290D01*
X130688296Y-85317218D01*
X130650745Y-85300768D01*
X130611402Y-85284861D01*
X130567566Y-85268418D01*
X130516534Y-85250360D01*
X130455605Y-85229607D01*
X130382078Y-85205081D01*
X130356805Y-85196709D01*
X130225845Y-85154091D01*
X130109093Y-85117723D01*
X130005147Y-85087290D01*
X129912603Y-85062479D01*
X129830061Y-85042976D01*
X129756118Y-85028466D01*
X129689372Y-85018636D01*
X129628421Y-85013172D01*
X129571863Y-85011760D01*
X129535966Y-85012912D01*
X129466462Y-85019545D01*
X129409795Y-85031829D01*
X129362432Y-85051083D01*
X129320840Y-85078626D01*
X129293344Y-85103468D01*
X129265804Y-85133081D01*
X129247521Y-85159349D01*
X129234230Y-85189114D01*
X129227728Y-85208720D01*
X129212799Y-85281849D01*
X129209376Y-85366712D01*
X129217360Y-85462710D01*
X129236652Y-85569243D01*
X129267156Y-85685711D01*
X129308772Y-85811515D01*
X129339731Y-85892984D01*
X129355742Y-85933721D01*
X129368958Y-85968238D01*
X129378361Y-85993803D01*
X129382934Y-86007687D01*
X129383122Y-86009400D01*
X129377273Y-86003047D01*
X129362726Y-85985368D01*
X129341143Y-85958435D01*
X129314182Y-85924319D01*
X129283503Y-85885091D01*
X129282533Y-85883845D01*
X129246980Y-85838604D01*
X129210440Y-85792883D01*
X129175933Y-85750412D01*
X129146482Y-85714918D01*
X129129830Y-85695461D01*
X129047142Y-85610063D01*
X128962215Y-85540835D01*
X128873583Y-85487031D01*
X128779779Y-85447904D01*
X128679338Y-85422709D01*
X128570792Y-85410699D01*
X128570078Y-85410664D01*
X128481390Y-85410338D01*
X128404011Y-85419078D01*
X128334676Y-85437325D01*
X128313288Y-85445394D01*
X128265966Y-85464617D01*
X128232841Y-85440591D01*
X128181989Y-85412757D01*
X128116993Y-85392398D01*
X128039061Y-85379842D01*
X127997254Y-85376675D01*
X127906342Y-85372012D01*
X127885375Y-85336233D01*
X127847889Y-85286815D01*
X127795424Y-85239627D01*
X127729908Y-85196012D01*
X127653272Y-85157313D01*
X127595314Y-85134321D01*
X127568232Y-85125440D01*
X127528347Y-85113391D01*
X127479260Y-85099211D01*
X127424572Y-85083936D01*
X127367883Y-85068603D01*
X127358247Y-85066050D01*
X127282606Y-85045823D01*
X127220134Y-85028416D01*
X127167529Y-85012721D01*
X127121489Y-84997629D01*
X127078712Y-84982030D01*
X127035896Y-84964815D01*
X126989739Y-84944875D01*
X126966333Y-84934418D01*
X126855214Y-84885612D01*
X126756717Y-84845083D01*
X126669007Y-84812287D01*
X126590254Y-84786676D01*
X126518626Y-84767705D01*
X126452290Y-84754828D01*
X126389414Y-84747499D01*
X126331333Y-84745178D01*
X126263849Y-84748224D01*
X126208495Y-84758634D01*
X126161700Y-84777433D01*
X126119892Y-84805648D01*
X126119382Y-84806068D01*
X126084272Y-84844954D01*
X126055605Y-84897044D01*
X126034391Y-84959504D01*
X126021641Y-85029499D01*
X126018213Y-85089637D01*
X126018066Y-85147774D01*
X125994783Y-85142766D01*
X125871483Y-85118157D01*
X125758372Y-85099478D01*
X125656760Y-85086886D01*
X125567959Y-85080541D01*
X125493277Y-85080601D01*
X125484666Y-85081088D01*
X125410886Y-85088635D01*
X125347503Y-85102198D01*
X125290040Y-85123611D01*
X125234018Y-85154708D01*
X125174959Y-85197322D01*
X125148638Y-85218708D01*
X125080896Y-85270361D01*
X125015637Y-85310692D01*
X124955159Y-85338379D01*
X124923879Y-85347955D01*
X124899450Y-85352477D01*
X124863158Y-85357490D01*
X124820038Y-85362364D01*
X124778109Y-85366227D01*
X124659356Y-85381770D01*
X124547601Y-85408165D01*
X124444403Y-85444714D01*
X124351323Y-85490723D01*
X124269920Y-85545492D01*
X124201754Y-85608327D01*
X124180431Y-85633192D01*
X124159633Y-85659150D01*
X123753233Y-85643366D01*
X123346833Y-85627583D01*
X123281920Y-85602758D01*
X123212945Y-85580507D01*
X123138665Y-85565017D01*
X123055650Y-85555774D01*
X122960469Y-85552264D01*
X122944170Y-85552200D01*
X122823391Y-85556236D01*
X122714465Y-85568217D01*
X122618100Y-85587958D01*
X122535008Y-85615271D01*
X122465896Y-85649970D01*
X122411473Y-85691867D01*
X122410397Y-85692917D01*
X122371427Y-85731140D01*
X122232597Y-85696890D01*
X122175995Y-85682795D01*
X122109360Y-85665991D01*
X122039030Y-85648090D01*
X121971347Y-85630703D01*
X121932899Y-85620733D01*
X121844754Y-85598422D01*
X121769954Y-85581051D01*
X121705796Y-85568152D01*
X121649578Y-85559258D01*
X121598599Y-85553904D01*
X121550155Y-85551622D01*
X121531802Y-85551463D01*
X121463622Y-85555081D01*
X121408624Y-85566089D01*
X121364518Y-85584989D01*
X121356717Y-85589816D01*
X121346382Y-85594719D01*
X121332886Y-85596154D01*
X121312567Y-85593818D01*
X121281764Y-85587409D01*
X121257170Y-85581590D01*
X121135999Y-85557814D01*
X121004748Y-85542188D01*
X120868472Y-85535268D01*
X120831427Y-85534964D01*
X120706813Y-85539082D01*
X120594113Y-85551601D01*
X120490186Y-85573171D01*
X120391891Y-85604442D01*
X120297073Y-85645580D01*
X120206802Y-85696165D01*
X120129675Y-85753737D01*
X120062412Y-85821164D01*
X120001731Y-85901317D01*
X119997674Y-85907435D01*
X119984381Y-85927641D01*
X119882722Y-85859687D01*
X119840154Y-85831741D01*
X119796654Y-85804053D01*
X119756969Y-85779590D01*
X119725842Y-85761321D01*
X119722448Y-85759433D01*
X119694478Y-85743918D01*
X119672775Y-85731691D01*
X119661167Y-85724912D01*
X119660304Y-85724332D01*
X119658342Y-85715287D01*
X119655650Y-85692792D01*
X119652590Y-85660298D01*
X119649690Y-85623527D01*
X119635101Y-85499136D01*
X119609838Y-85374289D01*
X119574905Y-85251442D01*
X119531305Y-85133053D01*
X119480043Y-85021580D01*
X119422122Y-84919481D01*
X119358545Y-84829212D01*
X119296902Y-84759699D01*
X119228972Y-84699779D01*
X119161078Y-84655934D01*
X119091561Y-84627392D01*
X119018763Y-84613377D01*
X118979157Y-84611575D01*
X118909767Y-84616780D01*
X118842993Y-84633057D01*
X118776338Y-84661463D01*
X118707304Y-84703057D01*
X118635489Y-84757182D01*
X118593049Y-84789194D01*
X118556691Y-84809414D01*
X118521923Y-84819277D01*
X118484253Y-84820215D01*
X118451408Y-84815927D01*
X118401929Y-84804853D01*
X118346697Y-84787632D01*
X118284488Y-84763704D01*
X118214079Y-84732509D01*
X118134245Y-84693487D01*
X118043764Y-84646080D01*
X117941410Y-84589727D01*
X117877366Y-84553434D01*
X117782080Y-84499342D01*
X117699703Y-84453527D01*
X117628747Y-84415349D01*
X117567728Y-84384167D01*
X117515159Y-84359339D01*
X117469554Y-84340225D01*
X117429427Y-84326183D01*
X117393292Y-84316573D01*
X117359662Y-84310753D01*
X117327053Y-84308083D01*
X117307739Y-84307725D01*
X117218390Y-84313563D01*
X117141398Y-84330777D01*
X117076745Y-84359408D01*
X117024413Y-84399494D01*
X116984384Y-84451073D01*
X116956641Y-84514186D01*
X116941166Y-84588870D01*
X116937941Y-84675165D01*
X116946949Y-84773111D01*
X116968171Y-84882744D01*
X116997332Y-84990226D01*
X117017050Y-85052178D01*
X117039901Y-85117928D01*
X117066422Y-85188729D01*
X117097145Y-85265831D01*
X117132606Y-85350486D01*
X117173339Y-85443946D01*
X117219879Y-85547461D01*
X117272760Y-85662284D01*
X117332517Y-85789665D01*
X117394732Y-85920500D01*
X117428101Y-85990423D01*
X117460746Y-86059054D01*
X117491567Y-86124066D01*
X117519465Y-86183132D01*
X117543341Y-86233925D01*
X117562096Y-86274119D01*
X117574632Y-86301386D01*
X117574683Y-86301500D01*
X117588793Y-86333186D01*
X117607306Y-86375497D01*
X117629477Y-86426674D01*
X117654562Y-86484961D01*
X117681818Y-86548599D01*
X117710501Y-86615832D01*
X117739868Y-86684900D01*
X117769173Y-86754048D01*
X117797674Y-86821516D01*
X117824626Y-86885547D01*
X117849286Y-86944384D01*
X117870910Y-86996270D01*
X117888754Y-87039445D01*
X117902074Y-87072153D01*
X117910127Y-87092637D01*
X117912257Y-87099165D01*
X117904104Y-87096727D01*
X117883667Y-87088234D01*
X117853916Y-87074981D01*
X117817823Y-87058260D01*
X117813105Y-87056033D01*
X117662576Y-86991150D01*
X117514127Y-86939608D01*
X117368808Y-86901559D01*
X117227671Y-86877158D01*
X117091766Y-86866559D01*
X116962142Y-86869914D01*
X116839851Y-86887377D01*
X116773045Y-86903930D01*
X116667216Y-86942650D01*
X116572093Y-86993849D01*
X116487959Y-87056663D01*
X116415094Y-87130228D01*
X116353781Y-87213678D01*
X116304300Y-87306151D01*
X116266933Y-87406780D01*
X116241961Y-87514703D01*
X116229666Y-87629054D01*
X116230330Y-87748969D01*
X116244233Y-87873584D01*
X116271658Y-88002034D01*
X116312885Y-88133455D01*
X116345673Y-88216453D01*
X116419910Y-88369493D01*
X116510164Y-88518610D01*
X116615869Y-88663326D01*
X116736463Y-88803161D01*
X116871382Y-88937636D01*
X117020062Y-89066273D01*
X117181939Y-89188593D01*
X117356450Y-89304116D01*
X117543031Y-89412365D01*
X117741118Y-89512860D01*
X117950149Y-89605122D01*
X118007412Y-89628173D01*
X118187891Y-89694861D01*
X118378293Y-89756299D01*
X118579257Y-89812598D01*
X118791422Y-89863868D01*
X119015426Y-89910219D01*
X119251908Y-89951762D01*
X119501505Y-89988608D01*
X119764857Y-90020866D01*
X120042602Y-90048648D01*
X120335378Y-90072064D01*
X120643824Y-90091224D01*
X120700999Y-90094226D01*
X120779874Y-90098130D01*
X120857689Y-90101700D01*
X120935455Y-90104949D01*
X121014185Y-90107891D01*
X121094892Y-90110539D01*
X121178588Y-90112908D01*
X121266285Y-90115011D01*
X121358997Y-90116861D01*
X121457736Y-90118472D01*
X121563514Y-90119858D01*
X121677343Y-90121032D01*
X121800236Y-90122008D01*
X121933206Y-90122800D01*
X122077265Y-90123421D01*
X122233426Y-90123884D01*
X122402700Y-90124204D01*
X122586101Y-90124394D01*
X122784642Y-90124468D01*
X122948899Y-90124454D01*
X123166176Y-90124457D01*
X123367325Y-90124588D01*
X123553155Y-90124857D01*
X123724470Y-90125272D01*
X123882077Y-90125845D01*
X124026783Y-90126584D01*
X124159393Y-90127500D01*
X124280715Y-90128603D01*
X124391553Y-90129902D01*
X124492716Y-90131407D01*
X124585008Y-90133128D01*
X124669236Y-90135074D01*
X124746207Y-90137256D01*
X124816726Y-90139684D01*
X124881600Y-90142367D01*
X124941636Y-90145315D01*
X124997638Y-90148538D01*
X125014766Y-90149624D01*
X125067991Y-90153007D01*
X125123318Y-90156409D01*
X125174765Y-90159467D01*
X125216351Y-90161821D01*
X125222199Y-90162136D01*
X125302633Y-90166411D01*
X126566418Y-89858715D01*
X126709325Y-89823901D01*
X126847735Y-89790143D01*
X126980754Y-89757661D01*
X127107490Y-89726675D01*
X127227050Y-89697403D01*
X127338542Y-89670066D01*
X127441073Y-89644882D01*
X127533751Y-89622073D01*
X127615682Y-89601856D01*
X127685975Y-89584452D01*
X127743735Y-89570081D01*
X127788072Y-89558961D01*
X127818092Y-89551312D01*
X127832902Y-89547355D01*
X127834365Y-89546857D01*
X127831525Y-89538722D01*
X127820355Y-89520622D01*
X127802991Y-89495906D01*
X127795361Y-89485672D01*
X127776170Y-89459415D01*
X127762267Y-89438631D01*
X127755820Y-89426635D01*
X127755763Y-89425081D01*
X127765377Y-89424443D01*
X127786374Y-89426570D01*
X127805216Y-89429486D01*
X127835677Y-89433601D01*
X127879089Y-89437904D01*
X127931549Y-89442159D01*
X127989159Y-89446131D01*
X128048016Y-89449582D01*
X128104220Y-89452279D01*
X128153869Y-89453983D01*
X128193064Y-89454461D01*
X128210880Y-89454013D01*
X128240554Y-89452028D01*
X128257528Y-89448719D01*
X128266026Y-89442106D01*
X128270269Y-89430210D01*
X128271262Y-89425700D01*
X128276663Y-89400300D01*
X128277664Y-89427817D01*
X128278666Y-89455333D01*
X128696229Y-89455333D01*
X128793675Y-89455269D01*
X128875698Y-89455048D01*
X128943811Y-89454625D01*
X128999525Y-89453957D01*
X129044350Y-89452999D01*
X129079798Y-89451707D01*
X129107380Y-89450038D01*
X129128607Y-89447947D01*
X129144991Y-89445391D01*
X129158043Y-89442325D01*
X129159779Y-89441826D01*
X129235153Y-89412182D01*
X129304078Y-89370362D01*
X129363300Y-89318728D01*
X129408664Y-89261078D01*
X129438102Y-89206152D01*
X129456610Y-89149873D01*
X129465696Y-89086739D01*
X129467222Y-89047246D01*
X129468049Y-88965126D01*
X129348674Y-88789013D01*
X129314799Y-88738698D01*
X129283226Y-88691166D01*
X129255499Y-88648792D01*
X129233164Y-88613952D01*
X129217766Y-88589023D01*
X129211903Y-88578667D01*
X129194508Y-88544434D01*
X129318670Y-88534294D01*
X129464080Y-88516024D01*
X129599587Y-88485909D01*
X129724419Y-88444211D01*
X129837800Y-88391193D01*
X129876504Y-88366676D01*
X119659502Y-88366676D01*
X119658746Y-88379481D01*
X119656660Y-88406802D01*
X119653441Y-88446293D01*
X119649283Y-88495607D01*
X119644381Y-88552396D01*
X119638931Y-88614313D01*
X119638335Y-88621016D01*
X119632870Y-88682651D01*
X119627932Y-88738782D01*
X119623712Y-88787197D01*
X119620403Y-88825685D01*
X119618195Y-88852034D01*
X119617280Y-88864031D01*
X119617266Y-88864433D01*
X119617144Y-88867005D01*
X119615536Y-88868885D01*
X119610577Y-88869989D01*
X119600402Y-88870233D01*
X119583148Y-88869532D01*
X119556949Y-88867802D01*
X119519941Y-88864960D01*
X119470261Y-88860920D01*
X119406042Y-88855598D01*
X119387159Y-88854029D01*
X119295788Y-88846324D01*
X119215454Y-88839162D01*
X119143856Y-88832141D01*
X119078697Y-88824861D01*
X119017678Y-88816918D01*
X118958501Y-88807912D01*
X118898866Y-88797440D01*
X118836475Y-88785100D01*
X118769030Y-88770492D01*
X118694231Y-88753212D01*
X118609781Y-88732860D01*
X118513380Y-88709032D01*
X118410766Y-88683347D01*
X118321998Y-88661011D01*
X118247798Y-88642180D01*
X118186296Y-88626286D01*
X118135623Y-88612763D01*
X118093911Y-88601043D01*
X118059291Y-88590561D01*
X118029893Y-88580748D01*
X118003847Y-88571039D01*
X117979287Y-88560867D01*
X117954341Y-88549664D01*
X117927141Y-88536864D01*
X117926103Y-88536370D01*
X117781624Y-88461865D01*
X117651624Y-88383027D01*
X117536521Y-88300199D01*
X117436732Y-88213725D01*
X117352676Y-88123948D01*
X117284771Y-88031211D01*
X117260057Y-87989450D01*
X117242850Y-87955489D01*
X117226101Y-87917905D01*
X117211547Y-87881140D01*
X117200921Y-87849636D01*
X117195959Y-87827834D01*
X117195799Y-87824970D01*
X117203338Y-87820591D01*
X117225867Y-87823789D01*
X117263259Y-87834514D01*
X117315385Y-87852718D01*
X117382117Y-87878352D01*
X117463327Y-87911367D01*
X117558887Y-87951714D01*
X117668667Y-87999344D01*
X117767299Y-88042950D01*
X117888032Y-88096479D01*
X117994826Y-88143241D01*
X118089059Y-88183698D01*
X118172105Y-88218311D01*
X118245341Y-88247540D01*
X118310142Y-88271847D01*
X118367884Y-88291693D01*
X118419942Y-88307539D01*
X118467692Y-88319845D01*
X118512510Y-88329074D01*
X118555772Y-88335685D01*
X118598853Y-88340141D01*
X118643129Y-88342902D01*
X118664766Y-88343746D01*
X118712027Y-88345115D01*
X118748084Y-88345229D01*
X118778070Y-88343491D01*
X118807118Y-88339304D01*
X118840360Y-88332073D01*
X118882930Y-88321202D01*
X118901833Y-88316200D01*
X118982451Y-88296733D01*
X119053121Y-88284572D01*
X119119090Y-88279558D01*
X119185607Y-88281530D01*
X119257922Y-88290327D01*
X119328339Y-88303146D01*
X119383910Y-88313594D01*
X119443905Y-88323632D01*
X119501770Y-88332236D01*
X119550953Y-88338381D01*
X119559055Y-88339214D01*
X119601691Y-88343596D01*
X119630240Y-88347346D01*
X119647492Y-88351226D01*
X119656237Y-88356000D01*
X119659263Y-88362429D01*
X119659502Y-88366676D01*
X129876504Y-88366676D01*
X129938957Y-88327116D01*
X129947126Y-88321049D01*
X130000560Y-88280854D01*
X130077296Y-88331327D01*
X130198773Y-88403724D01*
X130323487Y-88463687D01*
X130449392Y-88510535D01*
X130574440Y-88543587D01*
X130696585Y-88562161D01*
X130782983Y-88566186D01*
X130891959Y-88559966D01*
X130989540Y-88541567D01*
X131076215Y-88510878D01*
X131121542Y-88487484D01*
X131135814Y-88479926D01*
X131149137Y-88476123D01*
X131164927Y-88476547D01*
X131186601Y-88481669D01*
X131217574Y-88491963D01*
X131256481Y-88506132D01*
X131326004Y-88529046D01*
X131393996Y-88545199D01*
X131465352Y-88555360D01*
X131544969Y-88560299D01*
X131606066Y-88561067D01*
X131668330Y-88560198D01*
X131719035Y-88557653D01*
X131763513Y-88552967D01*
X131807094Y-88545672D01*
X131825983Y-88541810D01*
X131953613Y-88507106D01*
X132070495Y-88459760D01*
X132176228Y-88399948D01*
X132220791Y-88368463D01*
X132269754Y-88331446D01*
X132309488Y-88355895D01*
X132387681Y-88399035D01*
X132478036Y-88440432D01*
X132575782Y-88478228D01*
X132676147Y-88510563D01*
X132766213Y-88533785D01*
X132801652Y-88541203D01*
X132834006Y-88546517D01*
X132867294Y-88550040D01*
X132905533Y-88552088D01*
X132952743Y-88552976D01*
X133011533Y-88553025D01*
X133068232Y-88552640D01*
X133111557Y-88551745D01*
X133145065Y-88549975D01*
X133172317Y-88546967D01*
X133196868Y-88542359D01*
X133222279Y-88535787D01*
X133244366Y-88529252D01*
X133318047Y-88502590D01*
X133387664Y-88469352D01*
X133447653Y-88432303D01*
X133463550Y-88420378D01*
X133488564Y-88403804D01*
X133504366Y-88400860D01*
X133506503Y-88402013D01*
X133556767Y-88436151D01*
X133612022Y-88464592D01*
X133675484Y-88488610D01*
X133750368Y-88509481D01*
X133811713Y-88522982D01*
X133915854Y-88540870D01*
X134029997Y-88554934D01*
X134150841Y-88565113D01*
X134275082Y-88571348D01*
X134399415Y-88573578D01*
X134520536Y-88571744D01*
X134635144Y-88565786D01*
X134739932Y-88555643D01*
X134830361Y-88541498D01*
X134868395Y-88533617D01*
X134902491Y-88525755D01*
X134927616Y-88519108D01*
X134935547Y-88516497D01*
X134948960Y-88513249D01*
X134965816Y-88513882D01*
X134989656Y-88519036D01*
X135024020Y-88529355D01*
X135045614Y-88536437D01*
X135158354Y-88566803D01*
X135275063Y-88584807D01*
X135392572Y-88590446D01*
X135507708Y-88583717D01*
X135617302Y-88564619D01*
X135708314Y-88536951D01*
X135763128Y-88513997D01*
X135809172Y-88488695D01*
X135854471Y-88456524D01*
X135863175Y-88449646D01*
X135899650Y-88420460D01*
X135985942Y-88454538D01*
X136095328Y-88494940D01*
X136195664Y-88525646D01*
X136291141Y-88547511D01*
X136385948Y-88561392D01*
X136484278Y-88568147D01*
X136546366Y-88569136D01*
X136651019Y-88565546D01*
X136743967Y-88554268D01*
X136829109Y-88534188D01*
X136910346Y-88504194D01*
X136991576Y-88463173D01*
X137056189Y-88423622D01*
X137151145Y-88361677D01*
X137224757Y-88410155D01*
X137321621Y-88468194D01*
X137413791Y-88511256D01*
X137503115Y-88539982D01*
X137591443Y-88555013D01*
X137650504Y-88557742D01*
X137717006Y-88554816D01*
X137779330Y-88545431D01*
X137843353Y-88528353D01*
X137914952Y-88502345D01*
X137915956Y-88501944D01*
X137990438Y-88472144D01*
X138072736Y-88505860D01*
X138229705Y-88561640D01*
X138395683Y-88604539D01*
X138568488Y-88634382D01*
X138745937Y-88650996D01*
X138925849Y-88654207D01*
X139106042Y-88643842D01*
X139284333Y-88619726D01*
X139348833Y-88607397D01*
X139506886Y-88568313D01*
X139660874Y-88517642D01*
X139808962Y-88456365D01*
X139949313Y-88385459D01*
X140080091Y-88305905D01*
X140199458Y-88218681D01*
X140305579Y-88124766D01*
X140359438Y-88068614D01*
X140452556Y-87954007D01*
X140529506Y-87835264D01*
X140590186Y-87712632D01*
X140634497Y-87586357D01*
X140662337Y-87456685D01*
X140671084Y-87353575D01*
X131371465Y-87353575D01*
X131330448Y-87419384D01*
X131313249Y-87446874D01*
X131300715Y-87464594D01*
X131291605Y-87471421D01*
X131284676Y-87466236D01*
X131278686Y-87447916D01*
X131272392Y-87415341D01*
X131264553Y-87367389D01*
X131263140Y-87358631D01*
X131259083Y-87335645D01*
X131254154Y-87313024D01*
X131247682Y-87288937D01*
X131238997Y-87261555D01*
X131232817Y-87244193D01*
X124252174Y-87244193D01*
X124250900Y-87285955D01*
X124248105Y-87321711D01*
X124243851Y-87348292D01*
X124238198Y-87362529D01*
X124235334Y-87364067D01*
X124225787Y-87360547D01*
X124206791Y-87351659D01*
X124196755Y-87346635D01*
X124166319Y-87324400D01*
X124163125Y-87319617D01*
X119422511Y-87319617D01*
X119419631Y-87328868D01*
X119410037Y-87326624D01*
X119392388Y-87312176D01*
X119374323Y-87294217D01*
X119335832Y-87248109D01*
X119294994Y-87187683D01*
X119252938Y-87115195D01*
X119210790Y-87032901D01*
X119169679Y-86943055D01*
X119130731Y-86847914D01*
X119095074Y-86749732D01*
X119081276Y-86707900D01*
X119066146Y-86658187D01*
X119052526Y-86608995D01*
X119041058Y-86563146D01*
X119032380Y-86523464D01*
X119027134Y-86492772D01*
X119025958Y-86473892D01*
X119027243Y-86469601D01*
X119037844Y-86470087D01*
X119056865Y-86480845D01*
X119081397Y-86499564D01*
X119108530Y-86523932D01*
X119135352Y-86551636D01*
X119146039Y-86563967D01*
X119197652Y-86631951D01*
X119249396Y-86711256D01*
X119298165Y-86796583D01*
X119340858Y-86882632D01*
X119363350Y-86935109D01*
X119373663Y-86962954D01*
X119381910Y-86990815D01*
X119388784Y-87022257D01*
X119394977Y-87060843D01*
X119401182Y-87110136D01*
X119406151Y-87155243D01*
X119411373Y-87204941D01*
X119415907Y-87249133D01*
X119419465Y-87284934D01*
X119421761Y-87309460D01*
X119422511Y-87319617D01*
X124163125Y-87319617D01*
X124151482Y-87302185D01*
X124144564Y-87284361D01*
X124133082Y-87253603D01*
X124117703Y-87211779D01*
X124099098Y-87160760D01*
X124077937Y-87102414D01*
X124054890Y-87038612D01*
X124030627Y-86971224D01*
X124005817Y-86902119D01*
X123981131Y-86833167D01*
X123957239Y-86766238D01*
X123934810Y-86703200D01*
X123914514Y-86645925D01*
X123897022Y-86596282D01*
X123883003Y-86556140D01*
X123873127Y-86527369D01*
X123868063Y-86511839D01*
X123867533Y-86509694D01*
X123869253Y-86502047D01*
X123874848Y-86502159D01*
X123884970Y-86510900D01*
X123900270Y-86529139D01*
X123921400Y-86557745D01*
X123949011Y-86597587D01*
X123983756Y-86649533D01*
X124026286Y-86714453D01*
X124059359Y-86765484D01*
X124104907Y-86836213D01*
X124141999Y-86894426D01*
X124171549Y-86941712D01*
X124194473Y-86979658D01*
X124211685Y-87009851D01*
X124224101Y-87033880D01*
X124232635Y-87053333D01*
X124238203Y-87069798D01*
X124240834Y-87080434D01*
X124246257Y-87114543D01*
X124249914Y-87155318D01*
X124251866Y-87199591D01*
X124252174Y-87244193D01*
X131232817Y-87244193D01*
X131227427Y-87229051D01*
X131212302Y-87189594D01*
X131192951Y-87141355D01*
X131168702Y-87082506D01*
X131138886Y-87011217D01*
X131114359Y-86952972D01*
X131085332Y-86883960D01*
X131058567Y-86819943D01*
X131034741Y-86762565D01*
X131014530Y-86713474D01*
X130998610Y-86674314D01*
X130987656Y-86646733D01*
X130982347Y-86632376D01*
X130981970Y-86630674D01*
X130990142Y-86632997D01*
X131009644Y-86641386D01*
X131036727Y-86654200D01*
X131045404Y-86658479D01*
X131123333Y-86706497D01*
X131190789Y-86767668D01*
X131247631Y-86841728D01*
X131293719Y-86928416D01*
X131328914Y-87027469D01*
X131353075Y-87138623D01*
X131365930Y-87259338D01*
X131371465Y-87353575D01*
X140671084Y-87353575D01*
X140673605Y-87323863D01*
X140673866Y-87300070D01*
X140667048Y-87169626D01*
X140646292Y-87041143D01*
X140611150Y-86913289D01*
X140561170Y-86784732D01*
X140495905Y-86654139D01*
X140414903Y-86520175D01*
X140406243Y-86507029D01*
X140332625Y-86405574D01*
X140252003Y-86313436D01*
X140162554Y-86229115D01*
X140062452Y-86151110D01*
X139949875Y-86077921D01*
X139822998Y-86008046D01*
X139764817Y-85979234D01*
X139695493Y-85947991D01*
X139620811Y-85918014D01*
X139543701Y-85890195D01*
X139467092Y-85865424D01*
X139393917Y-85844594D01*
X139327105Y-85828597D01*
X139269586Y-85818324D01*
X139224292Y-85814667D01*
X139224031Y-85814667D01*
X139203214Y-85813471D01*
X139191020Y-85810553D01*
X139190511Y-85810156D01*
X139193136Y-85801782D01*
X139203661Y-85782422D01*
X139220373Y-85755030D01*
X139239856Y-85725097D01*
X139313877Y-85600382D01*
X139371506Y-85472428D01*
X139412656Y-85341755D01*
X139437243Y-85208881D01*
X139445180Y-85074324D01*
X139436381Y-84938602D01*
X139410761Y-84802233D01*
X139399551Y-84760466D01*
X139362737Y-84656093D01*
X139311973Y-84548229D01*
X139249075Y-84439567D01*
X139175857Y-84332797D01*
X139094135Y-84230609D01*
X139005724Y-84135696D01*
X138932022Y-84067350D01*
X138775382Y-83943059D01*
X138609476Y-83832588D01*
X138435348Y-83736324D01*
X138254041Y-83654655D01*
X138066598Y-83587967D01*
X137874062Y-83536647D01*
X137677476Y-83501082D01*
X137477884Y-83481658D01*
X137342233Y-83477867D01*
X137151229Y-83485223D01*
X137151229Y-83485223D01*
G37*
X137151229Y-83485223D02*
X136968302Y-83507269D01*
X136793572Y-83543970D01*
X136627161Y-83595293D01*
X136469193Y-83661202D01*
X136319787Y-83741664D01*
X136254676Y-83783082D01*
X136135500Y-83871518D01*
X136030727Y-83967726D01*
X135940640Y-84071299D01*
X135865518Y-84181828D01*
X135805642Y-84298906D01*
X135761293Y-84422124D01*
X135734741Y-84538795D01*
X135732005Y-84558285D01*
X135729814Y-84573413D01*
X135726226Y-84584404D01*
X135719300Y-84591483D01*
X135707097Y-84594874D01*
X135687674Y-84594803D01*
X135659091Y-84591494D01*
X135619408Y-84585173D01*
X135566683Y-84576062D01*
X135504966Y-84565408D01*
X135227305Y-84521263D01*
X134963880Y-84485873D01*
X134714448Y-84459209D01*
X134497433Y-84442379D01*
X134419419Y-84438707D01*
X134333344Y-84436717D01*
X134242788Y-84436335D01*
X134151333Y-84437487D01*
X134062558Y-84440099D01*
X133980045Y-84444097D01*
X133907375Y-84449407D01*
X133849733Y-84455735D01*
X133723733Y-84477360D01*
X133612293Y-84505662D01*
X133515645Y-84540536D01*
X133434022Y-84581879D01*
X133367654Y-84629585D01*
X133316776Y-84683551D01*
X133305224Y-84699941D01*
X133276309Y-84751301D01*
X133258428Y-84802738D01*
X133249911Y-84860181D01*
X133248599Y-84900828D01*
X133251665Y-84956623D01*
X133261417Y-85013821D01*
X133278692Y-85075260D01*
X133304325Y-85143778D01*
X133339150Y-85222210D01*
X133349725Y-85244394D01*
X133371121Y-85289316D01*
X133387306Y-85321846D01*
X133401382Y-85344343D01*
X133416456Y-85359165D01*
X133435631Y-85368672D01*
X133462012Y-85375222D01*
X133498704Y-85381173D01*
X133537536Y-85387083D01*
X133595978Y-85395616D01*
X133658098Y-85403302D01*
X133724876Y-85410176D01*
X133797290Y-85416270D01*
X133876321Y-85421618D01*
X133962947Y-85426252D01*
X134058147Y-85430205D01*
X134162901Y-85433510D01*
X134278188Y-85436201D01*
X134404986Y-85438311D01*
X134544276Y-85439871D01*
X134697036Y-85440917D01*
X134864245Y-85441480D01*
X135046883Y-85441593D01*
X135150642Y-85441481D01*
X135956252Y-85440200D01*
X136039642Y-85524078D01*
X136144382Y-85617669D01*
X136258197Y-85697125D01*
X136380409Y-85762152D01*
X136510341Y-85812460D01*
X136647314Y-85847755D01*
X136790653Y-85867746D01*
X136844123Y-85871159D01*
X136964080Y-85876465D01*
X136942146Y-85911183D01*
X136929456Y-85933115D01*
X136912074Y-85965628D01*
X136892491Y-86003969D01*
X136876830Y-86035817D01*
X136833449Y-86125734D01*
X136787274Y-86101694D01*
X136735094Y-86077933D01*
X136673427Y-86056371D01*
X136600099Y-86036376D01*
X136512938Y-86017311D01*
X136470946Y-86009293D01*
X136376031Y-85989088D01*
X136267313Y-85960920D01*
X136145791Y-85925051D01*
X136131915Y-85920719D01*
X136071218Y-85901987D01*
X136011107Y-85884005D01*
X135954985Y-85867750D01*
X135906257Y-85854198D01*
X135868326Y-85844325D01*
X135853030Y-85840758D01*
X135752616Y-85823320D01*
X135663794Y-85817265D01*
X135585321Y-85822934D01*
X135515956Y-85840662D01*
X135454455Y-85870788D01*
X135399577Y-85913651D01*
X135350079Y-85969588D01*
X135342693Y-85979611D01*
X135329737Y-85995539D01*
X135317673Y-86000746D01*
X135299020Y-85997598D01*
X135291975Y-85995648D01*
X135139007Y-85952992D01*
X135001137Y-85915908D01*
X134877531Y-85884234D01*
X134767353Y-85857810D01*
X134669768Y-85836476D01*
X134583940Y-85820071D01*
X134509035Y-85808434D01*
X134444218Y-85801406D01*
X134388652Y-85798824D01*
X134341503Y-85800530D01*
X134304307Y-85805859D01*
X134260698Y-85820307D01*
X134225129Y-85842643D01*
X134200909Y-85870347D01*
X134192642Y-85890824D01*
X134178393Y-85925145D01*
X134154556Y-85950654D01*
X134126649Y-85962956D01*
X134103305Y-85964312D01*
X134071869Y-85960894D01*
X134030998Y-85952355D01*
X133979353Y-85938347D01*
X133915590Y-85918519D01*
X133838370Y-85892525D01*
X133789011Y-85875237D01*
X133599966Y-85808297D01*
X133413699Y-85798581D01*
X133345307Y-85794601D01*
X133269678Y-85789510D01*
X133193003Y-85783769D01*
X133121476Y-85777840D01*
X133066566Y-85772719D01*
X133002759Y-85766556D01*
X132932115Y-85760129D01*
X132861279Y-85754019D01*
X132796896Y-85748807D01*
X132765999Y-85746485D01*
X132625605Y-85740423D01*
X132498614Y-85743729D01*
X132384126Y-85756713D01*
X132281239Y-85779685D01*
X132189050Y-85812954D01*
X132106659Y-85856829D01*
X132033163Y-85911620D01*
X131967660Y-85977635D01*
X131922393Y-86035897D01*
X131877018Y-86100495D01*
X131414697Y-85903080D01*
X131331344Y-85867463D01*
X131252731Y-85833823D01*
X131180222Y-85802747D01*
X131115181Y-85774822D01*
X131058972Y-85750635D01*
X131012958Y-85730772D01*
X130978504Y-85715821D01*
X130956973Y-85706368D01*
X130949733Y-85703016D01*
X130950552Y-85694268D01*
X130954634Y-85672117D01*
X130961361Y-85639645D01*
X130970113Y-85599933D01*
X130972861Y-85587856D01*
X130982033Y-85546665D01*
X130989287Y-85511847D01*
X130994020Y-85486480D01*
X130995628Y-85473642D01*
X130995433Y-85472710D01*
X130987303Y-85468271D01*
X130966235Y-85457250D01*
X130934376Y-85440758D01*
X130893876Y-85419903D01*
X130846881Y-85395797D01*
X130817210Y-85380616D01*
X130768827Y-85356063D01*
X130726756Y-85335290D01*
X130688296Y-85317218D01*
X130650745Y-85300768D01*
X130611402Y-85284861D01*
X130567566Y-85268418D01*
X130516534Y-85250360D01*
X130455605Y-85229607D01*
X130382078Y-85205081D01*
X130356805Y-85196709D01*
X130225845Y-85154091D01*
X130109093Y-85117723D01*
X130005147Y-85087290D01*
X129912603Y-85062479D01*
X129830061Y-85042976D01*
X129756118Y-85028466D01*
X129689372Y-85018636D01*
X129628421Y-85013172D01*
X129571863Y-85011760D01*
X129535966Y-85012912D01*
X129466462Y-85019545D01*
X129409795Y-85031829D01*
X129362432Y-85051083D01*
X129320840Y-85078626D01*
X129293344Y-85103468D01*
X129265804Y-85133081D01*
X129247521Y-85159349D01*
X129234230Y-85189114D01*
X129227728Y-85208720D01*
X129212799Y-85281849D01*
X129209376Y-85366712D01*
X129217360Y-85462710D01*
X129236652Y-85569243D01*
X129267156Y-85685711D01*
X129308772Y-85811515D01*
X129339731Y-85892984D01*
X129355742Y-85933721D01*
X129368958Y-85968238D01*
X129378361Y-85993803D01*
X129382934Y-86007687D01*
X129383122Y-86009400D01*
X129377273Y-86003047D01*
X129362726Y-85985368D01*
X129341143Y-85958435D01*
X129314182Y-85924319D01*
X129283503Y-85885091D01*
X129282533Y-85883845D01*
X129246980Y-85838604D01*
X129210440Y-85792883D01*
X129175933Y-85750412D01*
X129146482Y-85714918D01*
X129129830Y-85695461D01*
X129047142Y-85610063D01*
X128962215Y-85540835D01*
X128873583Y-85487031D01*
X128779779Y-85447904D01*
X128679338Y-85422709D01*
X128570792Y-85410699D01*
X128570078Y-85410664D01*
X128481390Y-85410338D01*
X128404011Y-85419078D01*
X128334676Y-85437325D01*
X128313288Y-85445394D01*
X128265966Y-85464617D01*
X128232841Y-85440591D01*
X128181989Y-85412757D01*
X128116993Y-85392398D01*
X128039061Y-85379842D01*
X127997254Y-85376675D01*
X127906342Y-85372012D01*
X127885375Y-85336233D01*
X127847889Y-85286815D01*
X127795424Y-85239627D01*
X127729908Y-85196012D01*
X127653272Y-85157313D01*
X127595314Y-85134321D01*
X127568232Y-85125440D01*
X127528347Y-85113391D01*
X127479260Y-85099211D01*
X127424572Y-85083936D01*
X127367883Y-85068603D01*
X127358247Y-85066050D01*
X127282606Y-85045823D01*
X127220134Y-85028416D01*
X127167529Y-85012721D01*
X127121489Y-84997629D01*
X127078712Y-84982030D01*
X127035896Y-84964815D01*
X126989739Y-84944875D01*
X126966333Y-84934418D01*
X126855214Y-84885612D01*
X126756717Y-84845083D01*
X126669007Y-84812287D01*
X126590254Y-84786676D01*
X126518626Y-84767705D01*
X126452290Y-84754828D01*
X126389414Y-84747499D01*
X126331333Y-84745178D01*
X126263849Y-84748224D01*
X126208495Y-84758634D01*
X126161700Y-84777433D01*
X126119892Y-84805648D01*
X126119382Y-84806068D01*
X126084272Y-84844954D01*
X126055605Y-84897044D01*
X126034391Y-84959504D01*
X126021641Y-85029499D01*
X126018213Y-85089637D01*
X126018066Y-85147774D01*
X125994783Y-85142766D01*
X125871483Y-85118157D01*
X125758372Y-85099478D01*
X125656760Y-85086886D01*
X125567959Y-85080541D01*
X125493277Y-85080601D01*
X125484666Y-85081088D01*
X125410886Y-85088635D01*
X125347503Y-85102198D01*
X125290040Y-85123611D01*
X125234018Y-85154708D01*
X125174959Y-85197322D01*
X125148638Y-85218708D01*
X125080896Y-85270361D01*
X125015637Y-85310692D01*
X124955159Y-85338379D01*
X124923879Y-85347955D01*
X124899450Y-85352477D01*
X124863158Y-85357490D01*
X124820038Y-85362364D01*
X124778109Y-85366227D01*
X124659356Y-85381770D01*
X124547601Y-85408165D01*
X124444403Y-85444714D01*
X124351323Y-85490723D01*
X124269920Y-85545492D01*
X124201754Y-85608327D01*
X124180431Y-85633192D01*
X124159633Y-85659150D01*
X123753233Y-85643366D01*
X123346833Y-85627583D01*
X123281920Y-85602758D01*
X123212945Y-85580507D01*
X123138665Y-85565017D01*
X123055650Y-85555774D01*
X122960469Y-85552264D01*
X122944170Y-85552200D01*
X122823391Y-85556236D01*
X122714465Y-85568217D01*
X122618100Y-85587958D01*
X122535008Y-85615271D01*
X122465896Y-85649970D01*
X122411473Y-85691867D01*
X122410397Y-85692917D01*
X122371427Y-85731140D01*
X122232597Y-85696890D01*
X122175995Y-85682795D01*
X122109360Y-85665991D01*
X122039030Y-85648090D01*
X121971347Y-85630703D01*
X121932899Y-85620733D01*
X121844754Y-85598422D01*
X121769954Y-85581051D01*
X121705796Y-85568152D01*
X121649578Y-85559258D01*
X121598599Y-85553904D01*
X121550155Y-85551622D01*
X121531802Y-85551463D01*
X121463622Y-85555081D01*
X121408624Y-85566089D01*
X121364518Y-85584989D01*
X121356717Y-85589816D01*
X121346382Y-85594719D01*
X121332886Y-85596154D01*
X121312567Y-85593818D01*
X121281764Y-85587409D01*
X121257170Y-85581590D01*
X121135999Y-85557814D01*
X121004748Y-85542188D01*
X120868472Y-85535268D01*
X120831427Y-85534964D01*
X120706813Y-85539082D01*
X120594113Y-85551601D01*
X120490186Y-85573171D01*
X120391891Y-85604442D01*
X120297073Y-85645580D01*
X120206802Y-85696165D01*
X120129675Y-85753737D01*
X120062412Y-85821164D01*
X120001731Y-85901317D01*
X119997674Y-85907435D01*
X119984381Y-85927641D01*
X119882722Y-85859687D01*
X119840154Y-85831741D01*
X119796654Y-85804053D01*
X119756969Y-85779590D01*
X119725842Y-85761321D01*
X119722448Y-85759433D01*
X119694478Y-85743918D01*
X119672775Y-85731691D01*
X119661167Y-85724912D01*
X119660304Y-85724332D01*
X119658342Y-85715287D01*
X119655650Y-85692792D01*
X119652590Y-85660298D01*
X119649690Y-85623527D01*
X119635101Y-85499136D01*
X119609838Y-85374289D01*
X119574905Y-85251442D01*
X119531305Y-85133053D01*
X119480043Y-85021580D01*
X119422122Y-84919481D01*
X119358545Y-84829212D01*
X119296902Y-84759699D01*
X119228972Y-84699779D01*
X119161078Y-84655934D01*
X119091561Y-84627392D01*
X119018763Y-84613377D01*
X118979157Y-84611575D01*
X118909767Y-84616780D01*
X118842993Y-84633057D01*
X118776338Y-84661463D01*
X118707304Y-84703057D01*
X118635489Y-84757182D01*
X118593049Y-84789194D01*
X118556691Y-84809414D01*
X118521923Y-84819277D01*
X118484253Y-84820215D01*
X118451408Y-84815927D01*
X118401929Y-84804853D01*
X118346697Y-84787632D01*
X118284488Y-84763704D01*
X118214079Y-84732509D01*
X118134245Y-84693487D01*
X118043764Y-84646080D01*
X117941410Y-84589727D01*
X117877366Y-84553434D01*
X117782080Y-84499342D01*
X117699703Y-84453527D01*
X117628747Y-84415349D01*
X117567728Y-84384167D01*
X117515159Y-84359339D01*
X117469554Y-84340225D01*
X117429427Y-84326183D01*
X117393292Y-84316573D01*
X117359662Y-84310753D01*
X117327053Y-84308083D01*
X117307739Y-84307725D01*
X117218390Y-84313563D01*
X117141398Y-84330777D01*
X117076745Y-84359408D01*
X117024413Y-84399494D01*
X116984384Y-84451073D01*
X116956641Y-84514186D01*
X116941166Y-84588870D01*
X116937941Y-84675165D01*
X116946949Y-84773111D01*
X116968171Y-84882744D01*
X116997332Y-84990226D01*
X117017050Y-85052178D01*
X117039901Y-85117928D01*
X117066422Y-85188729D01*
X117097145Y-85265831D01*
X117132606Y-85350486D01*
X117173339Y-85443946D01*
X117219879Y-85547461D01*
X117272760Y-85662284D01*
X117332517Y-85789665D01*
X117394732Y-85920500D01*
X117428101Y-85990423D01*
X117460746Y-86059054D01*
X117491567Y-86124066D01*
X117519465Y-86183132D01*
X117543341Y-86233925D01*
X117562096Y-86274119D01*
X117574632Y-86301386D01*
X117574683Y-86301500D01*
X117588793Y-86333186D01*
X117607306Y-86375497D01*
X117629477Y-86426674D01*
X117654562Y-86484961D01*
X117681818Y-86548599D01*
X117710501Y-86615832D01*
X117739868Y-86684900D01*
X117769173Y-86754048D01*
X117797674Y-86821516D01*
X117824626Y-86885547D01*
X117849286Y-86944384D01*
X117870910Y-86996270D01*
X117888754Y-87039445D01*
X117902074Y-87072153D01*
X117910127Y-87092637D01*
X117912257Y-87099165D01*
X117904104Y-87096727D01*
X117883667Y-87088234D01*
X117853916Y-87074981D01*
X117817823Y-87058260D01*
X117813105Y-87056033D01*
X117662576Y-86991150D01*
X117514127Y-86939608D01*
X117368808Y-86901559D01*
X117227671Y-86877158D01*
X117091766Y-86866559D01*
X116962142Y-86869914D01*
X116839851Y-86887377D01*
X116773045Y-86903930D01*
X116667216Y-86942650D01*
X116572093Y-86993849D01*
X116487959Y-87056663D01*
X116415094Y-87130228D01*
X116353781Y-87213678D01*
X116304300Y-87306151D01*
X116266933Y-87406780D01*
X116241961Y-87514703D01*
X116229666Y-87629054D01*
X116230330Y-87748969D01*
X116244233Y-87873584D01*
X116271658Y-88002034D01*
X116312885Y-88133455D01*
X116345673Y-88216453D01*
X116419910Y-88369493D01*
X116510164Y-88518610D01*
X116615869Y-88663326D01*
X116736463Y-88803161D01*
X116871382Y-88937636D01*
X117020062Y-89066273D01*
X117181939Y-89188593D01*
X117356450Y-89304116D01*
X117543031Y-89412365D01*
X117741118Y-89512860D01*
X117950149Y-89605122D01*
X118007412Y-89628173D01*
X118187891Y-89694861D01*
X118378293Y-89756299D01*
X118579257Y-89812598D01*
X118791422Y-89863868D01*
X119015426Y-89910219D01*
X119251908Y-89951762D01*
X119501505Y-89988608D01*
X119764857Y-90020866D01*
X120042602Y-90048648D01*
X120335378Y-90072064D01*
X120643824Y-90091224D01*
X120700999Y-90094226D01*
X120779874Y-90098130D01*
X120857689Y-90101700D01*
X120935455Y-90104949D01*
X121014185Y-90107891D01*
X121094892Y-90110539D01*
X121178588Y-90112908D01*
X121266285Y-90115011D01*
X121358997Y-90116861D01*
X121457736Y-90118472D01*
X121563514Y-90119858D01*
X121677343Y-90121032D01*
X121800236Y-90122008D01*
X121933206Y-90122800D01*
X122077265Y-90123421D01*
X122233426Y-90123884D01*
X122402700Y-90124204D01*
X122586101Y-90124394D01*
X122784642Y-90124468D01*
X122948899Y-90124454D01*
X123166176Y-90124457D01*
X123367325Y-90124588D01*
X123553155Y-90124857D01*
X123724470Y-90125272D01*
X123882077Y-90125845D01*
X124026783Y-90126584D01*
X124159393Y-90127500D01*
X124280715Y-90128603D01*
X124391553Y-90129902D01*
X124492716Y-90131407D01*
X124585008Y-90133128D01*
X124669236Y-90135074D01*
X124746207Y-90137256D01*
X124816726Y-90139684D01*
X124881600Y-90142367D01*
X124941636Y-90145315D01*
X124997638Y-90148538D01*
X125014766Y-90149624D01*
X125067991Y-90153007D01*
X125123318Y-90156409D01*
X125174765Y-90159467D01*
X125216351Y-90161821D01*
X125222199Y-90162136D01*
X125302633Y-90166411D01*
X126566418Y-89858715D01*
X126709325Y-89823901D01*
X126847735Y-89790143D01*
X126980754Y-89757661D01*
X127107490Y-89726675D01*
X127227050Y-89697403D01*
X127338542Y-89670066D01*
X127441073Y-89644882D01*
X127533751Y-89622073D01*
X127615682Y-89601856D01*
X127685975Y-89584452D01*
X127743735Y-89570081D01*
X127788072Y-89558961D01*
X127818092Y-89551312D01*
X127832902Y-89547355D01*
X127834365Y-89546857D01*
X127831525Y-89538722D01*
X127820355Y-89520622D01*
X127802991Y-89495906D01*
X127795361Y-89485672D01*
X127776170Y-89459415D01*
X127762267Y-89438631D01*
X127755820Y-89426635D01*
X127755763Y-89425081D01*
X127765377Y-89424443D01*
X127786374Y-89426570D01*
X127805216Y-89429486D01*
X127835677Y-89433601D01*
X127879089Y-89437904D01*
X127931549Y-89442159D01*
X127989159Y-89446131D01*
X128048016Y-89449582D01*
X128104220Y-89452279D01*
X128153869Y-89453983D01*
X128193064Y-89454461D01*
X128210880Y-89454013D01*
X128240554Y-89452028D01*
X128257528Y-89448719D01*
X128266026Y-89442106D01*
X128270269Y-89430210D01*
X128271262Y-89425700D01*
X128276663Y-89400300D01*
X128277664Y-89427817D01*
X128278666Y-89455333D01*
X128696229Y-89455333D01*
X128793675Y-89455269D01*
X128875698Y-89455048D01*
X128943811Y-89454625D01*
X128999525Y-89453957D01*
X129044350Y-89452999D01*
X129079798Y-89451707D01*
X129107380Y-89450038D01*
X129128607Y-89447947D01*
X129144991Y-89445391D01*
X129158043Y-89442325D01*
X129159779Y-89441826D01*
X129235153Y-89412182D01*
X129304078Y-89370362D01*
X129363300Y-89318728D01*
X129408664Y-89261078D01*
X129438102Y-89206152D01*
X129456610Y-89149873D01*
X129465696Y-89086739D01*
X129467222Y-89047246D01*
X129468049Y-88965126D01*
X129348674Y-88789013D01*
X129314799Y-88738698D01*
X129283226Y-88691166D01*
X129255499Y-88648792D01*
X129233164Y-88613952D01*
X129217766Y-88589023D01*
X129211903Y-88578667D01*
X129194508Y-88544434D01*
X129318670Y-88534294D01*
X129464080Y-88516024D01*
X129599587Y-88485909D01*
X129724419Y-88444211D01*
X129837800Y-88391193D01*
X129876504Y-88366676D01*
X119659502Y-88366676D01*
X119658746Y-88379481D01*
X119656660Y-88406802D01*
X119653441Y-88446293D01*
X119649283Y-88495607D01*
X119644381Y-88552396D01*
X119638931Y-88614313D01*
X119638335Y-88621016D01*
X119632870Y-88682651D01*
X119627932Y-88738782D01*
X119623712Y-88787197D01*
X119620403Y-88825685D01*
X119618195Y-88852034D01*
X119617280Y-88864031D01*
X119617266Y-88864433D01*
X119617144Y-88867005D01*
X119615536Y-88868885D01*
X119610577Y-88869989D01*
X119600402Y-88870233D01*
X119583148Y-88869532D01*
X119556949Y-88867802D01*
X119519941Y-88864960D01*
X119470261Y-88860920D01*
X119406042Y-88855598D01*
X119387159Y-88854029D01*
X119295788Y-88846324D01*
X119215454Y-88839162D01*
X119143856Y-88832141D01*
X119078697Y-88824861D01*
X119017678Y-88816918D01*
X118958501Y-88807912D01*
X118898866Y-88797440D01*
X118836475Y-88785100D01*
X118769030Y-88770492D01*
X118694231Y-88753212D01*
X118609781Y-88732860D01*
X118513380Y-88709032D01*
X118410766Y-88683347D01*
X118321998Y-88661011D01*
X118247798Y-88642180D01*
X118186296Y-88626286D01*
X118135623Y-88612763D01*
X118093911Y-88601043D01*
X118059291Y-88590561D01*
X118029893Y-88580748D01*
X118003847Y-88571039D01*
X117979287Y-88560867D01*
X117954341Y-88549664D01*
X117927141Y-88536864D01*
X117926103Y-88536370D01*
X117781624Y-88461865D01*
X117651624Y-88383027D01*
X117536521Y-88300199D01*
X117436732Y-88213725D01*
X117352676Y-88123948D01*
X117284771Y-88031211D01*
X117260057Y-87989450D01*
X117242850Y-87955489D01*
X117226101Y-87917905D01*
X117211547Y-87881140D01*
X117200921Y-87849636D01*
X117195959Y-87827834D01*
X117195799Y-87824970D01*
X117203338Y-87820591D01*
X117225867Y-87823789D01*
X117263259Y-87834514D01*
X117315385Y-87852718D01*
X117382117Y-87878352D01*
X117463327Y-87911367D01*
X117558887Y-87951714D01*
X117668667Y-87999344D01*
X117767299Y-88042950D01*
X117888032Y-88096479D01*
X117994826Y-88143241D01*
X118089059Y-88183698D01*
X118172105Y-88218311D01*
X118245341Y-88247540D01*
X118310142Y-88271847D01*
X118367884Y-88291693D01*
X118419942Y-88307539D01*
X118467692Y-88319845D01*
X118512510Y-88329074D01*
X118555772Y-88335685D01*
X118598853Y-88340141D01*
X118643129Y-88342902D01*
X118664766Y-88343746D01*
X118712027Y-88345115D01*
X118748084Y-88345229D01*
X118778070Y-88343491D01*
X118807118Y-88339304D01*
X118840360Y-88332073D01*
X118882930Y-88321202D01*
X118901833Y-88316200D01*
X118982451Y-88296733D01*
X119053121Y-88284572D01*
X119119090Y-88279558D01*
X119185607Y-88281530D01*
X119257922Y-88290327D01*
X119328339Y-88303146D01*
X119383910Y-88313594D01*
X119443905Y-88323632D01*
X119501770Y-88332236D01*
X119550953Y-88338381D01*
X119559055Y-88339214D01*
X119601691Y-88343596D01*
X119630240Y-88347346D01*
X119647492Y-88351226D01*
X119656237Y-88356000D01*
X119659263Y-88362429D01*
X119659502Y-88366676D01*
X129876504Y-88366676D01*
X129938957Y-88327116D01*
X129947126Y-88321049D01*
X130000560Y-88280854D01*
X130077296Y-88331327D01*
X130198773Y-88403724D01*
X130323487Y-88463687D01*
X130449392Y-88510535D01*
X130574440Y-88543587D01*
X130696585Y-88562161D01*
X130782983Y-88566186D01*
X130891959Y-88559966D01*
X130989540Y-88541567D01*
X131076215Y-88510878D01*
X131121542Y-88487484D01*
X131135814Y-88479926D01*
X131149137Y-88476123D01*
X131164927Y-88476547D01*
X131186601Y-88481669D01*
X131217574Y-88491963D01*
X131256481Y-88506132D01*
X131326004Y-88529046D01*
X131393996Y-88545199D01*
X131465352Y-88555360D01*
X131544969Y-88560299D01*
X131606066Y-88561067D01*
X131668330Y-88560198D01*
X131719035Y-88557653D01*
X131763513Y-88552967D01*
X131807094Y-88545672D01*
X131825983Y-88541810D01*
X131953613Y-88507106D01*
X132070495Y-88459760D01*
X132176228Y-88399948D01*
X132220791Y-88368463D01*
X132269754Y-88331446D01*
X132309488Y-88355895D01*
X132387681Y-88399035D01*
X132478036Y-88440432D01*
X132575782Y-88478228D01*
X132676147Y-88510563D01*
X132766213Y-88533785D01*
X132801652Y-88541203D01*
X132834006Y-88546517D01*
X132867294Y-88550040D01*
X132905533Y-88552088D01*
X132952743Y-88552976D01*
X133011533Y-88553025D01*
X133068232Y-88552640D01*
X133111557Y-88551745D01*
X133145065Y-88549975D01*
X133172317Y-88546967D01*
X133196868Y-88542359D01*
X133222279Y-88535787D01*
X133244366Y-88529252D01*
X133318047Y-88502590D01*
X133387664Y-88469352D01*
X133447653Y-88432303D01*
X133463550Y-88420378D01*
X133488564Y-88403804D01*
X133504366Y-88400860D01*
X133506503Y-88402013D01*
X133556767Y-88436151D01*
X133612022Y-88464592D01*
X133675484Y-88488610D01*
X133750368Y-88509481D01*
X133811713Y-88522982D01*
X133915854Y-88540870D01*
X134029997Y-88554934D01*
X134150841Y-88565113D01*
X134275082Y-88571348D01*
X134399415Y-88573578D01*
X134520536Y-88571744D01*
X134635144Y-88565786D01*
X134739932Y-88555643D01*
X134830361Y-88541498D01*
X134868395Y-88533617D01*
X134902491Y-88525755D01*
X134927616Y-88519108D01*
X134935547Y-88516497D01*
X134948960Y-88513249D01*
X134965816Y-88513882D01*
X134989656Y-88519036D01*
X135024020Y-88529355D01*
X135045614Y-88536437D01*
X135158354Y-88566803D01*
X135275063Y-88584807D01*
X135392572Y-88590446D01*
X135507708Y-88583717D01*
X135617302Y-88564619D01*
X135708314Y-88536951D01*
X135763128Y-88513997D01*
X135809172Y-88488695D01*
X135854471Y-88456524D01*
X135863175Y-88449646D01*
X135899650Y-88420460D01*
X135985942Y-88454538D01*
X136095328Y-88494940D01*
X136195664Y-88525646D01*
X136291141Y-88547511D01*
X136385948Y-88561392D01*
X136484278Y-88568147D01*
X136546366Y-88569136D01*
X136651019Y-88565546D01*
X136743967Y-88554268D01*
X136829109Y-88534188D01*
X136910346Y-88504194D01*
X136991576Y-88463173D01*
X137056189Y-88423622D01*
X137151145Y-88361677D01*
X137224757Y-88410155D01*
X137321621Y-88468194D01*
X137413791Y-88511256D01*
X137503115Y-88539982D01*
X137591443Y-88555013D01*
X137650504Y-88557742D01*
X137717006Y-88554816D01*
X137779330Y-88545431D01*
X137843353Y-88528353D01*
X137914952Y-88502345D01*
X137915956Y-88501944D01*
X137990438Y-88472144D01*
X138072736Y-88505860D01*
X138229705Y-88561640D01*
X138395683Y-88604539D01*
X138568488Y-88634382D01*
X138745937Y-88650996D01*
X138925849Y-88654207D01*
X139106042Y-88643842D01*
X139284333Y-88619726D01*
X139348833Y-88607397D01*
X139506886Y-88568313D01*
X139660874Y-88517642D01*
X139808962Y-88456365D01*
X139949313Y-88385459D01*
X140080091Y-88305905D01*
X140199458Y-88218681D01*
X140305579Y-88124766D01*
X140359438Y-88068614D01*
X140452556Y-87954007D01*
X140529506Y-87835264D01*
X140590186Y-87712632D01*
X140634497Y-87586357D01*
X140662337Y-87456685D01*
X140671084Y-87353575D01*
X131371465Y-87353575D01*
X131330448Y-87419384D01*
X131313249Y-87446874D01*
X131300715Y-87464594D01*
X131291605Y-87471421D01*
X131284676Y-87466236D01*
X131278686Y-87447916D01*
X131272392Y-87415341D01*
X131264553Y-87367389D01*
X131263140Y-87358631D01*
X131259083Y-87335645D01*
X131254154Y-87313024D01*
X131247682Y-87288937D01*
X131238997Y-87261555D01*
X131232817Y-87244193D01*
X124252174Y-87244193D01*
X124250900Y-87285955D01*
X124248105Y-87321711D01*
X124243851Y-87348292D01*
X124238198Y-87362529D01*
X124235334Y-87364067D01*
X124225787Y-87360547D01*
X124206791Y-87351659D01*
X124196755Y-87346635D01*
X124166319Y-87324400D01*
X124163125Y-87319617D01*
X119422511Y-87319617D01*
X119419631Y-87328868D01*
X119410037Y-87326624D01*
X119392388Y-87312176D01*
X119374323Y-87294217D01*
X119335832Y-87248109D01*
X119294994Y-87187683D01*
X119252938Y-87115195D01*
X119210790Y-87032901D01*
X119169679Y-86943055D01*
X119130731Y-86847914D01*
X119095074Y-86749732D01*
X119081276Y-86707900D01*
X119066146Y-86658187D01*
X119052526Y-86608995D01*
X119041058Y-86563146D01*
X119032380Y-86523464D01*
X119027134Y-86492772D01*
X119025958Y-86473892D01*
X119027243Y-86469601D01*
X119037844Y-86470087D01*
X119056865Y-86480845D01*
X119081397Y-86499564D01*
X119108530Y-86523932D01*
X119135352Y-86551636D01*
X119146039Y-86563967D01*
X119197652Y-86631951D01*
X119249396Y-86711256D01*
X119298165Y-86796583D01*
X119340858Y-86882632D01*
X119363350Y-86935109D01*
X119373663Y-86962954D01*
X119381910Y-86990815D01*
X119388784Y-87022257D01*
X119394977Y-87060843D01*
X119401182Y-87110136D01*
X119406151Y-87155243D01*
X119411373Y-87204941D01*
X119415907Y-87249133D01*
X119419465Y-87284934D01*
X119421761Y-87309460D01*
X119422511Y-87319617D01*
X124163125Y-87319617D01*
X124151482Y-87302185D01*
X124144564Y-87284361D01*
X124133082Y-87253603D01*
X124117703Y-87211779D01*
X124099098Y-87160760D01*
X124077937Y-87102414D01*
X124054890Y-87038612D01*
X124030627Y-86971224D01*
X124005817Y-86902119D01*
X123981131Y-86833167D01*
X123957239Y-86766238D01*
X123934810Y-86703200D01*
X123914514Y-86645925D01*
X123897022Y-86596282D01*
X123883003Y-86556140D01*
X123873127Y-86527369D01*
X123868063Y-86511839D01*
X123867533Y-86509694D01*
X123869253Y-86502047D01*
X123874848Y-86502159D01*
X123884970Y-86510900D01*
X123900270Y-86529139D01*
X123921400Y-86557745D01*
X123949011Y-86597587D01*
X123983756Y-86649533D01*
X124026286Y-86714453D01*
X124059359Y-86765484D01*
X124104907Y-86836213D01*
X124141999Y-86894426D01*
X124171549Y-86941712D01*
X124194473Y-86979658D01*
X124211685Y-87009851D01*
X124224101Y-87033880D01*
X124232635Y-87053333D01*
X124238203Y-87069798D01*
X124240834Y-87080434D01*
X124246257Y-87114543D01*
X124249914Y-87155318D01*
X124251866Y-87199591D01*
X124252174Y-87244193D01*
X131232817Y-87244193D01*
X131227427Y-87229051D01*
X131212302Y-87189594D01*
X131192951Y-87141355D01*
X131168702Y-87082506D01*
X131138886Y-87011217D01*
X131114359Y-86952972D01*
X131085332Y-86883960D01*
X131058567Y-86819943D01*
X131034741Y-86762565D01*
X131014530Y-86713474D01*
X130998610Y-86674314D01*
X130987656Y-86646733D01*
X130982347Y-86632376D01*
X130981970Y-86630674D01*
X130990142Y-86632997D01*
X131009644Y-86641386D01*
X131036727Y-86654200D01*
X131045404Y-86658479D01*
X131123333Y-86706497D01*
X131190789Y-86767668D01*
X131247631Y-86841728D01*
X131293719Y-86928416D01*
X131328914Y-87027469D01*
X131353075Y-87138623D01*
X131365930Y-87259338D01*
X131371465Y-87353575D01*
X140671084Y-87353575D01*
X140673605Y-87323863D01*
X140673866Y-87300070D01*
X140667048Y-87169626D01*
X140646292Y-87041143D01*
X140611150Y-86913289D01*
X140561170Y-86784732D01*
X140495905Y-86654139D01*
X140414903Y-86520175D01*
X140406243Y-86507029D01*
X140332625Y-86405574D01*
X140252003Y-86313436D01*
X140162554Y-86229115D01*
X140062452Y-86151110D01*
X139949875Y-86077921D01*
X139822998Y-86008046D01*
X139764817Y-85979234D01*
X139695493Y-85947991D01*
X139620811Y-85918014D01*
X139543701Y-85890195D01*
X139467092Y-85865424D01*
X139393917Y-85844594D01*
X139327105Y-85828597D01*
X139269586Y-85818324D01*
X139224292Y-85814667D01*
X139224031Y-85814667D01*
X139203214Y-85813471D01*
X139191020Y-85810553D01*
X139190511Y-85810156D01*
X139193136Y-85801782D01*
X139203661Y-85782422D01*
X139220373Y-85755030D01*
X139239856Y-85725097D01*
X139313877Y-85600382D01*
X139371506Y-85472428D01*
X139412656Y-85341755D01*
X139437243Y-85208881D01*
X139445180Y-85074324D01*
X139436381Y-84938602D01*
X139410761Y-84802233D01*
X139399551Y-84760466D01*
X139362737Y-84656093D01*
X139311973Y-84548229D01*
X139249075Y-84439567D01*
X139175857Y-84332797D01*
X139094135Y-84230609D01*
X139005724Y-84135696D01*
X138932022Y-84067350D01*
X138775382Y-83943059D01*
X138609476Y-83832588D01*
X138435348Y-83736324D01*
X138254041Y-83654655D01*
X138066598Y-83587967D01*
X137874062Y-83536647D01*
X137677476Y-83501082D01*
X137477884Y-83481658D01*
X137342233Y-83477867D01*
X137151229Y-83485223D01*
D12*
X146186400Y-162458400D03*
X144186400Y-162458400D03*
D13*
X132372100Y-112404400D03*
X132372100Y-110404400D03*
D14*
X140838100Y-148869300D03*
X140838100Y-147269300D03*
X138638100Y-147269300D03*
X138638100Y-148869300D03*
D15*
X111660800Y-125219600D03*
X110710800Y-125219600D03*
X109760800Y-125219600D03*
X109760800Y-123019600D03*
X111660800Y-123019600D03*
D16*
X130055800Y-112283200D03*
X130055800Y-113233200D03*
X130055800Y-114183200D03*
X127855800Y-114183200D03*
X127855800Y-112283200D03*
D17*
X127857400Y-103045300D03*
X127857400Y-102095300D03*
X127857400Y-101145300D03*
X130257400Y-101145300D03*
X130257400Y-102095300D03*
X130257400Y-103045300D03*
D18*
X160135000Y-116637000D03*
X160135000Y-140513000D03*
D19*
X144895000Y-116637000D03*
X144895000Y-140513000D03*
D18*
X164135000Y-154737000D03*
X164135000Y-178613000D03*
D19*
X148895000Y-154737000D03*
X148895000Y-178613000D03*
D18*
X93015000Y-178613000D03*
X93015000Y-154737000D03*
D19*
X108255000Y-178613000D03*
X108255000Y-154737000D03*
D18*
X93015000Y-140513000D03*
X93015000Y-116637000D03*
D19*
X108255000Y-140513000D03*
X108255000Y-116637000D03*
D18*
X121463000Y-183185000D03*
X97587000Y-183185000D03*
D19*
X121463000Y-167945000D03*
X97587000Y-167945000D03*
D18*
X159563000Y-183185000D03*
X135687000Y-183185000D03*
D19*
X159563000Y-167945000D03*
X135687000Y-167945000D03*
D20*
X130500942Y-182308440D03*
X126800942Y-182308440D03*
X130500942Y-176108440D03*
X126800942Y-176108440D03*
D12*
X107143300Y-151091900D03*
X105143300Y-151091900D03*
D13*
X151650700Y-81251300D03*
X151650700Y-79251300D03*
X133426200Y-81187800D03*
X133426200Y-79187800D03*
X115087400Y-81251300D03*
X115087400Y-79251300D03*
X96240600Y-81264000D03*
X96240600Y-79264000D03*
X153073100Y-105216200D03*
X153073100Y-103216200D03*
X96075500Y-105025700D03*
X96075500Y-103025700D03*
D12*
X155750000Y-89000000D03*
X153750000Y-89000000D03*
X160750000Y-89000000D03*
X158750000Y-89000000D03*
X116868700Y-127901700D03*
X118868700Y-127901700D03*
D13*
X148501100Y-162658300D03*
X148501100Y-160658300D03*
D12*
X130356942Y-173289040D03*
X128356942Y-173289040D03*
D13*
X94450074Y-149033608D03*
X94450074Y-147033608D03*
X118706900Y-111000000D03*
X118706900Y-109000000D03*
X121069100Y-109000000D03*
X121069100Y-111000000D03*
X128016000Y-106500000D03*
X128016000Y-108500000D03*
X130365500Y-106500000D03*
X130365500Y-108500000D03*
X100126974Y-149024208D03*
X100126974Y-147024208D03*
D21*
X146392900Y-128651000D03*
X146392900Y-127381000D03*
X145122900Y-128651000D03*
X145122900Y-127381000D03*
X143852900Y-128651000D03*
X143852900Y-127381000D03*
D22*
X147662900Y-128016000D03*
D23*
X142582900Y-127000000D03*
X142582900Y-129032000D03*
D24*
X147662900Y-125476000D03*
D25*
X144487900Y-125476000D03*
X147535900Y-130556000D03*
X144487900Y-130556000D03*
D26*
X127275000Y-72725000D03*
X127925000Y-72725000D03*
X128575000Y-72725000D03*
X129225000Y-72725000D03*
X129875000Y-72725000D03*
D27*
X125675000Y-72900000D03*
D28*
X131300000Y-70325000D03*
D27*
X131475000Y-72900000D03*
D29*
X131562500Y-71600000D03*
X125587500Y-71600000D03*
D28*
X125850000Y-70325000D03*
D30*
X131300000Y-69900000D03*
X125850000Y-69900000D03*
D31*
X129537500Y-69650000D03*
X127612500Y-69650000D03*
D32*
X131000000Y-72900000D03*
X126150000Y-72900000D03*
D26*
X127275000Y-96537500D03*
X127925000Y-96537500D03*
X128575000Y-96537500D03*
X129225000Y-96537500D03*
X129875000Y-96537500D03*
D27*
X125675000Y-96712500D03*
D28*
X131300000Y-94137500D03*
D27*
X131475000Y-96712500D03*
D29*
X131562500Y-95412500D03*
X125587500Y-95412500D03*
D28*
X125850000Y-94137500D03*
D30*
X131300000Y-93712500D03*
X125850000Y-93712500D03*
D31*
X129537500Y-93462500D03*
X127612500Y-93462500D03*
D32*
X131000000Y-96712500D03*
X126150000Y-96712500D03*
D33*
X109288580Y-151079200D03*
X111386620Y-151079200D03*
D34*
X158420000Y-81267500D03*
D35*
X155880000Y-81267500D03*
D34*
X139370000Y-81267500D03*
D35*
X136830000Y-81267500D03*
D34*
X120320000Y-81267500D03*
D35*
X117780000Y-81267500D03*
D36*
X144400000Y-106948000D03*
X144400000Y-112102000D03*
X147600000Y-112102000D03*
X147600000Y-106948000D03*
D37*
X113577000Y-107925000D03*
X108423000Y-107925000D03*
X108423000Y-111125000D03*
X113577000Y-111125000D03*
D36*
X113600000Y-169252000D03*
X113600000Y-164098000D03*
X110400000Y-164098000D03*
X110400000Y-169252000D03*
D37*
X143423000Y-168275000D03*
X148577000Y-168275000D03*
X148577000Y-165075000D03*
X143423000Y-165075000D03*
D34*
X162230000Y-165405000D03*
D35*
X162230000Y-167945000D03*
D34*
X148895000Y-181280000D03*
D35*
X146355000Y-181280000D03*
D34*
X158420000Y-181280000D03*
D35*
X155880000Y-181280000D03*
D34*
X139370000Y-181280000D03*
D35*
X136830000Y-181280000D03*
D34*
X120320000Y-181280000D03*
D35*
X117780000Y-181280000D03*
D34*
X105080000Y-165405000D03*
D35*
X105080000Y-167945000D03*
D34*
X110795000Y-181280000D03*
D35*
X108255000Y-181280000D03*
D34*
X101270000Y-181280000D03*
D35*
X98730000Y-181280000D03*
D34*
X158420000Y-162230000D03*
D35*
X155880000Y-162230000D03*
D34*
X139370000Y-162230000D03*
D35*
X136830000Y-162230000D03*
D34*
X120320000Y-162230000D03*
D35*
X117780000Y-162230000D03*
D34*
X101270000Y-162230000D03*
D35*
X98730000Y-162230000D03*
D34*
X162230000Y-127305000D03*
D35*
X162230000Y-129845000D03*
D34*
X158420000Y-143180000D03*
D35*
X155880000Y-143180000D03*
D34*
X139370000Y-143180000D03*
D35*
X136830000Y-143180000D03*
D34*
X120320000Y-143180000D03*
D35*
X117780000Y-143180000D03*
D34*
X105080000Y-127305000D03*
D35*
X105080000Y-129845000D03*
D34*
X101270000Y-143180000D03*
D35*
X98730000Y-143180000D03*
D34*
X158420000Y-124130000D03*
D35*
X155880000Y-124130000D03*
D34*
X139370000Y-124130000D03*
D35*
X136830000Y-124130000D03*
D34*
X120320000Y-124130000D03*
D35*
X117780000Y-124130000D03*
D34*
X101270000Y-124130000D03*
D35*
X98730000Y-124130000D03*
D34*
X139370000Y-105080000D03*
D35*
X136830000Y-105080000D03*
D34*
X120320000Y-105080000D03*
D35*
X117780000Y-105080000D03*
D38*
X114047000Y-129781300D03*
X110997000Y-129781300D03*
X140628100Y-109956600D03*
X137578100Y-109956600D03*
D10*
G36*
X97193274Y-147188958D02*
X98099674Y-146688958D01*
X98099674Y-148095458D01*
X97193274Y-147595458D01*
X97193274Y-147188958D01*
X97193274Y-147188958D01*
G37*
D39*
X97396474Y-148532208D03*
D10*
G36*
X97396474Y-147244915D02*
X98183767Y-148032208D01*
X97396474Y-148819501D01*
X96609181Y-148032208D01*
X97396474Y-147244915D01*
X97396474Y-147244915D01*
G37*
G36*
X97599674Y-147595458D02*
X96693274Y-148095458D01*
X96693274Y-146688958D01*
X97599674Y-147188958D01*
X97599674Y-147595458D01*
X97599674Y-147595458D01*
G37*
D40*
X97396474Y-147142208D03*
D41*
X163169600Y-70243700D03*
X93878400Y-70104000D03*
X162966400Y-182194200D03*
X94081600Y-182219600D03*
D42*
X134061200Y-103388160D03*
X134061200Y-107558840D03*
D43*
X164223700Y-173774100D03*
X160723580Y-173774100D03*
D44*
X142087600Y-182245000D03*
X142087600Y-178744880D03*
X122161300Y-178041300D03*
X122161300Y-174541180D03*
X104013000Y-182054500D03*
X104013000Y-178554380D03*
X160312100Y-158952600D03*
X160312100Y-155452480D03*
X141211300Y-158952600D03*
X141211300Y-155452480D03*
X122174000Y-158952600D03*
X122174000Y-155452480D03*
X103111300Y-158952600D03*
X103111300Y-155452480D03*
X162928300Y-135813800D03*
X162928300Y-132313680D03*
X141224000Y-139752600D03*
X141224000Y-136252480D03*
X122148600Y-139752600D03*
X122148600Y-136252480D03*
X103111300Y-139752600D03*
X103111300Y-136252480D03*
X161493200Y-124891800D03*
X161493200Y-121391680D03*
X141236700Y-120952600D03*
X141236700Y-117452480D03*
X122148600Y-120952600D03*
X122148600Y-117452480D03*
X103047800Y-120952600D03*
X103047800Y-117452480D03*
X160223200Y-101752600D03*
X160223200Y-98252480D03*
X141160500Y-101752600D03*
X141160500Y-98252480D03*
X122148600Y-101752600D03*
X122148600Y-98252480D03*
X103060500Y-101752600D03*
X103060500Y-98252480D03*
X160299400Y-77952600D03*
X160299400Y-74452480D03*
X141185900Y-77952600D03*
X141185900Y-74452480D03*
X122135900Y-77952600D03*
X122135900Y-74452480D03*
X103124000Y-77952600D03*
X103124000Y-74452480D03*
X125539500Y-114020600D03*
X125539500Y-110520480D03*
D13*
X150190200Y-108461300D03*
X150190200Y-110461300D03*
D12*
X112366300Y-113639600D03*
X110366300Y-113639600D03*
D13*
X117297200Y-165598600D03*
X117297200Y-167598600D03*
D12*
X153750000Y-86500000D03*
X155750000Y-86500000D03*
X160750000Y-86500000D03*
X158750000Y-86500000D03*
X127000000Y-135534400D03*
X125000000Y-135534400D03*
D13*
X108419900Y-130438400D03*
X108419900Y-128438400D03*
X107632500Y-122050300D03*
X107632500Y-124050300D03*
D12*
X131632200Y-116840000D03*
X129632200Y-116840000D03*
X143000000Y-148475700D03*
X145000000Y-148475700D03*
X143000000Y-146151600D03*
X145000000Y-146151600D03*
X125500000Y-105905300D03*
X123500000Y-105905300D03*
D13*
X118770400Y-147304000D03*
X118770400Y-145304000D03*
D12*
X127000000Y-130581400D03*
X125000000Y-130581400D03*
X126762000Y-156070300D03*
X128762000Y-156070300D03*
X143000000Y-150787100D03*
X145000000Y-150787100D03*
X127000000Y-133007100D03*
X125000000Y-133007100D03*
X125500000Y-108254800D03*
X123500000Y-108254800D03*
D34*
X101270000Y-105080000D03*
D35*
X98730000Y-105080000D03*
D34*
X158420000Y-105080000D03*
D35*
X155880000Y-105080000D03*
D34*
X101270000Y-81267500D03*
D35*
X98730000Y-81267500D03*
D45*
X124960124Y-143019524D02*
X123904046Y-141963446D01*
X125525880Y-142453768D02*
X124469802Y-141397690D01*
X126091636Y-141888011D02*
X125035558Y-140831933D01*
X126657392Y-141322255D02*
X125601314Y-140266177D01*
X127223148Y-140756499D02*
X126167070Y-139700421D01*
X127788904Y-140190743D02*
X126732826Y-139134665D01*
X124394368Y-143585280D02*
X123338290Y-142529202D01*
X123828611Y-144151036D02*
X122772533Y-143094958D01*
X123262855Y-144716792D02*
X122206777Y-143660714D01*
X122697099Y-145282548D02*
X121641021Y-144226470D01*
X122131343Y-145848304D02*
X121075265Y-144792226D01*
X133042354Y-151101754D02*
X131986276Y-150045676D01*
X133608110Y-150535998D02*
X132552032Y-149479920D01*
X134173867Y-149970242D02*
X133117789Y-148914164D01*
X134739623Y-149404486D02*
X133683545Y-148348408D01*
X135305379Y-148838730D02*
X134249301Y-147782652D01*
X135871135Y-148272974D02*
X134815057Y-147216896D01*
X132476598Y-151667510D02*
X131420520Y-150611432D01*
X131910842Y-152233267D02*
X130854764Y-151177189D01*
X131345086Y-152799023D02*
X130289008Y-151742945D01*
X130779330Y-153364779D02*
X129723252Y-152308701D01*
X130213574Y-153930535D02*
X129157496Y-152874457D01*
X133042354Y-141963446D02*
X131986276Y-143019524D01*
X124960124Y-150045676D02*
X123904046Y-151101754D01*
X133608110Y-142529202D02*
X132552032Y-143585280D01*
X125525880Y-150611432D02*
X124469802Y-151667510D01*
X126091636Y-151177189D02*
X125035558Y-152233267D01*
X134173867Y-143094958D02*
X133117789Y-144151036D01*
X134739623Y-143660714D02*
X133683545Y-144716792D01*
X126657392Y-151742945D02*
X125601314Y-152799023D01*
X127223148Y-152308701D02*
X126167070Y-153364779D01*
X135305379Y-144226470D02*
X134249301Y-145282548D01*
X135871135Y-144792226D02*
X134815057Y-145848304D01*
X127788904Y-152874457D02*
X126732826Y-153930535D01*
X124394368Y-149479920D02*
X123338290Y-150535998D01*
X132476598Y-141397690D02*
X131420520Y-142453768D01*
X131910842Y-140831933D02*
X130854764Y-141888011D01*
X123828611Y-148914164D02*
X122772533Y-149970242D01*
X123262855Y-148348408D02*
X122206777Y-149404486D01*
X131345086Y-140266177D02*
X130289008Y-141322255D01*
X130779330Y-139700421D02*
X129723252Y-140756499D01*
X122697099Y-147782652D02*
X121641021Y-148838730D01*
X122131343Y-147216896D02*
X121075265Y-148272974D01*
X130213574Y-139134665D02*
X129157496Y-140190743D01*
D46*
X138100000Y-119050000D03*
D47*
X133020000Y-119050000D03*
X143180000Y-119050000D03*
D48*
X134182000Y-116510000D03*
X135492000Y-115050000D03*
X140533000Y-113970000D03*
X140493000Y-114550000D03*
D46*
X157150000Y-166675000D03*
D47*
X157150000Y-171755000D03*
X157150000Y-161595000D03*
D48*
X154610000Y-170593000D03*
X153150000Y-169283000D03*
X152070000Y-164242000D03*
X152650000Y-164282000D03*
D46*
X147625000Y-176200000D03*
D47*
X142545000Y-176200000D03*
X152705000Y-176200000D03*
D48*
X143707000Y-173660000D03*
X145017000Y-172200000D03*
X150058000Y-171120000D03*
X150018000Y-171700000D03*
D46*
X157150000Y-176200000D03*
D47*
X152070000Y-176200000D03*
X162230000Y-176200000D03*
D48*
X153232000Y-173660000D03*
X154542000Y-172200000D03*
X159583000Y-171120000D03*
X159543000Y-171700000D03*
D46*
X138100000Y-176200000D03*
D47*
X133020000Y-176200000D03*
X143180000Y-176200000D03*
D48*
X134182000Y-173660000D03*
X135492000Y-172200000D03*
X140533000Y-171120000D03*
X140493000Y-171700000D03*
D46*
X119050000Y-176200000D03*
D47*
X113970000Y-176200000D03*
X124130000Y-176200000D03*
D48*
X115132000Y-173660000D03*
X116442000Y-172200000D03*
X121483000Y-171120000D03*
X121443000Y-171700000D03*
D46*
X100000000Y-166675000D03*
D47*
X100000000Y-171755000D03*
X100000000Y-161595000D03*
D48*
X97460000Y-170593000D03*
X96000000Y-169283000D03*
X94920000Y-164242000D03*
X95500000Y-164282000D03*
D46*
X109525000Y-176200000D03*
D47*
X104445000Y-176200000D03*
X114605000Y-176200000D03*
D48*
X105607000Y-173660000D03*
X106917000Y-172200000D03*
X111958000Y-171120000D03*
X111918000Y-171700000D03*
D46*
X100000000Y-176200000D03*
D47*
X94920000Y-176200000D03*
X105080000Y-176200000D03*
D48*
X96082000Y-173660000D03*
X97392000Y-172200000D03*
X102433000Y-171120000D03*
X102393000Y-171700000D03*
D46*
X157150000Y-157150000D03*
D47*
X152070000Y-157150000D03*
X162230000Y-157150000D03*
D48*
X153232000Y-154610000D03*
X154542000Y-153150000D03*
X159583000Y-152070000D03*
X159543000Y-152650000D03*
D46*
X138100000Y-157150000D03*
D47*
X133020000Y-157150000D03*
X143180000Y-157150000D03*
D48*
X134182000Y-154610000D03*
X135492000Y-153150000D03*
X140533000Y-152070000D03*
X140493000Y-152650000D03*
D46*
X119050000Y-157150000D03*
D47*
X113970000Y-157150000D03*
X124130000Y-157150000D03*
D48*
X115132000Y-154610000D03*
X116442000Y-153150000D03*
X121483000Y-152070000D03*
X121443000Y-152650000D03*
D46*
X100000000Y-157150000D03*
D47*
X94920000Y-157150000D03*
X105080000Y-157150000D03*
D48*
X96082000Y-154610000D03*
X97392000Y-153150000D03*
X102433000Y-152070000D03*
X102393000Y-152650000D03*
D46*
X157150000Y-128575000D03*
D47*
X157150000Y-133655000D03*
X157150000Y-123495000D03*
D48*
X154610000Y-132493000D03*
X153150000Y-131183000D03*
X152070000Y-126142000D03*
X152650000Y-126182000D03*
D46*
X157150000Y-138100000D03*
D47*
X152070000Y-138100000D03*
X162230000Y-138100000D03*
D48*
X153232000Y-135560000D03*
X154542000Y-134100000D03*
X159583000Y-133020000D03*
X159543000Y-133600000D03*
D46*
X138100000Y-138100000D03*
D47*
X133020000Y-138100000D03*
X143180000Y-138100000D03*
D48*
X134182000Y-135560000D03*
X135492000Y-134100000D03*
X140533000Y-133020000D03*
X140493000Y-133600000D03*
D46*
X119050000Y-138100000D03*
D47*
X113970000Y-138100000D03*
X124130000Y-138100000D03*
D48*
X115132000Y-135560000D03*
X116442000Y-134100000D03*
X121483000Y-133020000D03*
X121443000Y-133600000D03*
D46*
X100000000Y-128575000D03*
D47*
X100000000Y-133655000D03*
X100000000Y-123495000D03*
D48*
X97460000Y-132493000D03*
X96000000Y-131183000D03*
X94920000Y-126142000D03*
X95500000Y-126182000D03*
D46*
X100000000Y-138100000D03*
D47*
X94920000Y-138100000D03*
X105080000Y-138100000D03*
D48*
X96082000Y-135560000D03*
X97392000Y-134100000D03*
X102433000Y-133020000D03*
X102393000Y-133600000D03*
D46*
X157150000Y-119050000D03*
D47*
X152070000Y-119050000D03*
X162230000Y-119050000D03*
D48*
X153232000Y-116510000D03*
X154542000Y-115050000D03*
X159583000Y-113970000D03*
X159543000Y-114550000D03*
D46*
X119050000Y-119050000D03*
D47*
X113970000Y-119050000D03*
X124130000Y-119050000D03*
D48*
X115132000Y-116510000D03*
X116442000Y-115050000D03*
X121483000Y-113970000D03*
X121443000Y-114550000D03*
D46*
X100000000Y-119050000D03*
D47*
X94920000Y-119050000D03*
X105080000Y-119050000D03*
D48*
X96082000Y-116510000D03*
X97392000Y-115050000D03*
X102433000Y-113970000D03*
X102393000Y-114550000D03*
D46*
X157150000Y-100000000D03*
D47*
X152070000Y-100000000D03*
X162230000Y-100000000D03*
D48*
X153232000Y-97460000D03*
X154542000Y-96000000D03*
X159583000Y-94920000D03*
X159543000Y-95500000D03*
D46*
X138100000Y-100000000D03*
D47*
X133020000Y-100000000D03*
X143180000Y-100000000D03*
D48*
X134182000Y-97460000D03*
X135492000Y-96000000D03*
X140533000Y-94920000D03*
X140493000Y-95500000D03*
D46*
X119050000Y-100000000D03*
D47*
X113970000Y-100000000D03*
X124130000Y-100000000D03*
D48*
X115132000Y-97460000D03*
X116442000Y-96000000D03*
X121483000Y-94920000D03*
X121443000Y-95500000D03*
D46*
X100000000Y-100000000D03*
D47*
X94920000Y-100000000D03*
X105080000Y-100000000D03*
D48*
X96082000Y-97460000D03*
X97392000Y-96000000D03*
X102433000Y-94920000D03*
X102393000Y-95500000D03*
D46*
X157150000Y-76187500D03*
D47*
X152070000Y-76187500D03*
X162230000Y-76187500D03*
D48*
X153232000Y-73647500D03*
X154542000Y-72187500D03*
X159583000Y-71107500D03*
X159543000Y-71687500D03*
D46*
X138100000Y-76187500D03*
D47*
X133020000Y-76187500D03*
X143180000Y-76187500D03*
D48*
X134182000Y-73647500D03*
X135492000Y-72187500D03*
X140533000Y-71107500D03*
X140493000Y-71687500D03*
D46*
X119050000Y-76187500D03*
D47*
X113970000Y-76187500D03*
X124130000Y-76187500D03*
D48*
X115132000Y-73647500D03*
X116442000Y-72187500D03*
X121483000Y-71107500D03*
X121443000Y-71687500D03*
D46*
X100000000Y-76187500D03*
D47*
X94920000Y-76187500D03*
X105080000Y-76187500D03*
D48*
X96082000Y-73647500D03*
X97392000Y-72187500D03*
X102433000Y-71107500D03*
X102393000Y-71687500D03*
D49*
X128575000Y-91700000D03*
D10*
G36*
X128422400Y-171368282D02*
X126367265Y-169313147D01*
X128422400Y-167258012D01*
X130477535Y-169313147D01*
X128422400Y-171368282D01*
X128422400Y-171368282D01*
G37*
G36*
X133372147Y-166418535D02*
X131317012Y-164363400D01*
X133372147Y-162308265D01*
X135427282Y-164363400D01*
X133372147Y-166418535D01*
X133372147Y-166418535D01*
G37*
G36*
X128422400Y-161468788D02*
X126367265Y-159413653D01*
X128422400Y-157358518D01*
X130477535Y-159413653D01*
X128422400Y-161468788D01*
X128422400Y-161468788D01*
G37*
G36*
X123472653Y-166418535D02*
X121417518Y-164363400D01*
X123472653Y-162308265D01*
X125527788Y-164363400D01*
X123472653Y-166418535D01*
X123472653Y-166418535D01*
G37*
D13*
X139090400Y-167027100D03*
X139090400Y-165027100D03*
D12*
X117878100Y-149987000D03*
X115878100Y-149987000D03*
D48*
X162750000Y-76187500D03*
X151550000Y-76187500D03*
D50*
X157150000Y-83687500D03*
X154650000Y-83687500D03*
X159650000Y-83687500D03*
D10*
G36*
X110277646Y-102406263D02*
X108768963Y-103914946D01*
X107044754Y-102190737D01*
X108553437Y-100682054D01*
X110277646Y-102406263D01*
X110277646Y-102406263D01*
G37*
D51*
X106972912Y-104202314D02*
X106757386Y-103986788D01*
X105176861Y-105998365D02*
X104961335Y-105782839D01*
X103380809Y-107794417D02*
X103165283Y-107578891D01*
X101584758Y-109590468D02*
X101369232Y-109374942D01*
X99788707Y-111386519D02*
X99573181Y-111170993D01*
D52*
X150596600Y-148043900D03*
D53*
X153136600Y-148043900D03*
X155676600Y-148043900D03*
X158216600Y-148043900D03*
X160756600Y-148043900D03*
X163296600Y-148043900D03*
M02*
