G04 #@! TF.FileFunction,Profile,NP*
%FSLAX46Y46*%
G04 Gerber Fmt 4.6, Leading zero omitted, Abs format (unit mm)*
G04 Created by KiCad (PCBNEW 4.0.1-stable) date 5/21/2016 1:01:29 AM*
%MOMM*%
G01*
G04 APERTURE LIST*
%ADD10C,0.100000*%
%ADD11C,0.127000*%
G04 APERTURE END LIST*
D10*
D11*
X164350000Y-90400000D02*
G75*
G03X165150000Y-89600000I0J800000D01*
G01*
X165150000Y-92800000D02*
G75*
G03X164350000Y-92000000I-800000J0D01*
G01*
X92800000Y-92000000D02*
G75*
G03X92000000Y-92800000I0J-800000D01*
G01*
X92000000Y-89600000D02*
G75*
G03X92800000Y-90400000I800000J0D01*
G01*
X164350000Y-90400000D02*
X150250000Y-90400000D01*
X165150000Y-89600000D02*
X165150000Y-70187500D01*
X92000000Y-182200000D02*
G75*
G03X94000000Y-184200000I2000000J0D01*
G01*
X163150000Y-184200000D02*
G75*
G03X165150000Y-182200000I0J2000000D01*
G01*
X165150000Y-70187500D02*
G75*
G03X163150000Y-68187500I-2000000J0D01*
G01*
X94000000Y-68187500D02*
G75*
G03X92000000Y-70187500I0J-2000000D01*
G01*
X150250000Y-90400000D02*
G75*
G03X150250000Y-92000000I0J-800000D01*
G01*
X164350000Y-92000000D02*
X150250000Y-92000000D01*
X92000000Y-89600000D02*
X92000000Y-70187500D01*
X92800000Y-92000000D02*
X107000000Y-92000000D01*
X107000000Y-92000000D02*
G75*
G03X107000000Y-90400000I0J800000D01*
G01*
X92800000Y-90400000D02*
X107000000Y-90400000D01*
X92000000Y-182200000D02*
X92000000Y-92800000D01*
X165150000Y-182200000D02*
X165150000Y-92800000D01*
X94000000Y-184200000D02*
X163150000Y-184200000D01*
X94000000Y-68187500D02*
X163150000Y-68187500D01*
M02*
