G04 #@! TF.FileFunction,Paste,Bot*
%FSLAX46Y46*%
G04 Gerber Fmt 4.6, Leading zero omitted, Abs format (unit mm)*
G04 Created by KiCad (PCBNEW 4.0.1-stable) date 5/21/2016 3:48:14 PM*
%MOMM*%
G01*
G04 APERTURE LIST*
%ADD10C,0.100000*%
%ADD11C,0.406400*%
%ADD12R,1.000000X1.250000*%
%ADD13R,1.400000X1.200000*%
%ADD14R,0.650000X1.060000*%
%ADD15R,0.800000X0.550000*%
%ADD16R,1.250000X1.000000*%
%ADD17R,1.198880X1.198880*%
%ADD18R,1.000000X1.651000*%
%ADD19R,1.651000X1.000000*%
%ADD20R,1.500000X3.600000*%
%ADD21R,2.029460X2.651760*%
%ADD22R,1.000760X0.850900*%
%ADD23R,0.850900X1.000760*%
%ADD24R,1.100000X1.800000*%
%ADD25R,1.500000X1.000000*%
%ADD26R,0.400000X1.750000*%
%ADD27R,2.000000X1.400000*%
%ADD28R,1.300000X3.250000*%
%ADD29R,1.825000X0.700000*%
%ADD30R,1.425000X2.500000*%
G04 APERTURE END LIST*
D10*
D11*
X124960124Y-143019524D02*
X123904046Y-141963446D01*
X125525880Y-142453768D02*
X124469802Y-141397690D01*
X126091636Y-141888011D02*
X125035558Y-140831933D01*
X126657392Y-141322255D02*
X125601314Y-140266177D01*
X127223148Y-140756499D02*
X126167070Y-139700421D01*
X127788904Y-140190743D02*
X126732826Y-139134665D01*
X124394368Y-143585280D02*
X123338290Y-142529202D01*
X123828611Y-144151036D02*
X122772533Y-143094958D01*
X123262855Y-144716792D02*
X122206777Y-143660714D01*
X122697099Y-145282548D02*
X121641021Y-144226470D01*
X122131343Y-145848304D02*
X121075265Y-144792226D01*
X133042354Y-151101754D02*
X131986276Y-150045676D01*
X133608110Y-150535998D02*
X132552032Y-149479920D01*
X134173867Y-149970242D02*
X133117789Y-148914164D01*
X134739623Y-149404486D02*
X133683545Y-148348408D01*
X135305379Y-148838730D02*
X134249301Y-147782652D01*
X135871135Y-148272974D02*
X134815057Y-147216896D01*
X132476598Y-151667510D02*
X131420520Y-150611432D01*
X131910842Y-152233267D02*
X130854764Y-151177189D01*
X131345086Y-152799023D02*
X130289008Y-151742945D01*
X130779330Y-153364779D02*
X129723252Y-152308701D01*
X130213574Y-153930535D02*
X129157496Y-152874457D01*
X133042354Y-141963446D02*
X131986276Y-143019524D01*
X124960124Y-150045676D02*
X123904046Y-151101754D01*
X133608110Y-142529202D02*
X132552032Y-143585280D01*
X125525880Y-150611432D02*
X124469802Y-151667510D01*
X126091636Y-151177189D02*
X125035558Y-152233267D01*
X134173867Y-143094958D02*
X133117789Y-144151036D01*
X134739623Y-143660714D02*
X133683545Y-144716792D01*
X126657392Y-151742945D02*
X125601314Y-152799023D01*
X127223148Y-152308701D02*
X126167070Y-153364779D01*
X135305379Y-144226470D02*
X134249301Y-145282548D01*
X135871135Y-144792226D02*
X134815057Y-145848304D01*
X127788904Y-152874457D02*
X126732826Y-153930535D01*
X124394368Y-149479920D02*
X123338290Y-150535998D01*
X132476598Y-141397690D02*
X131420520Y-142453768D01*
X131910842Y-140831933D02*
X130854764Y-141888011D01*
X123828611Y-148914164D02*
X122772533Y-149970242D01*
X123262855Y-148348408D02*
X122206777Y-149404486D01*
X131345086Y-140266177D02*
X130289008Y-141322255D01*
X130779330Y-139700421D02*
X129723252Y-140756499D01*
X122697099Y-147782652D02*
X121641021Y-148838730D01*
X122131343Y-147216896D02*
X121075265Y-148272974D01*
X130213574Y-139134665D02*
X129157496Y-140190743D01*
D12*
X146186400Y-162458400D03*
X144186400Y-162458400D03*
D13*
X140838100Y-148869300D03*
X140838100Y-147269300D03*
X138638100Y-147269300D03*
X138638100Y-148869300D03*
D14*
X111660800Y-125219600D03*
X110710800Y-125219600D03*
X109760800Y-125219600D03*
X109760800Y-123019600D03*
X111660800Y-123019600D03*
D15*
X127857400Y-103045300D03*
X127857400Y-102095300D03*
X127857400Y-101145300D03*
X130257400Y-101145300D03*
X130257400Y-102095300D03*
X130257400Y-103045300D03*
D12*
X107143300Y-151091900D03*
X105143300Y-151091900D03*
D16*
X151650700Y-81251300D03*
X151650700Y-79251300D03*
X133426200Y-81187800D03*
X133426200Y-79187800D03*
X115087400Y-81251300D03*
X115087400Y-79251300D03*
X96240600Y-81264000D03*
X96240600Y-79264000D03*
X153073100Y-105216200D03*
X153073100Y-103216200D03*
X96075500Y-105025700D03*
X96075500Y-103025700D03*
X149606000Y-85518500D03*
X149606000Y-83518500D03*
D12*
X160194500Y-86487000D03*
X158194500Y-86487000D03*
X116868700Y-127901700D03*
X118868700Y-127901700D03*
D16*
X148501100Y-162658300D03*
X148501100Y-160658300D03*
D12*
X130356942Y-173289040D03*
X128356942Y-173289040D03*
D16*
X128016000Y-106500000D03*
X128016000Y-108500000D03*
X130365500Y-106500000D03*
X130365500Y-108500000D03*
D17*
X109288580Y-151079200D03*
X111386620Y-151079200D03*
D18*
X144400000Y-106948000D03*
X144400000Y-112102000D03*
X147600000Y-112102000D03*
X147600000Y-106948000D03*
D19*
X113577000Y-107925000D03*
X108423000Y-107925000D03*
X108423000Y-111125000D03*
X113577000Y-111125000D03*
D18*
X113600000Y-169252000D03*
X113600000Y-164098000D03*
X110400000Y-164098000D03*
X110400000Y-169252000D03*
D19*
X143423000Y-168275000D03*
X148577000Y-168275000D03*
X148577000Y-165075000D03*
X143423000Y-165075000D03*
D20*
X114047000Y-129781300D03*
X110997000Y-129781300D03*
D21*
X134061200Y-103388160D03*
X134061200Y-107558840D03*
D22*
X164223700Y-173774100D03*
X160723580Y-173774100D03*
D23*
X142087600Y-182245000D03*
X142087600Y-178744880D03*
X122161300Y-178041300D03*
X122161300Y-174541180D03*
X104013000Y-182054500D03*
X104013000Y-178554380D03*
X160312100Y-158952600D03*
X160312100Y-155452480D03*
X141211300Y-158952600D03*
X141211300Y-155452480D03*
X122174000Y-158952600D03*
X122174000Y-155452480D03*
X103111300Y-158952600D03*
X103111300Y-155452480D03*
X162928300Y-135813800D03*
X162928300Y-132313680D03*
X141224000Y-139752600D03*
X141224000Y-136252480D03*
X122148600Y-139752600D03*
X122148600Y-136252480D03*
X103111300Y-139752600D03*
X103111300Y-136252480D03*
X161493200Y-124891800D03*
X161493200Y-121391680D03*
X141236700Y-120952600D03*
X141236700Y-117452480D03*
X122148600Y-120952600D03*
X122148600Y-117452480D03*
X103047800Y-120952600D03*
X103047800Y-117452480D03*
X160223200Y-101752600D03*
X160223200Y-98252480D03*
X141160500Y-101752600D03*
X141160500Y-98252480D03*
X122148600Y-101752600D03*
X122148600Y-98252480D03*
X103060500Y-101752600D03*
X103060500Y-98252480D03*
X160299400Y-77952600D03*
X160299400Y-74452480D03*
X141185900Y-77952600D03*
X141185900Y-74452480D03*
X122135900Y-77952600D03*
X122135900Y-74452480D03*
X103124000Y-77952600D03*
X103124000Y-74452480D03*
D16*
X150190200Y-108461300D03*
X150190200Y-110461300D03*
D12*
X112366300Y-113639600D03*
X110366300Y-113639600D03*
D16*
X117297200Y-165598600D03*
X117297200Y-167598600D03*
X151828500Y-83518500D03*
X151828500Y-85518500D03*
X162433000Y-83518500D03*
X162433000Y-85518500D03*
D12*
X127000000Y-135534400D03*
X125000000Y-135534400D03*
D16*
X108419900Y-130438400D03*
X108419900Y-128438400D03*
X107632500Y-122050300D03*
X107632500Y-124050300D03*
D12*
X143000000Y-148475700D03*
X145000000Y-148475700D03*
X143000000Y-146151600D03*
X145000000Y-146151600D03*
X125500000Y-105905300D03*
X123500000Y-105905300D03*
D16*
X118770400Y-147304000D03*
X118770400Y-145304000D03*
D12*
X127000000Y-130581400D03*
X125000000Y-130581400D03*
X126762000Y-156070300D03*
X128762000Y-156070300D03*
X143000000Y-150787100D03*
X145000000Y-150787100D03*
X127000000Y-133007100D03*
X125000000Y-133007100D03*
X125500000Y-108254800D03*
X123500000Y-108254800D03*
D16*
X139090400Y-167027100D03*
X139090400Y-165027100D03*
D12*
X117878100Y-149987000D03*
X115878100Y-149987000D03*
D10*
G36*
X128422400Y-171080914D02*
X126654633Y-169313147D01*
X128422400Y-167545380D01*
X130190167Y-169313147D01*
X128422400Y-171080914D01*
X128422400Y-171080914D01*
G37*
G36*
X133372147Y-166131167D02*
X131604380Y-164363400D01*
X133372147Y-162595633D01*
X135139914Y-164363400D01*
X133372147Y-166131167D01*
X133372147Y-166131167D01*
G37*
G36*
X128422400Y-161181420D02*
X126654633Y-159413653D01*
X128422400Y-157645886D01*
X130190167Y-159413653D01*
X128422400Y-161181420D01*
X128422400Y-161181420D01*
G37*
G36*
X123472653Y-166131167D02*
X121704886Y-164363400D01*
X123472653Y-162595633D01*
X125240420Y-164363400D01*
X123472653Y-166131167D01*
X123472653Y-166131167D01*
G37*
D24*
X130500942Y-182308440D03*
X126800942Y-182308440D03*
X130500942Y-176108440D03*
X126800942Y-176108440D03*
D25*
X96608900Y-148424900D03*
X96608900Y-146924900D03*
X96608900Y-149924900D03*
D12*
X100549200Y-148742400D03*
X102549200Y-148742400D03*
D26*
X127275000Y-72725000D03*
X127925000Y-72725000D03*
X128575000Y-72725000D03*
X129225000Y-72725000D03*
X129875000Y-72725000D03*
D27*
X125675000Y-72900000D03*
D28*
X131300000Y-70325000D03*
D27*
X131475000Y-72900000D03*
D29*
X131562500Y-71600000D03*
X125587500Y-71600000D03*
D28*
X125850000Y-70325000D03*
D30*
X129537500Y-69650000D03*
X127612500Y-69650000D03*
D26*
X127275000Y-96537500D03*
X127925000Y-96537500D03*
X128575000Y-96537500D03*
X129225000Y-96537500D03*
X129875000Y-96537500D03*
D27*
X125675000Y-96712500D03*
D28*
X131300000Y-94137500D03*
D27*
X131475000Y-96712500D03*
D29*
X131562500Y-95412500D03*
X125587500Y-95412500D03*
D28*
X125850000Y-94137500D03*
D30*
X129537500Y-93462500D03*
X127612500Y-93462500D03*
M02*
